<?xml version="1.0" encoding="utf-8" standalone="no"?>
<!DOCTYPE svg PUBLIC "-//W3C//DTD SVG 1.1//EN"
  "http://www.w3.org/Graphics/SVG/1.1/DTD/svg11.dtd">
<!-- Created with matplotlib (https://matplotlib.org/) -->
<svg height="288pt" version="1.1" viewBox="0 0 432 288" width="432pt" xmlns="http://www.w3.org/2000/svg" xmlns:xlink="http://www.w3.org/1999/xlink">
 <defs>
  <style type="text/css">
*{stroke-linecap:butt;stroke-linejoin:round;}
  </style>
 </defs>
 <g id="figure_1">
  <g id="patch_1">
   <path d="M 0 288 
L 432 288 
L 432 0 
L 0 0 
z
" style="fill:#ffffff;"/>
  </g>
  <g id="axes_1">
   <g id="patch_2">
    <path d="M 54 252 
L 388.8 252 
L 388.8 34.56 
L 54 34.56 
z
" style="fill:#ffffff;"/>
   </g>
   <g id="matplotlib.axis_1">
    <g id="xtick_1">
     <g id="text_1">
      <!-- 4.0 -->
      <defs>
       <path d="M 37.796875 64.3125 
L 12.890625 25.390625 
L 37.796875 25.390625 
z
M 35.203125 72.90625 
L 47.609375 72.90625 
L 47.609375 25.390625 
L 58.015625 25.390625 
L 58.015625 17.1875 
L 47.609375 17.1875 
L 47.609375 0 
L 37.796875 0 
L 37.796875 17.1875 
L 4.890625 17.1875 
L 4.890625 26.703125 
z
" id="DejaVuSans-52"/>
       <path d="M 10.6875 12.40625 
L 21 12.40625 
L 21 0 
L 10.6875 0 
z
" id="DejaVuSans-46"/>
       <path d="M 31.78125 66.40625 
Q 24.171875 66.40625 20.328125 58.90625 
Q 16.5 51.421875 16.5 36.375 
Q 16.5 21.390625 20.328125 13.890625 
Q 24.171875 6.390625 31.78125 6.390625 
Q 39.453125 6.390625 43.28125 13.890625 
Q 47.125 21.390625 47.125 36.375 
Q 47.125 51.421875 43.28125 58.90625 
Q 39.453125 66.40625 31.78125 66.40625 
z
M 31.78125 74.21875 
Q 44.046875 74.21875 50.515625 64.515625 
Q 56.984375 54.828125 56.984375 36.375 
Q 56.984375 17.96875 50.515625 8.265625 
Q 44.046875 -1.421875 31.78125 -1.421875 
Q 19.53125 -1.421875 13.0625 8.265625 
Q 6.59375 17.96875 6.59375 36.375 
Q 6.59375 54.828125 13.0625 64.515625 
Q 19.53125 74.21875 31.78125 74.21875 
z
" id="DejaVuSans-48"/>
      </defs>
      <g style="fill:#262626;" transform="translate(60.471463 269.858281)scale(0.11 -0.11)">
       <use xlink:href="#DejaVuSans-52"/>
       <use x="63.623047" xlink:href="#DejaVuSans-46"/>
       <use x="95.410156" xlink:href="#DejaVuSans-48"/>
      </g>
     </g>
    </g>
    <g id="xtick_2">
     <g id="text_2">
      <!-- 4.2 -->
      <defs>
       <path d="M 19.1875 8.296875 
L 53.609375 8.296875 
L 53.609375 0 
L 7.328125 0 
L 7.328125 8.296875 
Q 12.9375 14.109375 22.625 23.890625 
Q 32.328125 33.6875 34.8125 36.53125 
Q 39.546875 41.84375 41.421875 45.53125 
Q 43.3125 49.21875 43.3125 52.78125 
Q 43.3125 58.59375 39.234375 62.25 
Q 35.15625 65.921875 28.609375 65.921875 
Q 23.96875 65.921875 18.8125 64.3125 
Q 13.671875 62.703125 7.8125 59.421875 
L 7.8125 69.390625 
Q 13.765625 71.78125 18.9375 73 
Q 24.125 74.21875 28.421875 74.21875 
Q 39.75 74.21875 46.484375 68.546875 
Q 53.21875 62.890625 53.21875 53.421875 
Q 53.21875 48.921875 51.53125 44.890625 
Q 49.859375 40.875 45.40625 35.40625 
Q 44.1875 33.984375 37.640625 27.21875 
Q 31.109375 20.453125 19.1875 8.296875 
z
" id="DejaVuSans-50"/>
      </defs>
      <g style="fill:#262626;" transform="translate(121.34419 269.858281)scale(0.11 -0.11)">
       <use xlink:href="#DejaVuSans-52"/>
       <use x="63.623047" xlink:href="#DejaVuSans-46"/>
       <use x="95.410156" xlink:href="#DejaVuSans-50"/>
      </g>
     </g>
    </g>
    <g id="xtick_3">
     <g id="text_3">
      <!-- 4.4 -->
      <g style="fill:#262626;" transform="translate(182.216918 269.858281)scale(0.11 -0.11)">
       <use xlink:href="#DejaVuSans-52"/>
       <use x="63.623047" xlink:href="#DejaVuSans-46"/>
       <use x="95.410156" xlink:href="#DejaVuSans-52"/>
      </g>
     </g>
    </g>
    <g id="xtick_4">
     <g id="text_4">
      <!-- 4.6 -->
      <defs>
       <path d="M 33.015625 40.375 
Q 26.375 40.375 22.484375 35.828125 
Q 18.609375 31.296875 18.609375 23.390625 
Q 18.609375 15.53125 22.484375 10.953125 
Q 26.375 6.390625 33.015625 6.390625 
Q 39.65625 6.390625 43.53125 10.953125 
Q 47.40625 15.53125 47.40625 23.390625 
Q 47.40625 31.296875 43.53125 35.828125 
Q 39.65625 40.375 33.015625 40.375 
z
M 52.59375 71.296875 
L 52.59375 62.3125 
Q 48.875 64.0625 45.09375 64.984375 
Q 41.3125 65.921875 37.59375 65.921875 
Q 27.828125 65.921875 22.671875 59.328125 
Q 17.53125 52.734375 16.796875 39.40625 
Q 19.671875 43.65625 24.015625 45.921875 
Q 28.375 48.1875 33.59375 48.1875 
Q 44.578125 48.1875 50.953125 41.515625 
Q 57.328125 34.859375 57.328125 23.390625 
Q 57.328125 12.15625 50.6875 5.359375 
Q 44.046875 -1.421875 33.015625 -1.421875 
Q 20.359375 -1.421875 13.671875 8.265625 
Q 6.984375 17.96875 6.984375 36.375 
Q 6.984375 53.65625 15.1875 63.9375 
Q 23.390625 74.21875 37.203125 74.21875 
Q 40.921875 74.21875 44.703125 73.484375 
Q 48.484375 72.75 52.59375 71.296875 
z
" id="DejaVuSans-54"/>
      </defs>
      <g style="fill:#262626;" transform="translate(243.089645 269.858281)scale(0.11 -0.11)">
       <use xlink:href="#DejaVuSans-52"/>
       <use x="63.623047" xlink:href="#DejaVuSans-46"/>
       <use x="95.410156" xlink:href="#DejaVuSans-54"/>
      </g>
     </g>
    </g>
    <g id="xtick_5">
     <g id="text_5">
      <!-- 4.8 -->
      <defs>
       <path d="M 31.78125 34.625 
Q 24.75 34.625 20.71875 30.859375 
Q 16.703125 27.09375 16.703125 20.515625 
Q 16.703125 13.921875 20.71875 10.15625 
Q 24.75 6.390625 31.78125 6.390625 
Q 38.8125 6.390625 42.859375 10.171875 
Q 46.921875 13.96875 46.921875 20.515625 
Q 46.921875 27.09375 42.890625 30.859375 
Q 38.875 34.625 31.78125 34.625 
z
M 21.921875 38.8125 
Q 15.578125 40.375 12.03125 44.71875 
Q 8.5 49.078125 8.5 55.328125 
Q 8.5 64.0625 14.71875 69.140625 
Q 20.953125 74.21875 31.78125 74.21875 
Q 42.671875 74.21875 48.875 69.140625 
Q 55.078125 64.0625 55.078125 55.328125 
Q 55.078125 49.078125 51.53125 44.71875 
Q 48 40.375 41.703125 38.8125 
Q 48.828125 37.15625 52.796875 32.3125 
Q 56.78125 27.484375 56.78125 20.515625 
Q 56.78125 9.90625 50.3125 4.234375 
Q 43.84375 -1.421875 31.78125 -1.421875 
Q 19.734375 -1.421875 13.25 4.234375 
Q 6.78125 9.90625 6.78125 20.515625 
Q 6.78125 27.484375 10.78125 32.3125 
Q 14.796875 37.15625 21.921875 38.8125 
z
M 18.3125 54.390625 
Q 18.3125 48.734375 21.84375 45.5625 
Q 25.390625 42.390625 31.78125 42.390625 
Q 38.140625 42.390625 41.71875 45.5625 
Q 45.3125 48.734375 45.3125 54.390625 
Q 45.3125 60.0625 41.71875 63.234375 
Q 38.140625 66.40625 31.78125 66.40625 
Q 25.390625 66.40625 21.84375 63.234375 
Q 18.3125 60.0625 18.3125 54.390625 
z
" id="DejaVuSans-56"/>
      </defs>
      <g style="fill:#262626;" transform="translate(303.962372 269.858281)scale(0.11 -0.11)">
       <use xlink:href="#DejaVuSans-52"/>
       <use x="63.623047" xlink:href="#DejaVuSans-46"/>
       <use x="95.410156" xlink:href="#DejaVuSans-56"/>
      </g>
     </g>
    </g>
    <g id="xtick_6">
     <g id="text_6">
      <!-- 5.0 -->
      <defs>
       <path d="M 10.796875 72.90625 
L 49.515625 72.90625 
L 49.515625 64.59375 
L 19.828125 64.59375 
L 19.828125 46.734375 
Q 21.96875 47.46875 24.109375 47.828125 
Q 26.265625 48.1875 28.421875 48.1875 
Q 40.625 48.1875 47.75 41.5 
Q 54.890625 34.8125 54.890625 23.390625 
Q 54.890625 11.625 47.5625 5.09375 
Q 40.234375 -1.421875 26.90625 -1.421875 
Q 22.3125 -1.421875 17.546875 -0.640625 
Q 12.796875 0.140625 7.71875 1.703125 
L 7.71875 11.625 
Q 12.109375 9.234375 16.796875 8.0625 
Q 21.484375 6.890625 26.703125 6.890625 
Q 35.15625 6.890625 40.078125 11.328125 
Q 45.015625 15.765625 45.015625 23.390625 
Q 45.015625 31 40.078125 35.4375 
Q 35.15625 39.890625 26.703125 39.890625 
Q 22.75 39.890625 18.8125 39.015625 
Q 14.890625 38.140625 10.796875 36.28125 
z
" id="DejaVuSans-53"/>
      </defs>
      <g style="fill:#262626;" transform="translate(364.835099 269.858281)scale(0.11 -0.11)">
       <use xlink:href="#DejaVuSans-53"/>
       <use x="63.623047" xlink:href="#DejaVuSans-46"/>
       <use x="95.410156" xlink:href="#DejaVuSans-48"/>
      </g>
     </g>
    </g>
    <g id="text_7">
     <!-- $g_{0}^{horseshoe}$ -->
     <defs>
      <path d="M 59.625 54.6875 
L 50.296875 6.78125 
Q 47.609375 -7.125 40.015625 -13.953125 
Q 32.421875 -20.796875 19.578125 -20.796875 
Q 14.84375 -20.796875 10.78125 -20.09375 
Q 6.734375 -19.390625 3.21875 -17.921875 
L 4.890625 -9.1875 
Q 8.203125 -11.328125 11.90625 -12.34375 
Q 15.625 -13.375 19.828125 -13.375 
Q 28.375 -13.375 33.859375 -8.703125 
Q 39.359375 -4.046875 41.109375 4.6875 
L 41.890625 8.796875 
Q 38.140625 4.5 33.15625 2.25 
Q 28.171875 0 22.40625 0 
Q 14.109375 0 9.34375 5.484375 
Q 4.59375 10.984375 4.59375 20.609375 
Q 4.59375 28.171875 7.46875 35.421875 
Q 10.359375 42.671875 15.578125 48.296875 
Q 19.046875 52 23.65625 54 
Q 28.265625 56 33.296875 56 
Q 38.8125 56 42.90625 53.4375 
Q 47.015625 50.875 49.03125 46.1875 
L 50.59375 54.6875 
z
M 46.09375 34.625 
Q 46.09375 41.265625 42.96875 44.875 
Q 39.84375 48.484375 34.078125 48.484375 
Q 30.515625 48.484375 27.296875 47.0625 
Q 24.078125 45.65625 21.78125 43.109375 
Q 18.0625 38.921875 15.984375 33.234375 
Q 13.921875 27.546875 13.921875 21.484375 
Q 13.921875 14.75 17.0625 11.125 
Q 20.21875 7.515625 26.125 7.515625 
Q 34.671875 7.515625 40.375 15.25 
Q 46.09375 23 46.09375 34.625 
z
" id="DejaVuSans-Oblique-103"/>
      <path d="M 55.71875 33.015625 
L 49.3125 0 
L 40.28125 0 
L 46.6875 32.671875 
Q 47.125 34.96875 47.359375 36.71875 
Q 47.609375 38.484375 47.609375 39.5 
Q 47.609375 43.609375 45.015625 45.890625 
Q 42.4375 48.1875 37.796875 48.1875 
Q 30.5625 48.1875 25.265625 43.296875 
Q 19.96875 38.421875 18.40625 30.328125 
L 12.5 0 
L 3.515625 0 
L 18.3125 75.984375 
L 27.296875 75.984375 
L 21.484375 46.09375 
Q 24.90625 50.6875 30.21875 53.34375 
Q 35.546875 56 41.40625 56 
Q 48.640625 56 52.609375 52.09375 
Q 56.59375 48.1875 56.59375 41.109375 
Q 56.59375 39.359375 56.375 37.359375 
Q 56.15625 35.359375 55.71875 33.015625 
z
" id="DejaVuSans-Oblique-104"/>
      <path d="M 25.390625 -1.421875 
Q 15.765625 -1.421875 10.171875 4.515625 
Q 4.59375 10.453125 4.59375 20.703125 
Q 4.59375 26.65625 6.515625 32.828125 
Q 8.453125 39.015625 11.53125 43.21875 
Q 16.359375 49.75 22.3125 52.875 
Q 28.265625 56 35.796875 56 
Q 45.125 56 50.859375 50.1875 
Q 56.59375 44.390625 56.59375 35.015625 
Q 56.59375 28.515625 54.6875 22.0625 
Q 52.78125 15.625 49.703125 11.375 
Q 44.921875 4.828125 38.96875 1.703125 
Q 33.015625 -1.421875 25.390625 -1.421875 
z
M 13.921875 21 
Q 13.921875 13.578125 17.015625 9.890625 
Q 20.125 6.203125 26.421875 6.203125 
Q 35.453125 6.203125 41.375 14.078125 
Q 47.3125 21.96875 47.3125 34.078125 
Q 47.3125 41.15625 44.140625 44.765625 
Q 40.96875 48.390625 34.8125 48.390625 
Q 29.734375 48.390625 25.78125 46.015625 
Q 21.828125 43.65625 18.703125 38.8125 
Q 16.40625 35.203125 15.15625 30.5625 
Q 13.921875 25.921875 13.921875 21 
z
" id="DejaVuSans-Oblique-111"/>
      <path d="M 44.578125 46.390625 
Q 43.21875 47.125 41.453125 47.515625 
Q 39.703125 47.90625 37.703125 47.90625 
Q 30.515625 47.90625 25.140625 42.453125 
Q 19.78125 37.015625 18.015625 27.875 
L 12.5 0 
L 3.515625 0 
L 14.203125 54.6875 
L 23.1875 54.6875 
L 21.484375 46.1875 
Q 25.046875 50.921875 30 53.453125 
Q 34.96875 56 40.578125 56 
Q 42.046875 56 43.453125 55.828125 
Q 44.875 55.671875 46.296875 55.28125 
z
" id="DejaVuSans-Oblique-114"/>
      <path d="M 50 53.078125 
L 48.296875 44.578125 
Q 44.734375 46.53125 40.765625 47.5 
Q 36.8125 48.484375 32.625 48.484375 
Q 25.53125 48.484375 21.453125 46.0625 
Q 17.390625 43.65625 17.390625 39.5 
Q 17.390625 34.671875 26.859375 32.078125 
Q 27.59375 31.890625 27.9375 31.78125 
L 30.8125 30.90625 
Q 39.796875 28.421875 42.796875 25.6875 
Q 45.796875 22.953125 45.796875 18.21875 
Q 45.796875 9.515625 38.890625 4.046875 
Q 31.984375 -1.421875 20.796875 -1.421875 
Q 16.453125 -1.421875 11.671875 -0.578125 
Q 6.890625 0.25 1.125 2 
L 2.875 11.28125 
Q 7.8125 8.734375 12.59375 7.421875 
Q 17.390625 6.109375 21.78125 6.109375 
Q 28.375 6.109375 32.5 8.9375 
Q 36.625 11.765625 36.625 16.109375 
Q 36.625 20.796875 25.78125 23.6875 
L 24.859375 23.921875 
L 21.78125 24.703125 
Q 14.9375 26.515625 11.765625 29.46875 
Q 8.59375 32.421875 8.59375 37.015625 
Q 8.59375 45.75 15.15625 50.875 
Q 21.734375 56 33.015625 56 
Q 37.453125 56 41.671875 55.265625 
Q 45.90625 54.546875 50 53.078125 
z
" id="DejaVuSans-Oblique-115"/>
      <path d="M 48.09375 32.234375 
Q 48.25 33.015625 48.3125 33.84375 
Q 48.390625 34.671875 48.390625 35.5 
Q 48.390625 41.453125 44.890625 44.921875 
Q 41.40625 48.390625 35.40625 48.390625 
Q 28.71875 48.390625 23.578125 44.15625 
Q 18.453125 39.9375 15.828125 32.171875 
z
M 55.90625 25.203125 
L 14.109375 25.203125 
Q 13.8125 23.34375 13.71875 22.265625 
Q 13.625 21.1875 13.625 20.40625 
Q 13.625 13.625 17.796875 9.90625 
Q 21.96875 6.203125 29.59375 6.203125 
Q 35.453125 6.203125 40.671875 7.515625 
Q 45.90625 8.84375 50.390625 11.375 
L 48.6875 2.484375 
Q 43.84375 0.53125 38.6875 -0.4375 
Q 33.546875 -1.421875 28.21875 -1.421875 
Q 16.84375 -1.421875 10.71875 4.015625 
Q 4.59375 9.46875 4.59375 19.484375 
Q 4.59375 28.03125 7.640625 35.375 
Q 10.6875 42.71875 16.609375 48.484375 
Q 20.40625 52.09375 25.65625 54.046875 
Q 30.90625 56 36.8125 56 
Q 46.09375 56 51.578125 50.4375 
Q 57.078125 44.875 57.078125 35.5 
Q 57.078125 33.25 56.78125 30.6875 
Q 56.5 28.125 55.90625 25.203125 
z
" id="DejaVuSans-Oblique-101"/>
     </defs>
     <g style="fill:#262626;" transform="translate(195.36 287.185938)scale(0.12 -0.12)">
      <use transform="translate(0 0.529687)" xlink:href="#DejaVuSans-Oblique-103"/>
      <use transform="translate(68.126458 38.810938)scale(0.7)" xlink:href="#DejaVuSans-Oblique-104"/>
      <use transform="translate(112.491693 38.810938)scale(0.7)" xlink:href="#DejaVuSans-Oblique-111"/>
      <use transform="translate(155.318841 38.810938)scale(0.7)" xlink:href="#DejaVuSans-Oblique-114"/>
      <use transform="translate(184.098138 38.810938)scale(0.7)" xlink:href="#DejaVuSans-Oblique-115"/>
      <use transform="translate(220.567865 38.810938)scale(0.7)" xlink:href="#DejaVuSans-Oblique-101"/>
      <use transform="translate(263.634271 38.810938)scale(0.7)" xlink:href="#DejaVuSans-Oblique-115"/>
      <use transform="translate(300.103997 38.810938)scale(0.7)" xlink:href="#DejaVuSans-Oblique-104"/>
      <use transform="translate(344.469232 38.810938)scale(0.7)" xlink:href="#DejaVuSans-Oblique-111"/>
      <use transform="translate(387.29638 38.810938)scale(0.7)" xlink:href="#DejaVuSans-Oblique-101"/>
      <use transform="translate(63.476562 -26.814063)scale(0.7)" xlink:href="#DejaVuSans-48"/>
     </g>
    </g>
   </g>
   <g id="matplotlib.axis_2">
    <g id="ytick_1">
     <g id="text_8">
      <!-- -4 -->
      <defs>
       <path d="M 4.890625 31.390625 
L 31.203125 31.390625 
L 31.203125 23.390625 
L 4.890625 23.390625 
z
" id="DejaVuSans-45"/>
      </defs>
      <g style="fill:#262626;" transform="translate(33.532656 242.136596)scale(0.11 -0.11)">
       <use xlink:href="#DejaVuSans-45"/>
       <use x="36.083984" xlink:href="#DejaVuSans-52"/>
      </g>
     </g>
    </g>
    <g id="ytick_2">
     <g id="text_9">
      <!-- -3 -->
      <defs>
       <path d="M 40.578125 39.3125 
Q 47.65625 37.796875 51.625 33 
Q 55.609375 28.21875 55.609375 21.1875 
Q 55.609375 10.40625 48.1875 4.484375 
Q 40.765625 -1.421875 27.09375 -1.421875 
Q 22.515625 -1.421875 17.65625 -0.515625 
Q 12.796875 0.390625 7.625 2.203125 
L 7.625 11.71875 
Q 11.71875 9.328125 16.59375 8.109375 
Q 21.484375 6.890625 26.8125 6.890625 
Q 36.078125 6.890625 40.9375 10.546875 
Q 45.796875 14.203125 45.796875 21.1875 
Q 45.796875 27.640625 41.28125 31.265625 
Q 36.765625 34.90625 28.71875 34.90625 
L 20.21875 34.90625 
L 20.21875 43.015625 
L 29.109375 43.015625 
Q 36.375 43.015625 40.234375 45.921875 
Q 44.09375 48.828125 44.09375 54.296875 
Q 44.09375 59.90625 40.109375 62.90625 
Q 36.140625 65.921875 28.71875 65.921875 
Q 24.65625 65.921875 20.015625 65.03125 
Q 15.375 64.15625 9.8125 62.3125 
L 9.8125 71.09375 
Q 15.4375 72.65625 20.34375 73.4375 
Q 25.25 74.21875 29.59375 74.21875 
Q 40.828125 74.21875 47.359375 69.109375 
Q 53.90625 64.015625 53.90625 55.328125 
Q 53.90625 49.265625 50.4375 45.09375 
Q 46.96875 40.921875 40.578125 39.3125 
z
" id="DejaVuSans-51"/>
      </defs>
      <g style="fill:#262626;" transform="translate(33.532656 213.638743)scale(0.11 -0.11)">
       <use xlink:href="#DejaVuSans-45"/>
       <use x="36.083984" xlink:href="#DejaVuSans-51"/>
      </g>
     </g>
    </g>
    <g id="ytick_3">
     <g id="text_10">
      <!-- -2 -->
      <g style="fill:#262626;" transform="translate(33.532656 185.14089)scale(0.11 -0.11)">
       <use xlink:href="#DejaVuSans-45"/>
       <use x="36.083984" xlink:href="#DejaVuSans-50"/>
      </g>
     </g>
    </g>
    <g id="ytick_4">
     <g id="text_11">
      <!-- -1 -->
      <defs>
       <path d="M 12.40625 8.296875 
L 28.515625 8.296875 
L 28.515625 63.921875 
L 10.984375 60.40625 
L 10.984375 69.390625 
L 28.421875 72.90625 
L 38.28125 72.90625 
L 38.28125 8.296875 
L 54.390625 8.296875 
L 54.390625 0 
L 12.40625 0 
z
" id="DejaVuSans-49"/>
      </defs>
      <g style="fill:#262626;" transform="translate(33.532656 156.643037)scale(0.11 -0.11)">
       <use xlink:href="#DejaVuSans-45"/>
       <use x="36.083984" xlink:href="#DejaVuSans-49"/>
      </g>
     </g>
    </g>
    <g id="ytick_5">
     <g id="text_12">
      <!-- 0 -->
      <g style="fill:#262626;" transform="translate(37.50125 128.145184)scale(0.11 -0.11)">
       <use xlink:href="#DejaVuSans-48"/>
      </g>
     </g>
    </g>
    <g id="ytick_6">
     <g id="text_13">
      <!-- 1 -->
      <g style="fill:#262626;" transform="translate(37.50125 99.647331)scale(0.11 -0.11)">
       <use xlink:href="#DejaVuSans-49"/>
      </g>
     </g>
    </g>
    <g id="ytick_7">
     <g id="text_14">
      <!-- 2 -->
      <g style="fill:#262626;" transform="translate(37.50125 71.149478)scale(0.11 -0.11)">
       <use xlink:href="#DejaVuSans-50"/>
      </g>
     </g>
    </g>
    <g id="ytick_8">
     <g id="text_15">
      <!-- 3 -->
      <g style="fill:#262626;" transform="translate(37.50125 42.651625)scale(0.11 -0.11)">
       <use xlink:href="#DejaVuSans-51"/>
      </g>
     </g>
    </g>
    <g id="text_16">
     <!-- $\it{MSFE}$ -->
     <defs>
      <path d="M 16.890625 72.90625 
L 31.6875 72.90625 
L 40.1875 23.78125 
L 68.40625 72.90625 
L 83.59375 72.90625 
L 69.390625 0 
L 59.8125 0 
L 72.21875 63.921875 
L 43.609375 14.015625 
L 33.984375 14.015625 
L 24.703125 64.109375 
L 12.3125 0 
L 2.6875 0 
z
" id="DejaVuSans-Oblique-77"/>
      <path d="M 60.296875 70.515625 
L 58.40625 60.890625 
Q 53.46875 63.53125 48.609375 64.875 
Q 43.75 66.21875 39.203125 66.21875 
Q 30.375 66.21875 25.140625 62.359375 
Q 19.921875 58.5 19.921875 52.09375 
Q 19.921875 48.578125 21.84375 46.703125 
Q 23.78125 44.828125 31.78125 42.671875 
L 37.703125 41.21875 
Q 47.703125 38.625 51.609375 34.640625 
Q 55.515625 30.671875 55.515625 23.484375 
Q 55.515625 12.453125 46.84375 5.515625 
Q 38.1875 -1.421875 24.03125 -1.421875 
Q 18.21875 -1.421875 12.359375 -0.265625 
Q 6.5 0.875 0.59375 3.21875 
L 2.59375 13.375 
Q 8.015625 10.015625 13.453125 8.296875 
Q 18.890625 6.59375 24.3125 6.59375 
Q 33.546875 6.59375 39.109375 10.6875 
Q 44.671875 14.796875 44.671875 21.390625 
Q 44.671875 25.78125 42.453125 28.046875 
Q 40.234375 30.328125 32.90625 32.171875 
L 27 33.6875 
Q 16.890625 36.328125 13.203125 39.765625 
Q 9.515625 43.21875 9.515625 49.421875 
Q 9.515625 60.296875 17.890625 67.25 
Q 26.265625 74.21875 39.703125 74.21875 
Q 44.921875 74.21875 50.046875 73.28125 
Q 55.171875 72.359375 60.296875 70.515625 
z
" id="DejaVuSans-Oblique-83"/>
      <path d="M 16.890625 72.90625 
L 58.6875 72.90625 
L 57.078125 64.59375 
L 25.09375 64.59375 
L 20.90625 43.109375 
L 49.8125 43.109375 
L 48.1875 34.8125 
L 19.28125 34.8125 
L 12.5 0 
L 2.6875 0 
z
" id="DejaVuSans-Oblique-70"/>
      <path d="M 16.890625 72.90625 
L 62.984375 72.90625 
L 61.375 64.59375 
L 25.09375 64.59375 
L 20.90625 43.015625 
L 55.71875 43.015625 
L 54.109375 34.71875 
L 19.28125 34.71875 
L 14.203125 8.296875 
L 51.3125 8.296875 
L 49.703125 0 
L 2.6875 0 
z
" id="DejaVuSans-Oblique-69"/>
     </defs>
     <g style="fill:#262626;" transform="translate(27.037031 159.54)rotate(-90)scale(0.12 -0.12)">
      <use transform="translate(0 0.78125)" xlink:href="#DejaVuSans-Oblique-77"/>
      <use transform="translate(86.279297 0.78125)" xlink:href="#DejaVuSans-Oblique-83"/>
      <use transform="translate(149.755859 0.78125)" xlink:href="#DejaVuSans-Oblique-70"/>
      <use transform="translate(207.275391 0.78125)" xlink:href="#DejaVuSans-Oblique-69"/>
     </g>
    </g>
   </g>
   <g id="line2d_1">
    <path clip-path="url(#p720f43cec9)" d="M 69.218182 76.98765 
L 73.992513 72.183102 
L 78.766845 67.076313 
L 91.896257 52.720016 
L 94.283422 50.447528 
L 96.670588 48.439511 
L 99.057754 46.769953 
L 101.44492 45.509082 
L 102.638503 45.051823 
L 103.832086 44.718725 
L 105.025668 44.514919 
L 106.219251 44.443636 
L 107.412834 44.506894 
L 108.606417 44.705141 
L 109.8 45.037633 
L 110.993583 45.502585 
L 112.187166 46.09548 
L 114.574332 47.64797 
L 116.961497 49.638227 
L 119.348663 52.002082 
L 121.735829 54.662303 
L 125.316578 59.026709 
L 134.865241 71.051278 
L 138.445989 75.136429 
L 142.026738 78.800815 
L 144.413904 80.984781 
L 146.80107 82.957175 
L 149.188235 84.721057 
L 151.575401 86.284464 
L 153.962567 87.659536 
L 157.543316 89.399625 
L 161.124064 90.797765 
L 164.704813 91.90536 
L 168.285561 92.770471 
L 171.86631 93.436125 
L 176.640642 94.076934 
L 181.414973 94.501208 
L 187.382888 94.811301 
L 194.544385 94.962874 
L 204.093048 94.935041 
L 218.416043 94.636179 
L 241.094118 93.90152 
L 276.901604 92.495074 
L 353.290909 88.811414 
L 373.581818 87.672725 
L 373.581818 87.672725 
" style="fill:none;stroke:#a1c9f4;stroke-linecap:round;stroke-width:1.5;"/>
   </g>
   <g id="line2d_2">
    <path clip-path="url(#p720f43cec9)" d="M 69.218182 122.769204 
L 73.992513 121.820404 
L 78.766845 121.118531 
L 82.347594 120.788099 
L 85.928342 120.65109 
L 89.509091 120.715232 
L 93.08984 120.966506 
L 105.025668 122.12404 
L 107.412834 122.096494 
L 109.8 121.87097 
L 112.187166 121.416431 
L 114.574332 120.722387 
L 116.961497 119.794548 
L 119.348663 118.66366 
L 122.929412 116.683596 
L 134.865241 109.651419 
L 138.445989 107.884732 
L 142.026738 106.365406 
L 145.607487 105.087084 
L 149.188235 104.02753 
L 153.962567 102.902976 
L 158.736898 102.043036 
L 164.704813 101.244734 
L 171.86631 100.568828 
L 180.22139 100.026527 
L 192.157219 99.505126 
L 211.254545 98.931443 
L 327.032086 95.779347 
L 359.258824 94.727193 
L 373.581818 94.232829 
L 373.581818 94.232829 
" style="fill:none;stroke:#ffb482;stroke-dasharray:6,2.25;stroke-dashoffset:0;stroke-width:1.5;"/>
   </g>
   <g id="line2d_3">
    <path clip-path="url(#p720f43cec9)" d="M 69.218182 175.137693 
L 71.605348 176.735607 
L 73.992513 178.521006 
L 76.379679 180.50362 
L 78.766845 182.690348 
L 82.347594 186.345848 
L 85.928342 190.420156 
L 90.702674 196.293833 
L 95.477005 202.152248 
L 97.864171 204.789118 
L 100.251337 207.036293 
L 101.44492 207.961313 
L 102.638503 208.726366 
L 103.832086 209.311041 
L 105.025668 209.696231 
L 106.219251 209.864541 
L 107.412834 209.801022 
L 108.606417 209.493021 
L 109.8 208.931659 
L 110.993583 208.111458 
L 112.187166 207.030693 
L 113.380749 205.692881 
L 114.574332 204.103837 
L 115.767914 202.274319 
L 118.15508 197.954315 
L 120.542246 192.882408 
L 122.929412 187.240947 
L 126.51016 178.142708 
L 132.478075 162.800703 
L 136.058824 154.259697 
L 138.445989 149.027125 
L 140.833155 144.215387 
L 143.220321 139.841874 
L 145.607487 135.906173 
L 147.994652 132.39402 
L 150.381818 129.282271 
L 152.768984 126.541892 
L 155.15615 124.141076 
L 157.543316 122.046959 
L 159.930481 120.227019 
L 162.317647 118.65025 
L 164.704813 117.287729 
L 167.091979 116.112769 
L 170.672727 114.65002 
L 174.253476 113.484742 
L 177.834225 112.557921 
L 182.608556 111.61053 
L 187.382888 110.911373 
L 193.350802 110.285379 
L 200.512299 109.777996 
L 210.060963 109.34964 
L 224.383957 108.971068 
L 250.642781 108.550744 
L 373.581818 106.829288 
L 373.581818 106.829288 
" style="fill:none;stroke:#8de5a1;stroke-dasharray:1.5,1.5;stroke-dashoffset:0;stroke-width:1.5;"/>
   </g>
   <g id="line2d_4">
    <path clip-path="url(#p720f43cec9)" d="M 69.218182 194.317875 
L 71.605348 196.616927 
L 73.992513 199.149628 
L 76.379679 201.926612 
L 78.766845 204.954082 
L 82.347594 209.95061 
L 85.928342 215.443246 
L 91.896257 225.225428 
L 95.477005 230.93811 
L 97.864171 234.367551 
L 100.251337 237.275637 
L 101.44492 238.468593 
L 102.638503 239.453315 
L 103.832086 240.204227 
L 105.025668 240.697846 
L 106.219251 240.912811 
L 107.412834 240.830806 
L 108.606417 240.436557 
L 109.8 239.719252 
L 110.993583 238.672387 
L 112.187166 237.294519 
L 113.380749 235.589363 
L 114.574332 233.565025 
L 115.767914 231.235317 
L 118.15508 225.734932 
L 120.542246 219.27524 
L 122.929412 212.085433 
L 126.51016 200.475053 
L 132.478075 180.842758 
L 136.058824 169.87881 
L 138.445989 163.148703 
L 140.833155 156.950622 
L 143.220321 151.309472 
L 145.607487 146.226847 
L 147.994652 141.686428 
L 150.381818 137.660152 
L 152.768984 134.112025 
L 155.15615 131.001936 
L 157.543316 128.288292 
L 159.930481 125.929662 
L 162.317647 123.886395 
L 164.704813 122.121235 
L 167.091979 120.59985 
L 169.479144 119.291195 
L 171.86631 118.167198 
L 175.447059 116.773823 
L 179.027807 115.668774 
L 182.608556 114.793085 
L 187.382888 113.901173 
L 192.157219 113.245267 
L 198.125134 112.659752 
L 205.286631 112.186731 
L 214.835294 111.78857 
L 229.158289 111.438524 
L 256.610695 111.039534 
L 373.581818 109.603473 
L 373.581818 109.603473 
" style="fill:none;stroke:#ff9f9b;stroke-dasharray:4.5,1.875,2.25,1.875;stroke-dashoffset:0;stroke-width:1.5;"/>
   </g>
   <g id="line2d_5">
    <path clip-path="url(#p720f43cec9)" d="M 69.218182 195.397245 
L 71.605348 197.717997 
L 73.992513 200.26812 
L 76.379679 203.057934 
L 78.766845 206.093135 
L 82.347594 211.092066 
L 85.928342 216.576397 
L 91.896257 226.331891 
L 95.477005 232.034383 
L 97.864171 235.465001 
L 100.251337 238.385484 
L 101.44492 239.589583 
L 102.638503 240.589228 
L 103.832086 241.358739 
L 105.025668 241.875012 
L 106.219251 242.116364 
L 107.412834 242.064373 
L 108.606417 241.703581 
L 109.8 241.022712 
L 110.993583 240.014762 
L 112.187166 238.677581 
L 113.380749 237.0143 
L 114.574332 235.032346 
L 115.767914 232.74473 
L 116.961497 230.16841 
L 119.348663 224.237869 
L 121.735829 217.446948 
L 125.316578 206.172831 
L 133.671658 178.868638 
L 137.252406 168.198569 
L 139.639572 161.699303 
L 142.026738 155.744194 
L 144.413904 150.347648 
L 146.80107 145.503019 
L 149.188235 141.188915 
L 151.575401 137.373418 
L 153.962567 134.018867 
L 156.349733 131.084093 
L 158.736898 128.527758 
L 161.124064 126.30911 
L 163.51123 124.389507 
L 165.898396 122.732957 
L 168.285561 121.30653 
L 170.672727 120.080494 
L 174.253476 118.55976 
L 177.834225 117.353351 
L 181.414973 116.397617 
L 184.995722 115.640738 
L 189.770053 114.869859 
L 195.737968 114.185568 
L 202.899465 113.638601 
L 211.254545 113.232352 
L 223.190374 112.883843 
L 243.481283 112.545515 
L 306.741176 111.823657 
L 344.935829 111.387053 
L 359.258824 111.212039 
L 373.581818 111.046463 
L 373.581818 111.046463 
" style="fill:none;stroke:#d0bbff;stroke-dasharray:7.5,1.5,1.5,1.5;stroke-dashoffset:0;stroke-width:1.5;"/>
   </g>
   <g id="line2d_6">
    <path clip-path="url(#p720f43cec9)" d="M 69.218182 190.031073 
L 71.605348 192.122965 
L 73.992513 194.420847 
L 76.379679 196.933714 
L 79.960428 201.116554 
L 83.541176 205.775283 
L 87.121925 210.845596 
L 96.670588 224.766877 
L 99.057754 227.721316 
L 101.44492 230.142326 
L 102.638503 231.094779 
L 103.832086 231.843513 
L 105.025668 232.367384 
L 106.219251 232.645887 
L 107.412834 232.661527 
L 108.606417 232.399247 
L 109.8 231.847623 
L 110.993583 230.99899 
L 112.187166 229.850115 
L 113.380749 228.402421 
L 114.574332 226.661555 
L 115.767914 224.637689 
L 116.961497 222.345331 
L 119.348663 217.031592 
L 121.735829 210.902366 
L 124.122995 204.172655 
L 128.897326 189.811385 
L 133.671658 175.581839 
L 137.252406 165.71307 
L 139.639572 159.685995 
L 142.026738 154.153812 
L 144.413904 149.133095 
L 146.80107 144.619949 
L 149.188235 140.596576 
L 151.575401 137.034808 
L 153.962567 133.900755 
L 156.349733 131.156973 
L 158.736898 128.76564 
L 161.124064 126.689077 
L 163.51123 124.891705 
L 165.898396 123.340068 
L 168.285561 122.003651 
L 170.672727 120.854729 
L 174.253476 119.429396 
L 177.834225 118.29863 
L 181.414973 117.402871 
L 186.189305 116.491765 
L 190.963636 115.823585 
L 196.931551 115.230256 
L 204.093048 114.75566 
L 213.641711 114.36389 
L 227.964706 114.033199 
L 254.223529 113.695908 
L 373.581818 112.480544 
L 373.581818 112.480544 
" style="fill:none;stroke:#debb9b;stroke-dasharray:4.5,1.875,1.875,1.875,1.875,1.875;stroke-dashoffset:0;stroke-width:1.5;"/>
   </g>
   <g id="line2d_7">
    <path clip-path="url(#p720f43cec9)" d="M 69.218182 186.24612 
L 72.79893 189.248213 
L 76.379679 192.6907 
L 79.960428 196.59235 
L 83.541176 200.935602 
L 87.121925 205.659763 
L 96.670588 218.626574 
L 99.057754 221.379868 
L 101.44492 223.638119 
L 102.638503 224.527703 
L 103.832086 225.227964 
L 105.025668 225.719095 
L 106.219251 225.982109 
L 107.412834 226.000521 
L 108.606417 225.760159 
L 109.8 225.250306 
L 110.993583 224.463524 
L 112.187166 223.396702 
L 113.380749 222.050811 
L 114.574332 220.430997 
L 115.767914 218.546605 
L 116.961497 216.410632 
L 119.348663 211.455149 
L 121.735829 205.733266 
L 124.122995 199.444808 
L 128.897326 186.008699 
L 133.671658 172.677495 
L 137.252406 163.422738 
L 139.639572 157.767429 
L 142.026738 152.574356 
L 144.413904 147.859792 
L 146.80107 143.620634 
L 149.188235 139.840469 
L 151.575401 136.493233 
L 153.962567 133.547354 
L 156.349733 130.967819 
L 158.736898 128.719297 
L 161.124064 126.766492 
L 163.51123 125.076098 
L 165.898396 123.61662 
L 168.285561 122.359494 
L 171.86631 120.797045 
L 175.447059 119.555417 
L 179.027807 118.571015 
L 182.608556 117.791492 
L 187.382888 116.998601 
L 193.350802 116.29737 
L 200.512299 115.741438 
L 208.86738 115.335235 
L 220.803209 114.998039 
L 241.094118 114.692499 
L 298.386096 114.146333 
L 312.709091 114.020614 
L 342.548663 113.734606 
L 356.871658 113.601666 
L 373.581818 113.438908 
L 373.581818 113.438908 
" style="fill:none;stroke:#fab0e4;stroke-dasharray:6,1.5,6,1.5,1.5,1.5;stroke-dashoffset:0;stroke-width:1.5;"/>
   </g>
   <g id="line2d_8">
    <path clip-path="url(#p720f43cec9)" d="M 69.218182 176.407361 
L 72.79893 178.941509 
L 76.379679 181.84968 
L 79.960428 185.149032 
L 83.541176 188.826484 
L 87.121925 192.833161 
L 96.670588 203.900496 
L 99.057754 206.277655 
L 101.44492 208.247405 
L 102.638503 209.033735 
L 103.832086 209.662505 
L 105.025668 210.116541 
L 106.219251 210.379683 
L 107.412834 210.437339 
L 108.606417 210.277083 
L 109.8 209.889414 
L 110.993583 209.26737 
L 112.187166 208.407858 
L 113.380749 207.310658 
L 114.574332 205.979836 
L 115.767914 204.422538 
L 116.961497 202.649266 
L 119.348663 198.513306 
L 121.735829 193.712135 
L 124.122995 188.413385 
L 128.897326 177.037942 
L 133.671658 165.698123 
L 137.252406 157.801857 
L 139.639572 152.968374 
L 142.026738 148.525017 
L 144.413904 144.487093 
L 146.80107 140.853388 
L 149.188235 137.610782 
L 151.575401 134.737755 
L 153.962567 132.207925 
L 156.349733 129.9917 
L 158.736898 128.059101 
L 161.124064 126.38011 
L 163.51123 124.926255 
L 165.898396 123.670732 
L 169.479144 122.106321 
L 173.059893 120.860267 
L 176.640642 119.870724 
L 180.22139 119.086482 
L 184.995722 118.288736 
L 189.770053 117.704108 
L 195.737968 117.185997 
L 204.093048 116.720239 
L 214.835294 116.375162 
L 231.545455 116.093147 
L 268.546524 115.74576 
L 280.482353 115.667732 
L 373.581818 114.912441 
L 373.581818 114.912441 
" style="fill:none;stroke:#cfcfcf;stroke-dasharray:4.5,1.875,4.5,1.875,1.875,1.875;stroke-dashoffset:0;stroke-width:1.5;"/>
   </g>
   <g id="line2d_9"/>
   <g id="line2d_10"/>
   <g id="line2d_11"/>
   <g id="line2d_12"/>
   <g id="line2d_13"/>
   <g id="line2d_14"/>
   <g id="line2d_15"/>
   <g id="line2d_16"/>
   <g id="patch_3">
    <path d="M 54 252 
L 54 34.56 
" style="fill:none;stroke:#262626;stroke-linecap:square;stroke-linejoin:miter;stroke-width:1.25;"/>
   </g>
   <g id="patch_4">
    <path d="M 54 252 
L 388.8 252 
" style="fill:none;stroke:#262626;stroke-linecap:square;stroke-linejoin:miter;stroke-width:1.25;"/>
   </g>
   <g id="text_17">
    <!-- $\it{in}$ $10^{-3}$ -->
    <defs>
     <path d="M 18.3125 75.984375 
L 27.296875 75.984375 
L 25.09375 64.59375 
L 16.109375 64.59375 
z
M 14.203125 54.6875 
L 23.1875 54.6875 
L 12.5 0 
L 3.515625 0 
z
" id="DejaVuSans-Oblique-105"/>
     <path d="M 55.71875 33.015625 
L 49.3125 0 
L 40.28125 0 
L 46.6875 32.671875 
Q 47.125 34.96875 47.359375 36.71875 
Q 47.609375 38.484375 47.609375 39.5 
Q 47.609375 43.609375 45.015625 45.890625 
Q 42.4375 48.1875 37.796875 48.1875 
Q 30.5625 48.1875 25.34375 43.375 
Q 20.125 38.578125 18.5 30.328125 
L 12.5 0 
L 3.515625 0 
L 14.109375 54.6875 
L 23.09375 54.6875 
L 21.296875 46.09375 
Q 25.046875 50.828125 30.3125 53.40625 
Q 35.59375 56 41.40625 56 
Q 48.640625 56 52.609375 52.09375 
Q 56.59375 48.1875 56.59375 41.109375 
Q 56.59375 39.359375 56.375 37.359375 
Q 56.15625 35.359375 55.71875 33.015625 
z
" id="DejaVuSans-Oblique-110"/>
     <path id="DejaVuSans-32"/>
     <path d="M 10.59375 35.5 
L 73.1875 35.5 
L 73.1875 27.203125 
L 10.59375 27.203125 
z
" id="DejaVuSans-8722"/>
    </defs>
    <g style="fill:#262626;" transform="translate(28.89 18.252)scale(0.12 -0.12)">
     <use transform="translate(0 0.765625)" xlink:href="#DejaVuSans-Oblique-105"/>
     <use transform="translate(27.783203 0.765625)" xlink:href="#DejaVuSans-Oblique-110"/>
     <use transform="translate(91.162109 0.765625)" xlink:href="#DejaVuSans-32"/>
     <use transform="translate(122.949219 0.765625)" xlink:href="#DejaVuSans-49"/>
     <use transform="translate(186.572266 0.765625)" xlink:href="#DejaVuSans-48"/>
     <use transform="translate(251.152344 39.046875)scale(0.7)" xlink:href="#DejaVuSans-8722"/>
     <use transform="translate(309.804688 39.046875)scale(0.7)" xlink:href="#DejaVuSans-51"/>
    </g>
   </g>
   <g id="legend_1">
    <g id="patch_5">
     <path d="M 311.138281 246.5 
L 381.1 246.5 
Q 383.3 246.5 383.3 244.3 
L 383.3 116.2325 
Q 383.3 114.0325 381.1 114.0325 
L 311.138281 114.0325 
Q 308.938281 114.0325 308.938281 116.2325 
L 308.938281 244.3 
Q 308.938281 246.5 311.138281 246.5 
z
" style="fill:#ffffff;opacity:0.8;stroke:#cccccc;stroke-linejoin:miter;"/>
    </g>
    <g id="line2d_17">
     <path d="M 313.338281 122.940781 
L 335.338281 122.940781 
" style="fill:none;stroke:#a1c9f4;stroke-linecap:round;stroke-width:1.5;"/>
    </g>
    <g id="line2d_18"/>
    <g id="text_18">
     <!-- 1-step -->
     <defs>
      <path d="M 44.28125 53.078125 
L 44.28125 44.578125 
Q 40.484375 46.53125 36.375 47.5 
Q 32.28125 48.484375 27.875 48.484375 
Q 21.1875 48.484375 17.84375 46.4375 
Q 14.5 44.390625 14.5 40.28125 
Q 14.5 37.15625 16.890625 35.375 
Q 19.28125 33.59375 26.515625 31.984375 
L 29.59375 31.296875 
Q 39.15625 29.25 43.1875 25.515625 
Q 47.21875 21.78125 47.21875 15.09375 
Q 47.21875 7.46875 41.1875 3.015625 
Q 35.15625 -1.421875 24.609375 -1.421875 
Q 20.21875 -1.421875 15.453125 -0.5625 
Q 10.6875 0.296875 5.421875 2 
L 5.421875 11.28125 
Q 10.40625 8.6875 15.234375 7.390625 
Q 20.0625 6.109375 24.8125 6.109375 
Q 31.15625 6.109375 34.5625 8.28125 
Q 37.984375 10.453125 37.984375 14.40625 
Q 37.984375 18.0625 35.515625 20.015625 
Q 33.0625 21.96875 24.703125 23.78125 
L 21.578125 24.515625 
Q 13.234375 26.265625 9.515625 29.90625 
Q 5.8125 33.546875 5.8125 39.890625 
Q 5.8125 47.609375 11.28125 51.796875 
Q 16.75 56 26.8125 56 
Q 31.78125 56 36.171875 55.265625 
Q 40.578125 54.546875 44.28125 53.078125 
z
" id="DejaVuSans-115"/>
      <path d="M 18.3125 70.21875 
L 18.3125 54.6875 
L 36.8125 54.6875 
L 36.8125 47.703125 
L 18.3125 47.703125 
L 18.3125 18.015625 
Q 18.3125 11.328125 20.140625 9.421875 
Q 21.96875 7.515625 27.59375 7.515625 
L 36.8125 7.515625 
L 36.8125 0 
L 27.59375 0 
Q 17.1875 0 13.234375 3.875 
Q 9.28125 7.765625 9.28125 18.015625 
L 9.28125 47.703125 
L 2.6875 47.703125 
L 2.6875 54.6875 
L 9.28125 54.6875 
L 9.28125 70.21875 
z
" id="DejaVuSans-116"/>
      <path d="M 56.203125 29.59375 
L 56.203125 25.203125 
L 14.890625 25.203125 
Q 15.484375 15.921875 20.484375 11.0625 
Q 25.484375 6.203125 34.421875 6.203125 
Q 39.59375 6.203125 44.453125 7.46875 
Q 49.3125 8.734375 54.109375 11.28125 
L 54.109375 2.78125 
Q 49.265625 0.734375 44.1875 -0.34375 
Q 39.109375 -1.421875 33.890625 -1.421875 
Q 20.796875 -1.421875 13.15625 6.1875 
Q 5.515625 13.8125 5.515625 26.8125 
Q 5.515625 40.234375 12.765625 48.109375 
Q 20.015625 56 32.328125 56 
Q 43.359375 56 49.78125 48.890625 
Q 56.203125 41.796875 56.203125 29.59375 
z
M 47.21875 32.234375 
Q 47.125 39.59375 43.09375 43.984375 
Q 39.0625 48.390625 32.421875 48.390625 
Q 24.90625 48.390625 20.390625 44.140625 
Q 15.875 39.890625 15.1875 32.171875 
z
" id="DejaVuSans-101"/>
      <path d="M 18.109375 8.203125 
L 18.109375 -20.796875 
L 9.078125 -20.796875 
L 9.078125 54.6875 
L 18.109375 54.6875 
L 18.109375 46.390625 
Q 20.953125 51.265625 25.265625 53.625 
Q 29.59375 56 35.59375 56 
Q 45.5625 56 51.78125 48.09375 
Q 58.015625 40.1875 58.015625 27.296875 
Q 58.015625 14.40625 51.78125 6.484375 
Q 45.5625 -1.421875 35.59375 -1.421875 
Q 29.59375 -1.421875 25.265625 0.953125 
Q 20.953125 3.328125 18.109375 8.203125 
z
M 48.6875 27.296875 
Q 48.6875 37.203125 44.609375 42.84375 
Q 40.53125 48.484375 33.40625 48.484375 
Q 26.265625 48.484375 22.1875 42.84375 
Q 18.109375 37.203125 18.109375 27.296875 
Q 18.109375 17.390625 22.1875 11.75 
Q 26.265625 6.109375 33.40625 6.109375 
Q 40.53125 6.109375 44.609375 11.75 
Q 48.6875 17.390625 48.6875 27.296875 
z
" id="DejaVuSans-112"/>
     </defs>
     <g style="fill:#262626;" transform="translate(344.138281 126.790781)scale(0.11 -0.11)">
      <use xlink:href="#DejaVuSans-49"/>
      <use x="63.623047" xlink:href="#DejaVuSans-45"/>
      <use x="99.707031" xlink:href="#DejaVuSans-115"/>
      <use x="151.806641" xlink:href="#DejaVuSans-116"/>
      <use x="191.015625" xlink:href="#DejaVuSans-101"/>
      <use x="252.539062" xlink:href="#DejaVuSans-112"/>
     </g>
    </g>
    <g id="line2d_19">
     <path d="M 313.338281 139.086719 
L 335.338281 139.086719 
" style="fill:none;stroke:#ffb482;stroke-dasharray:6,2.25;stroke-dashoffset:0;stroke-width:1.5;"/>
    </g>
    <g id="line2d_20"/>
    <g id="text_19">
     <!-- 2-step -->
     <g style="fill:#262626;" transform="translate(344.138281 142.936719)scale(0.11 -0.11)">
      <use xlink:href="#DejaVuSans-50"/>
      <use x="63.623047" xlink:href="#DejaVuSans-45"/>
      <use x="99.707031" xlink:href="#DejaVuSans-115"/>
      <use x="151.806641" xlink:href="#DejaVuSans-116"/>
      <use x="191.015625" xlink:href="#DejaVuSans-101"/>
      <use x="252.539062" xlink:href="#DejaVuSans-112"/>
     </g>
    </g>
    <g id="line2d_21">
     <path d="M 313.338281 155.232656 
L 335.338281 155.232656 
" style="fill:none;stroke:#8de5a1;stroke-dasharray:1.5,1.5;stroke-dashoffset:0;stroke-width:1.5;"/>
    </g>
    <g id="line2d_22"/>
    <g id="text_20">
     <!-- 3-step -->
     <g style="fill:#262626;" transform="translate(344.138281 159.082656)scale(0.11 -0.11)">
      <use xlink:href="#DejaVuSans-51"/>
      <use x="63.623047" xlink:href="#DejaVuSans-45"/>
      <use x="99.707031" xlink:href="#DejaVuSans-115"/>
      <use x="151.806641" xlink:href="#DejaVuSans-116"/>
      <use x="191.015625" xlink:href="#DejaVuSans-101"/>
      <use x="252.539062" xlink:href="#DejaVuSans-112"/>
     </g>
    </g>
    <g id="line2d_23">
     <path d="M 313.338281 171.378594 
L 335.338281 171.378594 
" style="fill:none;stroke:#ff9f9b;stroke-dasharray:4.5,1.875,2.25,1.875;stroke-dashoffset:0;stroke-width:1.5;"/>
    </g>
    <g id="line2d_24"/>
    <g id="text_21">
     <!-- 4-step -->
     <g style="fill:#262626;" transform="translate(344.138281 175.228594)scale(0.11 -0.11)">
      <use xlink:href="#DejaVuSans-52"/>
      <use x="63.623047" xlink:href="#DejaVuSans-45"/>
      <use x="99.707031" xlink:href="#DejaVuSans-115"/>
      <use x="151.806641" xlink:href="#DejaVuSans-116"/>
      <use x="191.015625" xlink:href="#DejaVuSans-101"/>
      <use x="252.539062" xlink:href="#DejaVuSans-112"/>
     </g>
    </g>
    <g id="line2d_25">
     <path d="M 313.338281 187.524531 
L 335.338281 187.524531 
" style="fill:none;stroke:#d0bbff;stroke-dasharray:7.5,1.5,1.5,1.5;stroke-dashoffset:0;stroke-width:1.5;"/>
    </g>
    <g id="line2d_26"/>
    <g id="text_22">
     <!-- 5-step -->
     <g style="fill:#262626;" transform="translate(344.138281 191.374531)scale(0.11 -0.11)">
      <use xlink:href="#DejaVuSans-53"/>
      <use x="63.623047" xlink:href="#DejaVuSans-45"/>
      <use x="99.707031" xlink:href="#DejaVuSans-115"/>
      <use x="151.806641" xlink:href="#DejaVuSans-116"/>
      <use x="191.015625" xlink:href="#DejaVuSans-101"/>
      <use x="252.539062" xlink:href="#DejaVuSans-112"/>
     </g>
    </g>
    <g id="line2d_27">
     <path d="M 313.338281 203.670469 
L 335.338281 203.670469 
" style="fill:none;stroke:#debb9b;stroke-dasharray:4.5,1.875,1.875,1.875,1.875,1.875;stroke-dashoffset:0;stroke-width:1.5;"/>
    </g>
    <g id="line2d_28"/>
    <g id="text_23">
     <!-- 6-step -->
     <g style="fill:#262626;" transform="translate(344.138281 207.520469)scale(0.11 -0.11)">
      <use xlink:href="#DejaVuSans-54"/>
      <use x="63.623047" xlink:href="#DejaVuSans-45"/>
      <use x="99.707031" xlink:href="#DejaVuSans-115"/>
      <use x="151.806641" xlink:href="#DejaVuSans-116"/>
      <use x="191.015625" xlink:href="#DejaVuSans-101"/>
      <use x="252.539062" xlink:href="#DejaVuSans-112"/>
     </g>
    </g>
    <g id="line2d_29">
     <path d="M 313.338281 219.816406 
L 335.338281 219.816406 
" style="fill:none;stroke:#fab0e4;stroke-dasharray:6,1.5,6,1.5,1.5,1.5;stroke-dashoffset:0;stroke-width:1.5;"/>
    </g>
    <g id="line2d_30"/>
    <g id="text_24">
     <!-- 7-step -->
     <defs>
      <path d="M 8.203125 72.90625 
L 55.078125 72.90625 
L 55.078125 68.703125 
L 28.609375 0 
L 18.3125 0 
L 43.21875 64.59375 
L 8.203125 64.59375 
z
" id="DejaVuSans-55"/>
     </defs>
     <g style="fill:#262626;" transform="translate(344.138281 223.666406)scale(0.11 -0.11)">
      <use xlink:href="#DejaVuSans-55"/>
      <use x="63.623047" xlink:href="#DejaVuSans-45"/>
      <use x="99.707031" xlink:href="#DejaVuSans-115"/>
      <use x="151.806641" xlink:href="#DejaVuSans-116"/>
      <use x="191.015625" xlink:href="#DejaVuSans-101"/>
      <use x="252.539062" xlink:href="#DejaVuSans-112"/>
     </g>
    </g>
    <g id="line2d_31">
     <path d="M 313.338281 235.962344 
L 335.338281 235.962344 
" style="fill:none;stroke:#cfcfcf;stroke-dasharray:4.5,1.875,4.5,1.875,1.875,1.875;stroke-dashoffset:0;stroke-width:1.5;"/>
    </g>
    <g id="line2d_32"/>
    <g id="text_25">
     <!-- 8-step -->
     <g style="fill:#262626;" transform="translate(344.138281 239.812344)scale(0.11 -0.11)">
      <use xlink:href="#DejaVuSans-56"/>
      <use x="63.623047" xlink:href="#DejaVuSans-45"/>
      <use x="99.707031" xlink:href="#DejaVuSans-115"/>
      <use x="151.806641" xlink:href="#DejaVuSans-116"/>
      <use x="191.015625" xlink:href="#DejaVuSans-101"/>
      <use x="252.539062" xlink:href="#DejaVuSans-112"/>
     </g>
    </g>
   </g>
  </g>
 </g>
 <defs>
  <clipPath id="p720f43cec9">
   <rect height="217.44" width="334.8" x="54" y="34.56"/>
  </clipPath>
 </defs>
</svg>
