<?xml version="1.0" encoding="utf-8" standalone="no"?>
<!DOCTYPE svg PUBLIC "-//W3C//DTD SVG 1.1//EN"
  "http://www.w3.org/Graphics/SVG/1.1/DTD/svg11.dtd">
<!-- Created with matplotlib (https://matplotlib.org/) -->
<svg height="288pt" version="1.1" viewBox="0 0 432 288" width="432pt" xmlns="http://www.w3.org/2000/svg" xmlns:xlink="http://www.w3.org/1999/xlink">
 <defs>
  <style type="text/css">
*{stroke-linecap:butt;stroke-linejoin:round;}
  </style>
 </defs>
 <g id="figure_1">
  <g id="patch_1">
   <path d="M 0 288 
L 432 288 
L 432 0 
L 0 0 
z
" style="fill:#ffffff;"/>
  </g>
  <g id="axes_1">
   <g id="patch_2">
    <path d="M 54 252 
L 388.8 252 
L 388.8 34.56 
L 54 34.56 
z
" style="fill:#ffffff;"/>
   </g>
   <g id="matplotlib.axis_1">
    <g id="xtick_1">
     <g id="text_1">
      <!-- 0.00 -->
      <defs>
       <path d="M 31.78125 66.40625 
Q 24.171875 66.40625 20.328125 58.90625 
Q 16.5 51.421875 16.5 36.375 
Q 16.5 21.390625 20.328125 13.890625 
Q 24.171875 6.390625 31.78125 6.390625 
Q 39.453125 6.390625 43.28125 13.890625 
Q 47.125 21.390625 47.125 36.375 
Q 47.125 51.421875 43.28125 58.90625 
Q 39.453125 66.40625 31.78125 66.40625 
z
M 31.78125 74.21875 
Q 44.046875 74.21875 50.515625 64.515625 
Q 56.984375 54.828125 56.984375 36.375 
Q 56.984375 17.96875 50.515625 8.265625 
Q 44.046875 -1.421875 31.78125 -1.421875 
Q 19.53125 -1.421875 13.0625 8.265625 
Q 6.59375 17.96875 6.59375 36.375 
Q 6.59375 54.828125 13.0625 64.515625 
Q 19.53125 74.21875 31.78125 74.21875 
z
" id="DejaVuSans-48"/>
       <path d="M 10.6875 12.40625 
L 21 12.40625 
L 21 0 
L 10.6875 0 
z
" id="DejaVuSans-46"/>
      </defs>
      <g style="fill:#262626;" transform="translate(56.81983 269.858281)scale(0.11 -0.11)">
       <use xlink:href="#DejaVuSans-48"/>
       <use x="63.623047" xlink:href="#DejaVuSans-46"/>
       <use x="95.410156" xlink:href="#DejaVuSans-48"/>
       <use x="159.033203" xlink:href="#DejaVuSans-48"/>
      </g>
     </g>
    </g>
    <g id="xtick_2">
     <g id="text_2">
      <!-- 0.25 -->
      <defs>
       <path d="M 19.1875 8.296875 
L 53.609375 8.296875 
L 53.609375 0 
L 7.328125 0 
L 7.328125 8.296875 
Q 12.9375 14.109375 22.625 23.890625 
Q 32.328125 33.6875 34.8125 36.53125 
Q 39.546875 41.84375 41.421875 45.53125 
Q 43.3125 49.21875 43.3125 52.78125 
Q 43.3125 58.59375 39.234375 62.25 
Q 35.15625 65.921875 28.609375 65.921875 
Q 23.96875 65.921875 18.8125 64.3125 
Q 13.671875 62.703125 7.8125 59.421875 
L 7.8125 69.390625 
Q 13.765625 71.78125 18.9375 73 
Q 24.125 74.21875 28.421875 74.21875 
Q 39.75 74.21875 46.484375 68.546875 
Q 53.21875 62.890625 53.21875 53.421875 
Q 53.21875 48.921875 51.53125 44.890625 
Q 49.859375 40.875 45.40625 35.40625 
Q 44.1875 33.984375 37.640625 27.21875 
Q 31.109375 20.453125 19.1875 8.296875 
z
" id="DejaVuSans-50"/>
       <path d="M 10.796875 72.90625 
L 49.515625 72.90625 
L 49.515625 64.59375 
L 19.828125 64.59375 
L 19.828125 46.734375 
Q 21.96875 47.46875 24.109375 47.828125 
Q 26.265625 48.1875 28.421875 48.1875 
Q 40.625 48.1875 47.75 41.5 
Q 54.890625 34.8125 54.890625 23.390625 
Q 54.890625 11.625 47.5625 5.09375 
Q 40.234375 -1.421875 26.90625 -1.421875 
Q 22.3125 -1.421875 17.546875 -0.640625 
Q 12.796875 0.140625 7.71875 1.703125 
L 7.71875 11.625 
Q 12.109375 9.234375 16.796875 8.0625 
Q 21.484375 6.890625 26.703125 6.890625 
Q 35.15625 6.890625 40.078125 11.328125 
Q 45.015625 15.765625 45.015625 23.390625 
Q 45.015625 31 40.078125 35.4375 
Q 35.15625 39.890625 26.703125 39.890625 
Q 22.75 39.890625 18.8125 39.015625 
Q 14.890625 38.140625 10.796875 36.28125 
z
" id="DejaVuSans-53"/>
      </defs>
      <g style="fill:#262626;" transform="translate(94.884317 269.858281)scale(0.11 -0.11)">
       <use xlink:href="#DejaVuSans-48"/>
       <use x="63.623047" xlink:href="#DejaVuSans-46"/>
       <use x="95.410156" xlink:href="#DejaVuSans-50"/>
       <use x="159.033203" xlink:href="#DejaVuSans-53"/>
      </g>
     </g>
    </g>
    <g id="xtick_3">
     <g id="text_3">
      <!-- 0.50 -->
      <g style="fill:#262626;" transform="translate(132.948804 269.858281)scale(0.11 -0.11)">
       <use xlink:href="#DejaVuSans-48"/>
       <use x="63.623047" xlink:href="#DejaVuSans-46"/>
       <use x="95.410156" xlink:href="#DejaVuSans-53"/>
       <use x="159.033203" xlink:href="#DejaVuSans-48"/>
      </g>
     </g>
    </g>
    <g id="xtick_4">
     <g id="text_4">
      <!-- 0.75 -->
      <defs>
       <path d="M 8.203125 72.90625 
L 55.078125 72.90625 
L 55.078125 68.703125 
L 28.609375 0 
L 18.3125 0 
L 43.21875 64.59375 
L 8.203125 64.59375 
z
" id="DejaVuSans-55"/>
      </defs>
      <g style="fill:#262626;" transform="translate(171.01329 269.858281)scale(0.11 -0.11)">
       <use xlink:href="#DejaVuSans-48"/>
       <use x="63.623047" xlink:href="#DejaVuSans-46"/>
       <use x="95.410156" xlink:href="#DejaVuSans-55"/>
       <use x="159.033203" xlink:href="#DejaVuSans-53"/>
      </g>
     </g>
    </g>
    <g id="xtick_5">
     <g id="text_5">
      <!-- 1.00 -->
      <defs>
       <path d="M 12.40625 8.296875 
L 28.515625 8.296875 
L 28.515625 63.921875 
L 10.984375 60.40625 
L 10.984375 69.390625 
L 28.421875 72.90625 
L 38.28125 72.90625 
L 38.28125 8.296875 
L 54.390625 8.296875 
L 54.390625 0 
L 12.40625 0 
z
" id="DejaVuSans-49"/>
      </defs>
      <g style="fill:#262626;" transform="translate(209.077777 269.858281)scale(0.11 -0.11)">
       <use xlink:href="#DejaVuSans-49"/>
       <use x="63.623047" xlink:href="#DejaVuSans-46"/>
       <use x="95.410156" xlink:href="#DejaVuSans-48"/>
       <use x="159.033203" xlink:href="#DejaVuSans-48"/>
      </g>
     </g>
    </g>
    <g id="xtick_6">
     <g id="text_6">
      <!-- 1.25 -->
      <g style="fill:#262626;" transform="translate(247.142264 269.858281)scale(0.11 -0.11)">
       <use xlink:href="#DejaVuSans-49"/>
       <use x="63.623047" xlink:href="#DejaVuSans-46"/>
       <use x="95.410156" xlink:href="#DejaVuSans-50"/>
       <use x="159.033203" xlink:href="#DejaVuSans-53"/>
      </g>
     </g>
    </g>
    <g id="xtick_7">
     <g id="text_7">
      <!-- 1.50 -->
      <g style="fill:#262626;" transform="translate(285.206751 269.858281)scale(0.11 -0.11)">
       <use xlink:href="#DejaVuSans-49"/>
       <use x="63.623047" xlink:href="#DejaVuSans-46"/>
       <use x="95.410156" xlink:href="#DejaVuSans-53"/>
       <use x="159.033203" xlink:href="#DejaVuSans-48"/>
      </g>
     </g>
    </g>
    <g id="xtick_8">
     <g id="text_8">
      <!-- 1.75 -->
      <g style="fill:#262626;" transform="translate(323.271238 269.858281)scale(0.11 -0.11)">
       <use xlink:href="#DejaVuSans-49"/>
       <use x="63.623047" xlink:href="#DejaVuSans-46"/>
       <use x="95.410156" xlink:href="#DejaVuSans-55"/>
       <use x="159.033203" xlink:href="#DejaVuSans-53"/>
      </g>
     </g>
    </g>
    <g id="xtick_9">
     <g id="text_9">
      <!-- 2.00 -->
      <g style="fill:#262626;" transform="translate(361.335724 269.858281)scale(0.11 -0.11)">
       <use xlink:href="#DejaVuSans-50"/>
       <use x="63.623047" xlink:href="#DejaVuSans-46"/>
       <use x="95.410156" xlink:href="#DejaVuSans-48"/>
       <use x="159.033203" xlink:href="#DejaVuSans-48"/>
      </g>
     </g>
    </g>
    <g id="text_10">
     <!-- $g_{0}$ -->
     <defs>
      <path d="M 59.625 54.6875 
L 50.296875 6.78125 
Q 47.609375 -7.125 40.015625 -13.953125 
Q 32.421875 -20.796875 19.578125 -20.796875 
Q 14.84375 -20.796875 10.78125 -20.09375 
Q 6.734375 -19.390625 3.21875 -17.921875 
L 4.890625 -9.1875 
Q 8.203125 -11.328125 11.90625 -12.34375 
Q 15.625 -13.375 19.828125 -13.375 
Q 28.375 -13.375 33.859375 -8.703125 
Q 39.359375 -4.046875 41.109375 4.6875 
L 41.890625 8.796875 
Q 38.140625 4.5 33.15625 2.25 
Q 28.171875 0 22.40625 0 
Q 14.109375 0 9.34375 5.484375 
Q 4.59375 10.984375 4.59375 20.609375 
Q 4.59375 28.171875 7.46875 35.421875 
Q 10.359375 42.671875 15.578125 48.296875 
Q 19.046875 52 23.65625 54 
Q 28.265625 56 33.296875 56 
Q 38.8125 56 42.90625 53.4375 
Q 47.015625 50.875 49.03125 46.1875 
L 50.59375 54.6875 
z
M 46.09375 34.625 
Q 46.09375 41.265625 42.96875 44.875 
Q 39.84375 48.484375 34.078125 48.484375 
Q 30.515625 48.484375 27.296875 47.0625 
Q 24.078125 45.65625 21.78125 43.109375 
Q 18.0625 38.921875 15.984375 33.234375 
Q 13.921875 27.546875 13.921875 21.484375 
Q 13.921875 14.75 17.0625 11.125 
Q 20.21875 7.515625 26.125 7.515625 
Q 34.671875 7.515625 40.375 15.25 
Q 46.09375 23 46.09375 34.625 
z
" id="DejaVuSans-Oblique-103"/>
     </defs>
     <g style="fill:#262626;" transform="translate(214.74 285.239688)scale(0.12 -0.12)">
      <use xlink:href="#DejaVuSans-Oblique-103"/>
      <use transform="translate(63.476562 -16.40625)scale(0.7)" xlink:href="#DejaVuSans-48"/>
     </g>
    </g>
   </g>
   <g id="matplotlib.axis_2">
    <g id="ytick_1">
     <g id="text_11">
      <!-- -10 -->
      <defs>
       <path d="M 4.890625 31.390625 
L 31.203125 31.390625 
L 31.203125 23.390625 
L 4.890625 23.390625 
z
" id="DejaVuSans-45"/>
      </defs>
      <g style="fill:#262626;" transform="translate(26.533906 251.3148)scale(0.11 -0.11)">
       <use xlink:href="#DejaVuSans-45"/>
       <use x="36.083984" xlink:href="#DejaVuSans-49"/>
       <use x="99.707031" xlink:href="#DejaVuSans-48"/>
      </g>
     </g>
    </g>
    <g id="ytick_2">
     <g id="text_12">
      <!-- -8 -->
      <defs>
       <path d="M 31.78125 34.625 
Q 24.75 34.625 20.71875 30.859375 
Q 16.703125 27.09375 16.703125 20.515625 
Q 16.703125 13.921875 20.71875 10.15625 
Q 24.75 6.390625 31.78125 6.390625 
Q 38.8125 6.390625 42.859375 10.171875 
Q 46.921875 13.96875 46.921875 20.515625 
Q 46.921875 27.09375 42.890625 30.859375 
Q 38.875 34.625 31.78125 34.625 
z
M 21.921875 38.8125 
Q 15.578125 40.375 12.03125 44.71875 
Q 8.5 49.078125 8.5 55.328125 
Q 8.5 64.0625 14.71875 69.140625 
Q 20.953125 74.21875 31.78125 74.21875 
Q 42.671875 74.21875 48.875 69.140625 
Q 55.078125 64.0625 55.078125 55.328125 
Q 55.078125 49.078125 51.53125 44.71875 
Q 48 40.375 41.703125 38.8125 
Q 48.828125 37.15625 52.796875 32.3125 
Q 56.78125 27.484375 56.78125 20.515625 
Q 56.78125 9.90625 50.3125 4.234375 
Q 43.84375 -1.421875 31.78125 -1.421875 
Q 19.734375 -1.421875 13.25 4.234375 
Q 6.78125 9.90625 6.78125 20.515625 
Q 6.78125 27.484375 10.78125 32.3125 
Q 14.796875 37.15625 21.921875 38.8125 
z
M 18.3125 54.390625 
Q 18.3125 48.734375 21.84375 45.5625 
Q 25.390625 42.390625 31.78125 42.390625 
Q 38.140625 42.390625 41.71875 45.5625 
Q 45.3125 48.734375 45.3125 54.390625 
Q 45.3125 60.0625 41.71875 63.234375 
Q 38.140625 66.40625 31.78125 66.40625 
Q 25.390625 66.40625 21.84375 63.234375 
Q 18.3125 60.0625 18.3125 54.390625 
z
" id="DejaVuSans-56"/>
      </defs>
      <g style="fill:#262626;" transform="translate(33.532656 210.573395)scale(0.11 -0.11)">
       <use xlink:href="#DejaVuSans-45"/>
       <use x="36.083984" xlink:href="#DejaVuSans-56"/>
      </g>
     </g>
    </g>
    <g id="ytick_3">
     <g id="text_13">
      <!-- -6 -->
      <defs>
       <path d="M 33.015625 40.375 
Q 26.375 40.375 22.484375 35.828125 
Q 18.609375 31.296875 18.609375 23.390625 
Q 18.609375 15.53125 22.484375 10.953125 
Q 26.375 6.390625 33.015625 6.390625 
Q 39.65625 6.390625 43.53125 10.953125 
Q 47.40625 15.53125 47.40625 23.390625 
Q 47.40625 31.296875 43.53125 35.828125 
Q 39.65625 40.375 33.015625 40.375 
z
M 52.59375 71.296875 
L 52.59375 62.3125 
Q 48.875 64.0625 45.09375 64.984375 
Q 41.3125 65.921875 37.59375 65.921875 
Q 27.828125 65.921875 22.671875 59.328125 
Q 17.53125 52.734375 16.796875 39.40625 
Q 19.671875 43.65625 24.015625 45.921875 
Q 28.375 48.1875 33.59375 48.1875 
Q 44.578125 48.1875 50.953125 41.515625 
Q 57.328125 34.859375 57.328125 23.390625 
Q 57.328125 12.15625 50.6875 5.359375 
Q 44.046875 -1.421875 33.015625 -1.421875 
Q 20.359375 -1.421875 13.671875 8.265625 
Q 6.984375 17.96875 6.984375 36.375 
Q 6.984375 53.65625 15.1875 63.9375 
Q 23.390625 74.21875 37.203125 74.21875 
Q 40.921875 74.21875 44.703125 73.484375 
Q 48.484375 72.75 52.59375 71.296875 
z
" id="DejaVuSans-54"/>
      </defs>
      <g style="fill:#262626;" transform="translate(33.532656 169.83199)scale(0.11 -0.11)">
       <use xlink:href="#DejaVuSans-45"/>
       <use x="36.083984" xlink:href="#DejaVuSans-54"/>
      </g>
     </g>
    </g>
    <g id="ytick_4">
     <g id="text_14">
      <!-- -4 -->
      <defs>
       <path d="M 37.796875 64.3125 
L 12.890625 25.390625 
L 37.796875 25.390625 
z
M 35.203125 72.90625 
L 47.609375 72.90625 
L 47.609375 25.390625 
L 58.015625 25.390625 
L 58.015625 17.1875 
L 47.609375 17.1875 
L 47.609375 0 
L 37.796875 0 
L 37.796875 17.1875 
L 4.890625 17.1875 
L 4.890625 26.703125 
z
" id="DejaVuSans-52"/>
      </defs>
      <g style="fill:#262626;" transform="translate(33.532656 129.090585)scale(0.11 -0.11)">
       <use xlink:href="#DejaVuSans-45"/>
       <use x="36.083984" xlink:href="#DejaVuSans-52"/>
      </g>
     </g>
    </g>
    <g id="ytick_5">
     <g id="text_15">
      <!-- -2 -->
      <g style="fill:#262626;" transform="translate(33.532656 88.34918)scale(0.11 -0.11)">
       <use xlink:href="#DejaVuSans-45"/>
       <use x="36.083984" xlink:href="#DejaVuSans-50"/>
      </g>
     </g>
    </g>
    <g id="ytick_6">
     <g id="text_16">
      <!-- 0 -->
      <g style="fill:#262626;" transform="translate(37.50125 47.607775)scale(0.11 -0.11)">
       <use xlink:href="#DejaVuSans-48"/>
      </g>
     </g>
    </g>
    <g id="text_17">
     <!-- $\it{MSFE}$ -->
     <defs>
      <path d="M 16.890625 72.90625 
L 31.6875 72.90625 
L 40.1875 23.78125 
L 68.40625 72.90625 
L 83.59375 72.90625 
L 69.390625 0 
L 59.8125 0 
L 72.21875 63.921875 
L 43.609375 14.015625 
L 33.984375 14.015625 
L 24.703125 64.109375 
L 12.3125 0 
L 2.6875 0 
z
" id="DejaVuSans-Oblique-77"/>
      <path d="M 60.296875 70.515625 
L 58.40625 60.890625 
Q 53.46875 63.53125 48.609375 64.875 
Q 43.75 66.21875 39.203125 66.21875 
Q 30.375 66.21875 25.140625 62.359375 
Q 19.921875 58.5 19.921875 52.09375 
Q 19.921875 48.578125 21.84375 46.703125 
Q 23.78125 44.828125 31.78125 42.671875 
L 37.703125 41.21875 
Q 47.703125 38.625 51.609375 34.640625 
Q 55.515625 30.671875 55.515625 23.484375 
Q 55.515625 12.453125 46.84375 5.515625 
Q 38.1875 -1.421875 24.03125 -1.421875 
Q 18.21875 -1.421875 12.359375 -0.265625 
Q 6.5 0.875 0.59375 3.21875 
L 2.59375 13.375 
Q 8.015625 10.015625 13.453125 8.296875 
Q 18.890625 6.59375 24.3125 6.59375 
Q 33.546875 6.59375 39.109375 10.6875 
Q 44.671875 14.796875 44.671875 21.390625 
Q 44.671875 25.78125 42.453125 28.046875 
Q 40.234375 30.328125 32.90625 32.171875 
L 27 33.6875 
Q 16.890625 36.328125 13.203125 39.765625 
Q 9.515625 43.21875 9.515625 49.421875 
Q 9.515625 60.296875 17.890625 67.25 
Q 26.265625 74.21875 39.703125 74.21875 
Q 44.921875 74.21875 50.046875 73.28125 
Q 55.171875 72.359375 60.296875 70.515625 
z
" id="DejaVuSans-Oblique-83"/>
      <path d="M 16.890625 72.90625 
L 58.6875 72.90625 
L 57.078125 64.59375 
L 25.09375 64.59375 
L 20.90625 43.109375 
L 49.8125 43.109375 
L 48.1875 34.8125 
L 19.28125 34.8125 
L 12.5 0 
L 2.6875 0 
z
" id="DejaVuSans-Oblique-70"/>
      <path d="M 16.890625 72.90625 
L 62.984375 72.90625 
L 61.375 64.59375 
L 25.09375 64.59375 
L 20.90625 43.015625 
L 55.71875 43.015625 
L 54.109375 34.71875 
L 19.28125 34.71875 
L 14.203125 8.296875 
L 51.3125 8.296875 
L 49.703125 0 
L 2.6875 0 
z
" id="DejaVuSans-Oblique-69"/>
     </defs>
     <g style="fill:#262626;" transform="translate(20.038281 159.54)rotate(-90)scale(0.12 -0.12)">
      <use transform="translate(0 0.78125)" xlink:href="#DejaVuSans-Oblique-77"/>
      <use transform="translate(86.279297 0.78125)" xlink:href="#DejaVuSans-Oblique-83"/>
      <use transform="translate(149.755859 0.78125)" xlink:href="#DejaVuSans-Oblique-70"/>
      <use transform="translate(207.275391 0.78125)" xlink:href="#DejaVuSans-Oblique-69"/>
     </g>
    </g>
   </g>
   <g id="line2d_1">
    <path clip-path="url(#p76dfcce2d7)" d="M 69.218182 45.869693 
L 74.049351 45.826735 
L 78.880519 45.785461 
L 83.711688 45.743345 
L 88.542857 45.70544 
L 93.374026 45.665851 
L 98.205195 45.627104 
L 103.036364 45.591726 
L 107.867532 45.558033 
L 112.698701 45.522655 
L 117.52987 45.488962 
L 122.361039 45.453585 
L 127.192208 45.422419 
L 132.023377 45.392095 
L 136.854545 45.360086 
L 141.685714 45.329763 
L 146.516883 45.301124 
L 151.348052 45.273327 
L 156.179221 45.24553 
L 161.01039 45.219418 
L 165.841558 45.194991 
L 170.672727 45.163825 
L 175.503896 45.137713 
L 180.335065 45.116654 
L 185.166234 45.090542 
L 189.997403 45.066957 
L 194.828571 45.04253 
L 199.65974 45.020629 
L 204.490909 44.996202 
L 209.322078 44.975986 
L 214.153247 44.954928 
L 218.984416 44.93387 
L 223.815584 44.916181 
L 228.646753 44.890069 
L 233.477922 44.874065 
L 238.309091 44.852164 
L 243.14026 44.837002 
L 247.971429 44.817629 
L 252.802597 44.801625 
L 257.633766 44.77804 
L 262.464935 44.765405 
L 267.296104 44.749401 
L 272.127273 44.730027 
L 276.958442 44.712338 
L 281.78961 44.698019 
L 286.620779 44.681172 
L 291.451948 44.671907 
L 296.283117 44.650848 
L 301.114286 44.635687 
L 305.945455 44.626421 
L 310.776623 44.609574 
L 315.607792 44.592728 
L 320.438961 44.58262 
L 325.27013 44.569143 
L 330.101299 44.553139 
L 334.932468 44.541346 
L 339.763636 44.527869 
L 344.594805 44.516919 
L 349.425974 44.503441 
L 354.257143 44.490807 
L 359.088312 44.479014 
L 363.919481 44.467221 
L 368.750649 44.456271 
L 373.581818 44.443636 
" style="fill:none;stroke:#a1c9f4;stroke-linecap:round;stroke-width:1.5;"/>
   </g>
   <g id="line2d_2">
    <path clip-path="url(#p76dfcce2d7)" d="M 69.218182 54.030142 
L 74.049351 53.82293 
L 78.880519 53.666258 
L 83.711688 53.496108 
L 88.542857 53.317535 
L 93.374026 53.157493 
L 98.205195 52.992397 
L 103.036364 52.835725 
L 107.867532 52.700953 
L 112.698701 52.524064 
L 117.52987 52.397716 
L 122.361039 52.249466 
L 127.192208 52.126487 
L 132.023377 51.973184 
L 136.854545 51.868735 
L 141.685714 51.730594 
L 146.516883 51.575606 
L 151.348052 51.462734 
L 156.179221 51.383556 
L 161.01039 51.245414 
L 165.841558 51.125804 
L 170.672727 51.023041 
L 175.503896 50.920277 
L 180.335065 50.815828 
L 185.166234 50.694534 
L 189.997403 50.603562 
L 194.828571 50.49406 
L 199.65974 50.403089 
L 204.490909 50.296956 
L 209.322078 50.219462 
L 214.153247 50.111644 
L 218.984416 50.032466 
L 223.815584 49.941495 
L 228.646753 49.875793 
L 233.477922 49.801669 
L 238.309091 49.690482 
L 243.14026 49.611303 
L 247.971429 49.533809 
L 252.802597 49.458 
L 257.633766 49.378821 
L 262.464935 49.294589 
L 267.296104 49.26595 
L 272.127273 49.159817 
L 276.958442 49.092431 
L 281.78961 49.018306 
L 286.620779 48.967766 
L 291.451948 48.891957 
L 296.283117 48.802671 
L 301.114286 48.7555 
L 305.945455 48.725177 
L 310.776623 48.634206 
L 315.607792 48.583666 
L 320.438961 48.526388 
L 325.27013 48.455633 
L 330.101299 48.394985 
L 334.932468 48.3495 
L 339.763636 48.283798 
L 344.594805 48.250105 
L 349.425974 48.177665 
L 354.257143 48.12881 
L 359.088312 48.085009 
L 363.919481 48.014254 
L 368.750649 47.978876 
L 373.581818 47.928337 
" style="fill:none;stroke:#ffb482;stroke-dasharray:6,2.25;stroke-dashoffset:0;stroke-width:1.5;"/>
   </g>
   <g id="line2d_3">
    <path clip-path="url(#p76dfcce2d7)" d="M 69.218182 91.116048 
L 74.049351 90.243399 
L 78.880519 89.478567 
L 83.711688 88.701943 
L 88.542857 87.851194 
L 93.374026 87.175649 
L 98.205195 86.429349 
L 103.036364 85.699895 
L 107.867532 85.095105 
L 112.698701 84.34712 
L 117.52987 83.744015 
L 122.361039 83.038147 
L 127.192208 82.458627 
L 132.023377 81.833621 
L 136.854545 81.297902 
L 141.685714 80.72849 
L 146.516883 80.05463 
L 151.348052 79.549235 
L 156.179221 79.099433 
L 161.01039 78.501382 
L 165.841558 77.945447 
L 170.672727 77.512492 
L 175.503896 77.017204 
L 180.335065 76.570772 
L 185.166234 76.043476 
L 189.997403 75.61389 
L 194.828571 75.108495 
L 199.65974 74.655324 
L 204.490909 74.23753 
L 209.322078 73.882069 
L 214.153247 73.37162 
L 218.984416 73.011104 
L 223.815584 72.606788 
L 228.646753 72.283335 
L 233.477922 71.959882 
L 238.309091 71.456172 
L 243.14026 71.183258 
L 247.971429 70.78568 
L 252.802597 70.377995 
L 257.633766 70.120243 
L 262.464935 69.742882 
L 267.296104 69.500292 
L 272.127273 69.079129 
L 276.958442 68.76073 
L 281.78961 68.44907 
L 286.620779 68.15931 
L 291.451948 67.893135 
L 296.283117 67.498927 
L 301.114286 67.276553 
L 305.945455 67.07271 
L 310.776623 66.750942 
L 315.607792 66.476343 
L 320.438961 66.191637 
L 325.27013 65.942309 
L 330.101299 65.666026 
L 334.932468 65.425121 
L 339.763636 65.157262 
L 344.594805 64.980373 
L 349.425974 64.70746 
L 354.257143 64.434547 
L 359.088312 64.22565 
L 363.919481 63.930836 
L 368.750649 63.764055 
L 373.581818 63.556843 
" style="fill:none;stroke:#8de5a1;stroke-dasharray:1.5,1.5;stroke-dashoffset:0;stroke-width:1.5;"/>
   </g>
   <g id="line2d_4">
    <path clip-path="url(#p76dfcce2d7)" d="M 69.218182 152.297515 
L 74.049351 150.39049 
L 78.880519 148.624976 
L 83.711688 146.839246 
L 88.542857 144.901898 
L 93.374026 143.301479 
L 98.205195 141.623567 
L 103.036364 139.959132 
L 107.867532 138.550764 
L 112.698701 136.866113 
L 117.52987 135.531869 
L 122.361039 133.897758 
L 127.192208 132.499498 
L 132.023377 131.037221 
L 136.854545 129.841118 
L 141.685714 128.543937 
L 146.516883 126.970473 
L 151.348052 125.888927 
L 156.179221 124.800643 
L 161.01039 123.46303 
L 165.841558 122.175957 
L 170.672727 121.141581 
L 175.503896 120.053297 
L 180.335065 118.97512 
L 185.166234 117.805972 
L 189.997403 116.785074 
L 194.828571 115.629403 
L 199.65974 114.615243 
L 204.490909 113.678578 
L 209.322078 112.782343 
L 214.153247 111.697428 
L 218.984416 110.834887 
L 223.815584 109.925175 
L 228.646753 109.214253 
L 233.477922 108.45616 
L 238.309091 107.351029 
L 243.14026 106.599674 
L 247.971429 105.770826 
L 252.802597 104.874592 
L 257.633766 104.227686 
L 262.464935 103.355037 
L 267.296104 102.698023 
L 272.127273 101.838851 
L 276.958442 101.104343 
L 281.78961 100.433852 
L 286.620779 99.66902 
L 291.451948 99.153517 
L 296.283117 98.277499 
L 301.114286 97.718195 
L 305.945455 97.20943 
L 310.776623 96.471553 
L 315.607792 95.885295 
L 320.438961 95.238389 
L 325.27013 94.645391 
L 330.101299 94.055764 
L 334.932468 93.489721 
L 339.763636 92.937155 
L 344.594805 92.472192 
L 349.425974 91.943211 
L 354.257143 91.232289 
L 359.088312 90.747109 
L 363.919481 90.130527 
L 368.750649 89.68241 
L 373.581818 89.210708 
" style="fill:none;stroke:#ff9f9b;stroke-dasharray:4.5,1.875,2.25,1.875;stroke-dashoffset:0;stroke-width:1.5;"/>
   </g>
   <g id="line2d_5">
    <path clip-path="url(#p76dfcce2d7)" d="M 69.218182 188.109824 
L 74.049351 185.727728 
L 78.880519 183.359109 
L 83.711688 181.03766 
L 88.542857 178.645456 
L 93.374026 176.455409 
L 98.205195 174.221562 
L 103.036364 172.119118 
L 107.867532 170.201985 
L 112.698701 168.022047 
L 117.52987 166.22284 
L 122.361039 164.197889 
L 127.192208 162.253802 
L 132.023377 160.346777 
L 136.854545 158.665496 
L 141.685714 157.028015 
L 146.516883 155.030019 
L 151.348052 153.662082 
L 156.179221 152.075141 
L 161.01039 150.383752 
L 165.841558 148.709209 
L 170.672727 147.324426 
L 175.503896 145.835194 
L 180.335065 144.416718 
L 185.166234 142.876947 
L 189.997403 141.552812 
L 194.828571 140.11075 
L 199.65974 138.773138 
L 204.490909 137.502911 
L 209.322078 136.182145 
L 214.153247 134.90181 
L 218.984416 133.685492 
L 223.815584 132.48939 
L 228.646753 131.542616 
L 233.477922 130.46107 
L 238.309091 129.136934 
L 243.14026 128.041911 
L 247.971429 127.071552 
L 252.802597 125.932728 
L 257.633766 124.945523 
L 262.464935 123.826915 
L 267.296104 122.826232 
L 272.127273 121.825549 
L 276.958442 120.85856 
L 281.78961 120.012865 
L 286.620779 118.853825 
L 291.451948 118.294521 
L 296.283117 117.18939 
L 301.114286 116.407712 
L 305.945455 115.551909 
L 310.776623 114.689368 
L 315.607792 113.884105 
L 320.438961 113.018194 
L 325.27013 112.21967 
L 330.101299 111.508747 
L 334.932468 110.743916 
L 339.763636 110.049839 
L 344.594805 109.305224 
L 349.425974 108.688642 
L 354.257143 107.677851 
L 359.088312 107.108439 
L 363.919481 106.303176 
L 368.750649 105.612469 
L 373.581818 104.989148 
" style="fill:none;stroke:#d0bbff;stroke-dasharray:7.5,1.5,1.5,1.5;stroke-dashoffset:0;stroke-width:1.5;"/>
   </g>
   <g id="line2d_6">
    <path clip-path="url(#p76dfcce2d7)" d="M 69.218182 219.397161 
L 74.049351 216.688243 
L 78.880519 213.588485 
L 83.711688 210.967168 
L 88.542857 208.20771 
L 93.374026 205.633563 
L 98.205195 202.917906 
L 103.036364 200.512225 
L 107.867532 198.002095 
L 112.698701 195.589675 
L 117.52987 193.20084 
L 122.361039 191.010793 
L 127.192208 188.460232 
L 132.023377 186.48919 
L 136.854545 184.201434 
L 141.685714 182.280932 
L 146.516883 180.087517 
L 151.348052 178.466883 
L 156.179221 176.236405 
L 161.01039 174.410243 
L 165.841558 172.39877 
L 170.672727 170.734335 
L 175.503896 168.904804 
L 180.335065 167.112335 
L 185.166234 165.397361 
L 189.997403 163.817158 
L 194.828571 162.11903 
L 199.65974 160.437748 
L 204.490909 158.908085 
L 209.322078 157.240281 
L 214.153247 155.902668 
L 218.984416 154.234864 
L 223.815584 152.749002 
L 228.646753 151.657348 
L 233.477922 150.188332 
L 238.309091 148.810288 
L 243.14026 147.49626 
L 247.971429 146.273204 
L 252.802597 145.026562 
L 257.633766 143.928169 
L 262.464935 142.378291 
L 267.296104 141.064263 
L 272.127273 139.858053 
L 276.958442 138.736075 
L 281.78961 137.890381 
L 286.620779 136.465166 
L 291.451948 135.666641 
L 296.283117 134.433477 
L 301.114286 133.234005 
L 305.945455 132.290601 
L 310.776623 131.37752 
L 315.607792 130.167941 
L 320.438961 129.217798 
L 325.27013 128.257547 
L 330.101299 127.37479 
L 334.932468 126.556049 
L 339.763636 125.696877 
L 344.594805 124.625439 
L 349.425974 123.840392 
L 354.257143 122.688091 
L 359.088312 122.155741 
L 363.919481 121.165166 
L 368.750649 120.235239 
L 373.581818 119.477146 
" style="fill:none;stroke:#debb9b;stroke-dasharray:4.5,1.875,1.875,1.875,1.875,1.875;stroke-dashoffset:0;stroke-width:1.5;"/>
   </g>
   <g id="line2d_7">
    <path clip-path="url(#p76dfcce2d7)" d="M 69.218182 242.116364 
L 74.049351 239.063776 
L 78.880519 235.559702 
L 83.711688 232.665472 
L 88.542857 229.44105 
L 93.374026 226.486172 
L 98.205195 223.474017 
L 103.036364 220.798791 
L 107.867532 217.870868 
L 112.698701 215.310198 
L 117.52987 212.581064 
L 122.361039 210.141689 
L 127.192208 207.163226 
L 132.023377 205.016981 
L 136.854545 202.479897 
L 141.685714 200.202249 
L 146.516883 197.73592 
L 151.348052 195.808679 
L 156.179221 193.423213 
L 161.01039 191.41174 
L 165.841558 189.076814 
L 170.672727 187.02154 
L 175.503896 185.158316 
L 180.335065 182.951423 
L 185.166234 181.132 
L 189.997403 179.218237 
L 194.828571 177.479677 
L 199.65974 175.508636 
L 204.490909 173.807138 
L 209.322078 171.896744 
L 214.153247 170.508592 
L 218.984416 168.534181 
L 223.815584 166.889961 
L 228.646753 165.680382 
L 233.477922 163.918237 
L 238.309091 162.516608 
L 243.14026 160.848803 
L 247.971429 159.480867 
L 252.802597 158.227486 
L 257.633766 156.846073 
L 262.464935 155.006434 
L 267.296104 153.726099 
L 272.127273 152.253714 
L 276.958442 150.996965 
L 281.78961 150.043452 
L 286.620779 148.658669 
L 291.451948 147.465936 
L 296.283117 146.276573 
L 301.114286 144.598661 
L 305.945455 143.874261 
L 310.776623 142.698374 
L 315.607792 141.327068 
L 320.438961 140.390403 
L 325.27013 139.123545 
L 330.101299 138.166663 
L 334.932468 137.250213 
L 339.763636 136.313547 
L 344.594805 135.178093 
L 349.425974 134.093177 
L 354.257143 132.964461 
L 359.088312 132.314186 
L 363.919481 131.209055 
L 368.750649 130.154464 
L 373.581818 129.197582 
" style="fill:none;stroke:#fab0e4;stroke-dasharray:6,1.5,6,1.5,1.5,1.5;stroke-dashoffset:0;stroke-width:1.5;"/>
   </g>
   <g id="line2d_8">
    <path clip-path="url(#p76dfcce2d7)" d="M 69.218182 159.437066 
L 74.049351 157.530041 
L 78.880519 155.579215 
L 83.711688 153.904672 
L 88.542857 151.974062 
L 93.374026 150.171486 
L 98.205195 148.466619 
L 103.036364 146.876309 
L 107.867532 145.198396 
L 112.698701 143.709165 
L 117.52987 142.166025 
L 122.361039 140.774503 
L 127.192208 138.968557 
L 132.023377 137.738762 
L 136.854545 136.367456 
L 141.685714 134.908548 
L 146.516883 133.442902 
L 151.348052 132.314186 
L 156.179221 130.915926 
L 161.01039 129.773732 
L 165.841558 128.496767 
L 170.672727 127.118723 
L 175.503896 126.050654 
L 180.335065 124.760211 
L 185.166234 123.715728 
L 189.997403 122.539841 
L 194.828571 121.650346 
L 199.65974 120.632817 
L 204.490909 119.531055 
L 209.322078 118.409077 
L 214.153247 117.617291 
L 218.984416 116.478467 
L 223.815584 115.588972 
L 228.646753 114.783709 
L 233.477922 113.769549 
L 238.309091 112.977763 
L 243.14026 111.936648 
L 247.971429 111.131385 
L 252.802597 110.538388 
L 257.633766 109.473689 
L 262.464935 108.449421 
L 267.296104 107.906963 
L 272.127273 106.933235 
L 276.958442 106.175142 
L 281.78961 105.565299 
L 286.620779 104.941978 
L 291.451948 104.082806 
L 296.283117 103.516763 
L 301.114286 102.465541 
L 305.945455 102.091549 
L 310.776623 101.31324 
L 315.607792 100.582101 
L 320.438961 100.086814 
L 325.27013 99.28492 
L 330.101299 98.75257 
L 334.932468 98.146096 
L 339.763636 97.640701 
L 344.594805 97.034226 
L 349.425974 96.299719 
L 354.257143 95.730307 
L 359.088312 95.211434 
L 363.919481 94.628545 
L 368.750649 94.035548 
L 373.581818 93.435812 
" style="fill:none;stroke:#cfcfcf;stroke-dasharray:4.5,1.875,4.5,1.875,1.875,1.875;stroke-dashoffset:0;stroke-width:1.5;"/>
   </g>
   <g id="line2d_9"/>
   <g id="line2d_10"/>
   <g id="line2d_11"/>
   <g id="line2d_12"/>
   <g id="line2d_13"/>
   <g id="line2d_14"/>
   <g id="line2d_15"/>
   <g id="line2d_16"/>
   <g id="patch_3">
    <path d="M 54 252 
L 54 34.56 
" style="fill:none;stroke:#262626;stroke-linecap:square;stroke-linejoin:miter;stroke-width:1.25;"/>
   </g>
   <g id="patch_4">
    <path d="M 54 252 
L 388.8 252 
" style="fill:none;stroke:#262626;stroke-linecap:square;stroke-linejoin:miter;stroke-width:1.25;"/>
   </g>
   <g id="text_18">
    <!-- $\it{in}$ $10^{-7}$ -->
    <defs>
     <path d="M 18.3125 75.984375 
L 27.296875 75.984375 
L 25.09375 64.59375 
L 16.109375 64.59375 
z
M 14.203125 54.6875 
L 23.1875 54.6875 
L 12.5 0 
L 3.515625 0 
z
" id="DejaVuSans-Oblique-105"/>
     <path d="M 55.71875 33.015625 
L 49.3125 0 
L 40.28125 0 
L 46.6875 32.671875 
Q 47.125 34.96875 47.359375 36.71875 
Q 47.609375 38.484375 47.609375 39.5 
Q 47.609375 43.609375 45.015625 45.890625 
Q 42.4375 48.1875 37.796875 48.1875 
Q 30.5625 48.1875 25.34375 43.375 
Q 20.125 38.578125 18.5 30.328125 
L 12.5 0 
L 3.515625 0 
L 14.109375 54.6875 
L 23.09375 54.6875 
L 21.296875 46.09375 
Q 25.046875 50.828125 30.3125 53.40625 
Q 35.59375 56 41.40625 56 
Q 48.640625 56 52.609375 52.09375 
Q 56.59375 48.1875 56.59375 41.109375 
Q 56.59375 39.359375 56.375 37.359375 
Q 56.15625 35.359375 55.71875 33.015625 
z
" id="DejaVuSans-Oblique-110"/>
     <path id="DejaVuSans-32"/>
     <path d="M 10.59375 35.5 
L 73.1875 35.5 
L 73.1875 27.203125 
L 10.59375 27.203125 
z
" id="DejaVuSans-8722"/>
    </defs>
    <g style="fill:#262626;" transform="translate(28.89 18.252)scale(0.12 -0.12)">
     <use transform="translate(0 0.684375)" xlink:href="#DejaVuSans-Oblique-105"/>
     <use transform="translate(27.783203 0.684375)" xlink:href="#DejaVuSans-Oblique-110"/>
     <use transform="translate(91.162109 0.684375)" xlink:href="#DejaVuSans-32"/>
     <use transform="translate(122.949219 0.684375)" xlink:href="#DejaVuSans-49"/>
     <use transform="translate(186.572266 0.684375)" xlink:href="#DejaVuSans-48"/>
     <use transform="translate(251.152344 38.965625)scale(0.7)" xlink:href="#DejaVuSans-8722"/>
     <use transform="translate(309.804688 38.965625)scale(0.7)" xlink:href="#DejaVuSans-55"/>
    </g>
   </g>
   <g id="legend_1">
    <g id="patch_5">
     <path d="M 311.138281 246.5 
L 381.1 246.5 
Q 383.3 246.5 383.3 244.3 
L 383.3 116.2325 
Q 383.3 114.0325 381.1 114.0325 
L 311.138281 114.0325 
Q 308.938281 114.0325 308.938281 116.2325 
L 308.938281 244.3 
Q 308.938281 246.5 311.138281 246.5 
z
" style="fill:#ffffff;opacity:0.8;stroke:#cccccc;stroke-linejoin:miter;"/>
    </g>
    <g id="line2d_17">
     <path d="M 313.338281 122.940781 
L 335.338281 122.940781 
" style="fill:none;stroke:#a1c9f4;stroke-linecap:round;stroke-width:1.5;"/>
    </g>
    <g id="line2d_18"/>
    <g id="text_19">
     <!-- 1-step -->
     <defs>
      <path d="M 44.28125 53.078125 
L 44.28125 44.578125 
Q 40.484375 46.53125 36.375 47.5 
Q 32.28125 48.484375 27.875 48.484375 
Q 21.1875 48.484375 17.84375 46.4375 
Q 14.5 44.390625 14.5 40.28125 
Q 14.5 37.15625 16.890625 35.375 
Q 19.28125 33.59375 26.515625 31.984375 
L 29.59375 31.296875 
Q 39.15625 29.25 43.1875 25.515625 
Q 47.21875 21.78125 47.21875 15.09375 
Q 47.21875 7.46875 41.1875 3.015625 
Q 35.15625 -1.421875 24.609375 -1.421875 
Q 20.21875 -1.421875 15.453125 -0.5625 
Q 10.6875 0.296875 5.421875 2 
L 5.421875 11.28125 
Q 10.40625 8.6875 15.234375 7.390625 
Q 20.0625 6.109375 24.8125 6.109375 
Q 31.15625 6.109375 34.5625 8.28125 
Q 37.984375 10.453125 37.984375 14.40625 
Q 37.984375 18.0625 35.515625 20.015625 
Q 33.0625 21.96875 24.703125 23.78125 
L 21.578125 24.515625 
Q 13.234375 26.265625 9.515625 29.90625 
Q 5.8125 33.546875 5.8125 39.890625 
Q 5.8125 47.609375 11.28125 51.796875 
Q 16.75 56 26.8125 56 
Q 31.78125 56 36.171875 55.265625 
Q 40.578125 54.546875 44.28125 53.078125 
z
" id="DejaVuSans-115"/>
      <path d="M 18.3125 70.21875 
L 18.3125 54.6875 
L 36.8125 54.6875 
L 36.8125 47.703125 
L 18.3125 47.703125 
L 18.3125 18.015625 
Q 18.3125 11.328125 20.140625 9.421875 
Q 21.96875 7.515625 27.59375 7.515625 
L 36.8125 7.515625 
L 36.8125 0 
L 27.59375 0 
Q 17.1875 0 13.234375 3.875 
Q 9.28125 7.765625 9.28125 18.015625 
L 9.28125 47.703125 
L 2.6875 47.703125 
L 2.6875 54.6875 
L 9.28125 54.6875 
L 9.28125 70.21875 
z
" id="DejaVuSans-116"/>
      <path d="M 56.203125 29.59375 
L 56.203125 25.203125 
L 14.890625 25.203125 
Q 15.484375 15.921875 20.484375 11.0625 
Q 25.484375 6.203125 34.421875 6.203125 
Q 39.59375 6.203125 44.453125 7.46875 
Q 49.3125 8.734375 54.109375 11.28125 
L 54.109375 2.78125 
Q 49.265625 0.734375 44.1875 -0.34375 
Q 39.109375 -1.421875 33.890625 -1.421875 
Q 20.796875 -1.421875 13.15625 6.1875 
Q 5.515625 13.8125 5.515625 26.8125 
Q 5.515625 40.234375 12.765625 48.109375 
Q 20.015625 56 32.328125 56 
Q 43.359375 56 49.78125 48.890625 
Q 56.203125 41.796875 56.203125 29.59375 
z
M 47.21875 32.234375 
Q 47.125 39.59375 43.09375 43.984375 
Q 39.0625 48.390625 32.421875 48.390625 
Q 24.90625 48.390625 20.390625 44.140625 
Q 15.875 39.890625 15.1875 32.171875 
z
" id="DejaVuSans-101"/>
      <path d="M 18.109375 8.203125 
L 18.109375 -20.796875 
L 9.078125 -20.796875 
L 9.078125 54.6875 
L 18.109375 54.6875 
L 18.109375 46.390625 
Q 20.953125 51.265625 25.265625 53.625 
Q 29.59375 56 35.59375 56 
Q 45.5625 56 51.78125 48.09375 
Q 58.015625 40.1875 58.015625 27.296875 
Q 58.015625 14.40625 51.78125 6.484375 
Q 45.5625 -1.421875 35.59375 -1.421875 
Q 29.59375 -1.421875 25.265625 0.953125 
Q 20.953125 3.328125 18.109375 8.203125 
z
M 48.6875 27.296875 
Q 48.6875 37.203125 44.609375 42.84375 
Q 40.53125 48.484375 33.40625 48.484375 
Q 26.265625 48.484375 22.1875 42.84375 
Q 18.109375 37.203125 18.109375 27.296875 
Q 18.109375 17.390625 22.1875 11.75 
Q 26.265625 6.109375 33.40625 6.109375 
Q 40.53125 6.109375 44.609375 11.75 
Q 48.6875 17.390625 48.6875 27.296875 
z
" id="DejaVuSans-112"/>
     </defs>
     <g style="fill:#262626;" transform="translate(344.138281 126.790781)scale(0.11 -0.11)">
      <use xlink:href="#DejaVuSans-49"/>
      <use x="63.623047" xlink:href="#DejaVuSans-45"/>
      <use x="99.707031" xlink:href="#DejaVuSans-115"/>
      <use x="151.806641" xlink:href="#DejaVuSans-116"/>
      <use x="191.015625" xlink:href="#DejaVuSans-101"/>
      <use x="252.539062" xlink:href="#DejaVuSans-112"/>
     </g>
    </g>
    <g id="line2d_19">
     <path d="M 313.338281 139.086719 
L 335.338281 139.086719 
" style="fill:none;stroke:#ffb482;stroke-dasharray:6,2.25;stroke-dashoffset:0;stroke-width:1.5;"/>
    </g>
    <g id="line2d_20"/>
    <g id="text_20">
     <!-- 2-step -->
     <g style="fill:#262626;" transform="translate(344.138281 142.936719)scale(0.11 -0.11)">
      <use xlink:href="#DejaVuSans-50"/>
      <use x="63.623047" xlink:href="#DejaVuSans-45"/>
      <use x="99.707031" xlink:href="#DejaVuSans-115"/>
      <use x="151.806641" xlink:href="#DejaVuSans-116"/>
      <use x="191.015625" xlink:href="#DejaVuSans-101"/>
      <use x="252.539062" xlink:href="#DejaVuSans-112"/>
     </g>
    </g>
    <g id="line2d_21">
     <path d="M 313.338281 155.232656 
L 335.338281 155.232656 
" style="fill:none;stroke:#8de5a1;stroke-dasharray:1.5,1.5;stroke-dashoffset:0;stroke-width:1.5;"/>
    </g>
    <g id="line2d_22"/>
    <g id="text_21">
     <!-- 3-step -->
     <defs>
      <path d="M 40.578125 39.3125 
Q 47.65625 37.796875 51.625 33 
Q 55.609375 28.21875 55.609375 21.1875 
Q 55.609375 10.40625 48.1875 4.484375 
Q 40.765625 -1.421875 27.09375 -1.421875 
Q 22.515625 -1.421875 17.65625 -0.515625 
Q 12.796875 0.390625 7.625 2.203125 
L 7.625 11.71875 
Q 11.71875 9.328125 16.59375 8.109375 
Q 21.484375 6.890625 26.8125 6.890625 
Q 36.078125 6.890625 40.9375 10.546875 
Q 45.796875 14.203125 45.796875 21.1875 
Q 45.796875 27.640625 41.28125 31.265625 
Q 36.765625 34.90625 28.71875 34.90625 
L 20.21875 34.90625 
L 20.21875 43.015625 
L 29.109375 43.015625 
Q 36.375 43.015625 40.234375 45.921875 
Q 44.09375 48.828125 44.09375 54.296875 
Q 44.09375 59.90625 40.109375 62.90625 
Q 36.140625 65.921875 28.71875 65.921875 
Q 24.65625 65.921875 20.015625 65.03125 
Q 15.375 64.15625 9.8125 62.3125 
L 9.8125 71.09375 
Q 15.4375 72.65625 20.34375 73.4375 
Q 25.25 74.21875 29.59375 74.21875 
Q 40.828125 74.21875 47.359375 69.109375 
Q 53.90625 64.015625 53.90625 55.328125 
Q 53.90625 49.265625 50.4375 45.09375 
Q 46.96875 40.921875 40.578125 39.3125 
z
" id="DejaVuSans-51"/>
     </defs>
     <g style="fill:#262626;" transform="translate(344.138281 159.082656)scale(0.11 -0.11)">
      <use xlink:href="#DejaVuSans-51"/>
      <use x="63.623047" xlink:href="#DejaVuSans-45"/>
      <use x="99.707031" xlink:href="#DejaVuSans-115"/>
      <use x="151.806641" xlink:href="#DejaVuSans-116"/>
      <use x="191.015625" xlink:href="#DejaVuSans-101"/>
      <use x="252.539062" xlink:href="#DejaVuSans-112"/>
     </g>
    </g>
    <g id="line2d_23">
     <path d="M 313.338281 171.378594 
L 335.338281 171.378594 
" style="fill:none;stroke:#ff9f9b;stroke-dasharray:4.5,1.875,2.25,1.875;stroke-dashoffset:0;stroke-width:1.5;"/>
    </g>
    <g id="line2d_24"/>
    <g id="text_22">
     <!-- 4-step -->
     <g style="fill:#262626;" transform="translate(344.138281 175.228594)scale(0.11 -0.11)">
      <use xlink:href="#DejaVuSans-52"/>
      <use x="63.623047" xlink:href="#DejaVuSans-45"/>
      <use x="99.707031" xlink:href="#DejaVuSans-115"/>
      <use x="151.806641" xlink:href="#DejaVuSans-116"/>
      <use x="191.015625" xlink:href="#DejaVuSans-101"/>
      <use x="252.539062" xlink:href="#DejaVuSans-112"/>
     </g>
    </g>
    <g id="line2d_25">
     <path d="M 313.338281 187.524531 
L 335.338281 187.524531 
" style="fill:none;stroke:#d0bbff;stroke-dasharray:7.5,1.5,1.5,1.5;stroke-dashoffset:0;stroke-width:1.5;"/>
    </g>
    <g id="line2d_26"/>
    <g id="text_23">
     <!-- 5-step -->
     <g style="fill:#262626;" transform="translate(344.138281 191.374531)scale(0.11 -0.11)">
      <use xlink:href="#DejaVuSans-53"/>
      <use x="63.623047" xlink:href="#DejaVuSans-45"/>
      <use x="99.707031" xlink:href="#DejaVuSans-115"/>
      <use x="151.806641" xlink:href="#DejaVuSans-116"/>
      <use x="191.015625" xlink:href="#DejaVuSans-101"/>
      <use x="252.539062" xlink:href="#DejaVuSans-112"/>
     </g>
    </g>
    <g id="line2d_27">
     <path d="M 313.338281 203.670469 
L 335.338281 203.670469 
" style="fill:none;stroke:#debb9b;stroke-dasharray:4.5,1.875,1.875,1.875,1.875,1.875;stroke-dashoffset:0;stroke-width:1.5;"/>
    </g>
    <g id="line2d_28"/>
    <g id="text_24">
     <!-- 6-step -->
     <g style="fill:#262626;" transform="translate(344.138281 207.520469)scale(0.11 -0.11)">
      <use xlink:href="#DejaVuSans-54"/>
      <use x="63.623047" xlink:href="#DejaVuSans-45"/>
      <use x="99.707031" xlink:href="#DejaVuSans-115"/>
      <use x="151.806641" xlink:href="#DejaVuSans-116"/>
      <use x="191.015625" xlink:href="#DejaVuSans-101"/>
      <use x="252.539062" xlink:href="#DejaVuSans-112"/>
     </g>
    </g>
    <g id="line2d_29">
     <path d="M 313.338281 219.816406 
L 335.338281 219.816406 
" style="fill:none;stroke:#fab0e4;stroke-dasharray:6,1.5,6,1.5,1.5,1.5;stroke-dashoffset:0;stroke-width:1.5;"/>
    </g>
    <g id="line2d_30"/>
    <g id="text_25">
     <!-- 7-step -->
     <g style="fill:#262626;" transform="translate(344.138281 223.666406)scale(0.11 -0.11)">
      <use xlink:href="#DejaVuSans-55"/>
      <use x="63.623047" xlink:href="#DejaVuSans-45"/>
      <use x="99.707031" xlink:href="#DejaVuSans-115"/>
      <use x="151.806641" xlink:href="#DejaVuSans-116"/>
      <use x="191.015625" xlink:href="#DejaVuSans-101"/>
      <use x="252.539062" xlink:href="#DejaVuSans-112"/>
     </g>
    </g>
    <g id="line2d_31">
     <path d="M 313.338281 235.962344 
L 335.338281 235.962344 
" style="fill:none;stroke:#cfcfcf;stroke-dasharray:4.5,1.875,4.5,1.875,1.875,1.875;stroke-dashoffset:0;stroke-width:1.5;"/>
    </g>
    <g id="line2d_32"/>
    <g id="text_26">
     <!-- 8-step -->
     <g style="fill:#262626;" transform="translate(344.138281 239.812344)scale(0.11 -0.11)">
      <use xlink:href="#DejaVuSans-56"/>
      <use x="63.623047" xlink:href="#DejaVuSans-45"/>
      <use x="99.707031" xlink:href="#DejaVuSans-115"/>
      <use x="151.806641" xlink:href="#DejaVuSans-116"/>
      <use x="191.015625" xlink:href="#DejaVuSans-101"/>
      <use x="252.539062" xlink:href="#DejaVuSans-112"/>
     </g>
    </g>
   </g>
  </g>
 </g>
 <defs>
  <clipPath id="p76dfcce2d7">
   <rect height="217.44" width="334.8" x="54" y="34.56"/>
  </clipPath>
 </defs>
</svg>
