<?xml version="1.0" encoding="utf-8" standalone="no"?>
<!DOCTYPE svg PUBLIC "-//W3C//DTD SVG 1.1//EN"
  "http://www.w3.org/Graphics/SVG/1.1/DTD/svg11.dtd">
<!-- Created with matplotlib (https://matplotlib.org/) -->
<svg height="345.6pt" version="1.1" viewBox="0 0 864 345.6" width="864pt" xmlns="http://www.w3.org/2000/svg" xmlns:xlink="http://www.w3.org/1999/xlink">
 <defs>
  <style type="text/css">
*{stroke-linecap:butt;stroke-linejoin:round;}
  </style>
 </defs>
 <g id="figure_1">
  <g id="patch_1">
   <path d="M 0 345.6 
L 864 345.6 
L 864 0 
L 0 0 
z
" style="fill:#ffffff;"/>
  </g>
  <g id="axes_1">
   <g id="patch_2">
    <path d="M 108 302.4 
L 412.363636 302.4 
L 412.363636 41.472 
L 108 41.472 
z
" style="fill:#ffffff;"/>
   </g>
   <g id="matplotlib.axis_1">
    <g id="xtick_1">
     <g id="text_1">
      <!-- 0.00 -->
      <defs>
       <path d="M 31.78125 66.40625 
Q 24.171875 66.40625 20.328125 58.90625 
Q 16.5 51.421875 16.5 36.375 
Q 16.5 21.390625 20.328125 13.890625 
Q 24.171875 6.390625 31.78125 6.390625 
Q 39.453125 6.390625 43.28125 13.890625 
Q 47.125 21.390625 47.125 36.375 
Q 47.125 51.421875 43.28125 58.90625 
Q 39.453125 66.40625 31.78125 66.40625 
z
M 31.78125 74.21875 
Q 44.046875 74.21875 50.515625 64.515625 
Q 56.984375 54.828125 56.984375 36.375 
Q 56.984375 17.96875 50.515625 8.265625 
Q 44.046875 -1.421875 31.78125 -1.421875 
Q 19.53125 -1.421875 13.0625 8.265625 
Q 6.59375 17.96875 6.59375 36.375 
Q 6.59375 54.828125 13.0625 64.515625 
Q 19.53125 74.21875 31.78125 74.21875 
z
" id="DejaVuSans-48"/>
       <path d="M 10.6875 12.40625 
L 21 12.40625 
L 21 0 
L 10.6875 0 
z
" id="DejaVuSans-46"/>
      </defs>
      <g style="fill:#262626;" transform="translate(109.450201 320.258281)scale(0.11 -0.11)">
       <use xlink:href="#DejaVuSans-48"/>
       <use x="63.623047" xlink:href="#DejaVuSans-46"/>
       <use x="95.410156" xlink:href="#DejaVuSans-48"/>
       <use x="159.033203" xlink:href="#DejaVuSans-48"/>
      </g>
     </g>
    </g>
    <g id="xtick_2">
     <g id="text_2">
      <!-- 0.25 -->
      <defs>
       <path d="M 19.1875 8.296875 
L 53.609375 8.296875 
L 53.609375 0 
L 7.328125 0 
L 7.328125 8.296875 
Q 12.9375 14.109375 22.625 23.890625 
Q 32.328125 33.6875 34.8125 36.53125 
Q 39.546875 41.84375 41.421875 45.53125 
Q 43.3125 49.21875 43.3125 52.78125 
Q 43.3125 58.59375 39.234375 62.25 
Q 35.15625 65.921875 28.609375 65.921875 
Q 23.96875 65.921875 18.8125 64.3125 
Q 13.671875 62.703125 7.8125 59.421875 
L 7.8125 69.390625 
Q 13.765625 71.78125 18.9375 73 
Q 24.125 74.21875 28.421875 74.21875 
Q 39.75 74.21875 46.484375 68.546875 
Q 53.21875 62.890625 53.21875 53.421875 
Q 53.21875 48.921875 51.53125 44.890625 
Q 49.859375 40.875 45.40625 35.40625 
Q 44.1875 33.984375 37.640625 27.21875 
Q 31.109375 20.453125 19.1875 8.296875 
z
" id="DejaVuSans-50"/>
       <path d="M 10.796875 72.90625 
L 49.515625 72.90625 
L 49.515625 64.59375 
L 19.828125 64.59375 
L 19.828125 46.734375 
Q 21.96875 47.46875 24.109375 47.828125 
Q 26.265625 48.1875 28.421875 48.1875 
Q 40.625 48.1875 47.75 41.5 
Q 54.890625 34.8125 54.890625 23.390625 
Q 54.890625 11.625 47.5625 5.09375 
Q 40.234375 -1.421875 26.90625 -1.421875 
Q 22.3125 -1.421875 17.546875 -0.640625 
Q 12.796875 0.140625 7.71875 1.703125 
L 7.71875 11.625 
Q 12.109375 9.234375 16.796875 8.0625 
Q 21.484375 6.890625 26.703125 6.890625 
Q 35.15625 6.890625 40.078125 11.328125 
Q 45.015625 15.765625 45.015625 23.390625 
Q 45.015625 31 40.078125 35.4375 
Q 35.15625 39.890625 26.703125 39.890625 
Q 22.75 39.890625 18.8125 39.015625 
Q 14.890625 38.140625 10.796875 36.28125 
z
" id="DejaVuSans-53"/>
      </defs>
      <g style="fill:#262626;" transform="translate(144.05428 320.258281)scale(0.11 -0.11)">
       <use xlink:href="#DejaVuSans-48"/>
       <use x="63.623047" xlink:href="#DejaVuSans-46"/>
       <use x="95.410156" xlink:href="#DejaVuSans-50"/>
       <use x="159.033203" xlink:href="#DejaVuSans-53"/>
      </g>
     </g>
    </g>
    <g id="xtick_3">
     <g id="text_3">
      <!-- 0.50 -->
      <g style="fill:#262626;" transform="translate(178.658358 320.258281)scale(0.11 -0.11)">
       <use xlink:href="#DejaVuSans-48"/>
       <use x="63.623047" xlink:href="#DejaVuSans-46"/>
       <use x="95.410156" xlink:href="#DejaVuSans-53"/>
       <use x="159.033203" xlink:href="#DejaVuSans-48"/>
      </g>
     </g>
    </g>
    <g id="xtick_4">
     <g id="text_4">
      <!-- 0.75 -->
      <defs>
       <path d="M 8.203125 72.90625 
L 55.078125 72.90625 
L 55.078125 68.703125 
L 28.609375 0 
L 18.3125 0 
L 43.21875 64.59375 
L 8.203125 64.59375 
z
" id="DejaVuSans-55"/>
      </defs>
      <g style="fill:#262626;" transform="translate(213.262437 320.258281)scale(0.11 -0.11)">
       <use xlink:href="#DejaVuSans-48"/>
       <use x="63.623047" xlink:href="#DejaVuSans-46"/>
       <use x="95.410156" xlink:href="#DejaVuSans-55"/>
       <use x="159.033203" xlink:href="#DejaVuSans-53"/>
      </g>
     </g>
    </g>
    <g id="xtick_5">
     <g id="text_5">
      <!-- 1.00 -->
      <defs>
       <path d="M 12.40625 8.296875 
L 28.515625 8.296875 
L 28.515625 63.921875 
L 10.984375 60.40625 
L 10.984375 69.390625 
L 28.421875 72.90625 
L 38.28125 72.90625 
L 38.28125 8.296875 
L 54.390625 8.296875 
L 54.390625 0 
L 12.40625 0 
z
" id="DejaVuSans-49"/>
      </defs>
      <g style="fill:#262626;" transform="translate(247.866516 320.258281)scale(0.11 -0.11)">
       <use xlink:href="#DejaVuSans-49"/>
       <use x="63.623047" xlink:href="#DejaVuSans-46"/>
       <use x="95.410156" xlink:href="#DejaVuSans-48"/>
       <use x="159.033203" xlink:href="#DejaVuSans-48"/>
      </g>
     </g>
    </g>
    <g id="xtick_6">
     <g id="text_6">
      <!-- 1.25 -->
      <g style="fill:#262626;" transform="translate(282.470595 320.258281)scale(0.11 -0.11)">
       <use xlink:href="#DejaVuSans-49"/>
       <use x="63.623047" xlink:href="#DejaVuSans-46"/>
       <use x="95.410156" xlink:href="#DejaVuSans-50"/>
       <use x="159.033203" xlink:href="#DejaVuSans-53"/>
      </g>
     </g>
    </g>
    <g id="xtick_7">
     <g id="text_7">
      <!-- 1.50 -->
      <g style="fill:#262626;" transform="translate(317.074674 320.258281)scale(0.11 -0.11)">
       <use xlink:href="#DejaVuSans-49"/>
       <use x="63.623047" xlink:href="#DejaVuSans-46"/>
       <use x="95.410156" xlink:href="#DejaVuSans-53"/>
       <use x="159.033203" xlink:href="#DejaVuSans-48"/>
      </g>
     </g>
    </g>
    <g id="xtick_8">
     <g id="text_8">
      <!-- 1.75 -->
      <g style="fill:#262626;" transform="translate(351.678753 320.258281)scale(0.11 -0.11)">
       <use xlink:href="#DejaVuSans-49"/>
       <use x="63.623047" xlink:href="#DejaVuSans-46"/>
       <use x="95.410156" xlink:href="#DejaVuSans-55"/>
       <use x="159.033203" xlink:href="#DejaVuSans-53"/>
      </g>
     </g>
    </g>
    <g id="xtick_9">
     <g id="text_9">
      <!-- 2.00 -->
      <g style="fill:#262626;" transform="translate(386.282832 320.258281)scale(0.11 -0.11)">
       <use xlink:href="#DejaVuSans-50"/>
       <use x="63.623047" xlink:href="#DejaVuSans-46"/>
       <use x="95.410156" xlink:href="#DejaVuSans-48"/>
       <use x="159.033203" xlink:href="#DejaVuSans-48"/>
      </g>
     </g>
    </g>
    <g id="text_10">
     <!-- $g_{0}^{lasso}$ -->
     <defs>
      <path d="M 59.625 54.6875 
L 50.296875 6.78125 
Q 47.609375 -7.125 40.015625 -13.953125 
Q 32.421875 -20.796875 19.578125 -20.796875 
Q 14.84375 -20.796875 10.78125 -20.09375 
Q 6.734375 -19.390625 3.21875 -17.921875 
L 4.890625 -9.1875 
Q 8.203125 -11.328125 11.90625 -12.34375 
Q 15.625 -13.375 19.828125 -13.375 
Q 28.375 -13.375 33.859375 -8.703125 
Q 39.359375 -4.046875 41.109375 4.6875 
L 41.890625 8.796875 
Q 38.140625 4.5 33.15625 2.25 
Q 28.171875 0 22.40625 0 
Q 14.109375 0 9.34375 5.484375 
Q 4.59375 10.984375 4.59375 20.609375 
Q 4.59375 28.171875 7.46875 35.421875 
Q 10.359375 42.671875 15.578125 48.296875 
Q 19.046875 52 23.65625 54 
Q 28.265625 56 33.296875 56 
Q 38.8125 56 42.90625 53.4375 
Q 47.015625 50.875 49.03125 46.1875 
L 50.59375 54.6875 
z
M 46.09375 34.625 
Q 46.09375 41.265625 42.96875 44.875 
Q 39.84375 48.484375 34.078125 48.484375 
Q 30.515625 48.484375 27.296875 47.0625 
Q 24.078125 45.65625 21.78125 43.109375 
Q 18.0625 38.921875 15.984375 33.234375 
Q 13.921875 27.546875 13.921875 21.484375 
Q 13.921875 14.75 17.0625 11.125 
Q 20.21875 7.515625 26.125 7.515625 
Q 34.671875 7.515625 40.375 15.25 
Q 46.09375 23 46.09375 34.625 
z
" id="DejaVuSans-Oblique-103"/>
      <path d="M 18.3125 75.984375 
L 27.296875 75.984375 
L 12.5 0 
L 3.515625 0 
z
" id="DejaVuSans-Oblique-108"/>
      <path d="M 53.71875 31.203125 
L 47.609375 0 
L 38.625 0 
L 40.28125 8.296875 
Q 36.328125 3.421875 31.265625 1 
Q 26.21875 -1.421875 20.015625 -1.421875 
Q 13.03125 -1.421875 8.5625 2.84375 
Q 4.109375 7.125 4.109375 13.8125 
Q 4.109375 23.390625 11.75 28.953125 
Q 19.390625 34.515625 32.8125 34.515625 
L 45.3125 34.515625 
L 45.796875 36.921875 
Q 45.90625 37.3125 45.953125 37.765625 
Q 46 38.234375 46 39.203125 
Q 46 43.5625 42.453125 45.96875 
Q 38.921875 48.390625 32.515625 48.390625 
Q 28.125 48.390625 23.5 47.265625 
Q 18.890625 46.140625 14.015625 43.890625 
L 15.578125 52.203125 
Q 20.65625 54.109375 25.515625 55.046875 
Q 30.375 56 34.90625 56 
Q 44.578125 56 49.625 51.796875 
Q 54.6875 47.609375 54.6875 39.59375 
Q 54.6875 37.984375 54.4375 35.8125 
Q 54.203125 33.640625 53.71875 31.203125 
z
M 44 27.484375 
L 35.015625 27.484375 
Q 23.96875 27.484375 18.671875 24.53125 
Q 13.375 21.578125 13.375 15.375 
Q 13.375 11.078125 16.078125 8.640625 
Q 18.796875 6.203125 23.578125 6.203125 
Q 30.90625 6.203125 36.375 11.453125 
Q 41.84375 16.703125 43.609375 25.484375 
z
" id="DejaVuSans-Oblique-97"/>
      <path d="M 50 53.078125 
L 48.296875 44.578125 
Q 44.734375 46.53125 40.765625 47.5 
Q 36.8125 48.484375 32.625 48.484375 
Q 25.53125 48.484375 21.453125 46.0625 
Q 17.390625 43.65625 17.390625 39.5 
Q 17.390625 34.671875 26.859375 32.078125 
Q 27.59375 31.890625 27.9375 31.78125 
L 30.8125 30.90625 
Q 39.796875 28.421875 42.796875 25.6875 
Q 45.796875 22.953125 45.796875 18.21875 
Q 45.796875 9.515625 38.890625 4.046875 
Q 31.984375 -1.421875 20.796875 -1.421875 
Q 16.453125 -1.421875 11.671875 -0.578125 
Q 6.890625 0.25 1.125 2 
L 2.875 11.28125 
Q 7.8125 8.734375 12.59375 7.421875 
Q 17.390625 6.109375 21.78125 6.109375 
Q 28.375 6.109375 32.5 8.9375 
Q 36.625 11.765625 36.625 16.109375 
Q 36.625 20.796875 25.78125 23.6875 
L 24.859375 23.921875 
L 21.78125 24.703125 
Q 14.9375 26.515625 11.765625 29.46875 
Q 8.59375 32.421875 8.59375 37.015625 
Q 8.59375 45.75 15.15625 50.875 
Q 21.734375 56 33.015625 56 
Q 37.453125 56 41.671875 55.265625 
Q 45.90625 54.546875 50 53.078125 
z
" id="DejaVuSans-Oblique-115"/>
      <path d="M 25.390625 -1.421875 
Q 15.765625 -1.421875 10.171875 4.515625 
Q 4.59375 10.453125 4.59375 20.703125 
Q 4.59375 26.65625 6.515625 32.828125 
Q 8.453125 39.015625 11.53125 43.21875 
Q 16.359375 49.75 22.3125 52.875 
Q 28.265625 56 35.796875 56 
Q 45.125 56 50.859375 50.1875 
Q 56.59375 44.390625 56.59375 35.015625 
Q 56.59375 28.515625 54.6875 22.0625 
Q 52.78125 15.625 49.703125 11.375 
Q 44.921875 4.828125 38.96875 1.703125 
Q 33.015625 -1.421875 25.390625 -1.421875 
z
M 13.921875 21 
Q 13.921875 13.578125 17.015625 9.890625 
Q 20.125 6.203125 26.421875 6.203125 
Q 35.453125 6.203125 41.375 14.078125 
Q 47.3125 21.96875 47.3125 34.078125 
Q 47.3125 41.15625 44.140625 44.765625 
Q 40.96875 48.390625 34.8125 48.390625 
Q 29.734375 48.390625 25.78125 46.015625 
Q 21.828125 43.65625 18.703125 38.8125 
Q 16.40625 35.203125 15.15625 30.5625 
Q 13.921875 25.921875 13.921875 21 
z
" id="DejaVuSans-Oblique-111"/>
     </defs>
     <g style="fill:#262626;" transform="translate(245.241818 337.585938)scale(0.12 -0.12)">
      <use transform="translate(0 0.529687)" xlink:href="#DejaVuSans-Oblique-103"/>
      <use transform="translate(68.126458 38.810938)scale(0.7)" xlink:href="#DejaVuSans-Oblique-108"/>
      <use transform="translate(87.574701 38.810938)scale(0.7)" xlink:href="#DejaVuSans-Oblique-97"/>
      <use transform="translate(130.470208 38.810938)scale(0.7)" xlink:href="#DejaVuSans-Oblique-115"/>
      <use transform="translate(166.939935 38.810938)scale(0.7)" xlink:href="#DejaVuSans-Oblique-115"/>
      <use transform="translate(203.409661 38.810938)scale(0.7)" xlink:href="#DejaVuSans-Oblique-111"/>
      <use transform="translate(63.476562 -26.814063)scale(0.7)" xlink:href="#DejaVuSans-48"/>
     </g>
    </g>
   </g>
   <g id="matplotlib.axis_2">
    <g id="ytick_1">
     <g id="text_11">
      <!-- -2.5 -->
      <defs>
       <path d="M 4.890625 31.390625 
L 31.203125 31.390625 
L 31.203125 23.390625 
L 4.890625 23.390625 
z
" id="DejaVuSans-45"/>
      </defs>
      <g style="fill:#262626;" transform="translate(77.037969 304.280274)scale(0.11 -0.11)">
       <use xlink:href="#DejaVuSans-45"/>
       <use x="36.083984" xlink:href="#DejaVuSans-50"/>
       <use x="99.707031" xlink:href="#DejaVuSans-46"/>
       <use x="131.494141" xlink:href="#DejaVuSans-53"/>
      </g>
     </g>
    </g>
    <g id="ytick_2">
     <g id="text_12">
      <!-- -2.0 -->
      <g style="fill:#262626;" transform="translate(77.037969 272.33933)scale(0.11 -0.11)">
       <use xlink:href="#DejaVuSans-45"/>
       <use x="36.083984" xlink:href="#DejaVuSans-50"/>
       <use x="99.707031" xlink:href="#DejaVuSans-46"/>
       <use x="131.494141" xlink:href="#DejaVuSans-48"/>
      </g>
     </g>
    </g>
    <g id="ytick_3">
     <g id="text_13">
      <!-- -1.5 -->
      <g style="fill:#262626;" transform="translate(77.037969 240.398386)scale(0.11 -0.11)">
       <use xlink:href="#DejaVuSans-45"/>
       <use x="36.083984" xlink:href="#DejaVuSans-49"/>
       <use x="99.707031" xlink:href="#DejaVuSans-46"/>
       <use x="131.494141" xlink:href="#DejaVuSans-53"/>
      </g>
     </g>
    </g>
    <g id="ytick_4">
     <g id="text_14">
      <!-- -1.0 -->
      <g style="fill:#262626;" transform="translate(77.037969 208.457442)scale(0.11 -0.11)">
       <use xlink:href="#DejaVuSans-45"/>
       <use x="36.083984" xlink:href="#DejaVuSans-49"/>
       <use x="99.707031" xlink:href="#DejaVuSans-46"/>
       <use x="131.494141" xlink:href="#DejaVuSans-48"/>
      </g>
     </g>
    </g>
    <g id="ytick_5">
     <g id="text_15">
      <!-- -0.5 -->
      <g style="fill:#262626;" transform="translate(77.037969 176.516498)scale(0.11 -0.11)">
       <use xlink:href="#DejaVuSans-45"/>
       <use x="36.083984" xlink:href="#DejaVuSans-48"/>
       <use x="99.707031" xlink:href="#DejaVuSans-46"/>
       <use x="131.494141" xlink:href="#DejaVuSans-53"/>
      </g>
     </g>
    </g>
    <g id="ytick_6">
     <g id="text_16">
      <!-- 0.0 -->
      <g style="fill:#262626;" transform="translate(81.006563 144.575554)scale(0.11 -0.11)">
       <use xlink:href="#DejaVuSans-48"/>
       <use x="63.623047" xlink:href="#DejaVuSans-46"/>
       <use x="95.410156" xlink:href="#DejaVuSans-48"/>
      </g>
     </g>
    </g>
    <g id="ytick_7">
     <g id="text_17">
      <!-- 0.5 -->
      <g style="fill:#262626;" transform="translate(81.006563 112.634611)scale(0.11 -0.11)">
       <use xlink:href="#DejaVuSans-48"/>
       <use x="63.623047" xlink:href="#DejaVuSans-46"/>
       <use x="95.410156" xlink:href="#DejaVuSans-53"/>
      </g>
     </g>
    </g>
    <g id="ytick_8">
     <g id="text_18">
      <!-- 1.0 -->
      <g style="fill:#262626;" transform="translate(81.006563 80.693667)scale(0.11 -0.11)">
       <use xlink:href="#DejaVuSans-49"/>
       <use x="63.623047" xlink:href="#DejaVuSans-46"/>
       <use x="95.410156" xlink:href="#DejaVuSans-48"/>
      </g>
     </g>
    </g>
    <g id="ytick_9">
     <g id="text_19">
      <!-- 1.5 -->
      <g style="fill:#262626;" transform="translate(81.006563 48.752723)scale(0.11 -0.11)">
       <use xlink:href="#DejaVuSans-49"/>
       <use x="63.623047" xlink:href="#DejaVuSans-46"/>
       <use x="95.410156" xlink:href="#DejaVuSans-53"/>
      </g>
     </g>
    </g>
    <g id="text_20">
     <!-- $\it{MSFE}$ -->
     <defs>
      <path d="M 16.890625 72.90625 
L 31.6875 72.90625 
L 40.1875 23.78125 
L 68.40625 72.90625 
L 83.59375 72.90625 
L 69.390625 0 
L 59.8125 0 
L 72.21875 63.921875 
L 43.609375 14.015625 
L 33.984375 14.015625 
L 24.703125 64.109375 
L 12.3125 0 
L 2.6875 0 
z
" id="DejaVuSans-Oblique-77"/>
      <path d="M 60.296875 70.515625 
L 58.40625 60.890625 
Q 53.46875 63.53125 48.609375 64.875 
Q 43.75 66.21875 39.203125 66.21875 
Q 30.375 66.21875 25.140625 62.359375 
Q 19.921875 58.5 19.921875 52.09375 
Q 19.921875 48.578125 21.84375 46.703125 
Q 23.78125 44.828125 31.78125 42.671875 
L 37.703125 41.21875 
Q 47.703125 38.625 51.609375 34.640625 
Q 55.515625 30.671875 55.515625 23.484375 
Q 55.515625 12.453125 46.84375 5.515625 
Q 38.1875 -1.421875 24.03125 -1.421875 
Q 18.21875 -1.421875 12.359375 -0.265625 
Q 6.5 0.875 0.59375 3.21875 
L 2.59375 13.375 
Q 8.015625 10.015625 13.453125 8.296875 
Q 18.890625 6.59375 24.3125 6.59375 
Q 33.546875 6.59375 39.109375 10.6875 
Q 44.671875 14.796875 44.671875 21.390625 
Q 44.671875 25.78125 42.453125 28.046875 
Q 40.234375 30.328125 32.90625 32.171875 
L 27 33.6875 
Q 16.890625 36.328125 13.203125 39.765625 
Q 9.515625 43.21875 9.515625 49.421875 
Q 9.515625 60.296875 17.890625 67.25 
Q 26.265625 74.21875 39.703125 74.21875 
Q 44.921875 74.21875 50.046875 73.28125 
Q 55.171875 72.359375 60.296875 70.515625 
z
" id="DejaVuSans-Oblique-83"/>
      <path d="M 16.890625 72.90625 
L 58.6875 72.90625 
L 57.078125 64.59375 
L 25.09375 64.59375 
L 20.90625 43.109375 
L 49.8125 43.109375 
L 48.1875 34.8125 
L 19.28125 34.8125 
L 12.5 0 
L 2.6875 0 
z
" id="DejaVuSans-Oblique-70"/>
      <path d="M 16.890625 72.90625 
L 62.984375 72.90625 
L 61.375 64.59375 
L 25.09375 64.59375 
L 20.90625 43.015625 
L 55.71875 43.015625 
L 54.109375 34.71875 
L 19.28125 34.71875 
L 14.203125 8.296875 
L 51.3125 8.296875 
L 49.703125 0 
L 2.6875 0 
z
" id="DejaVuSans-Oblique-69"/>
     </defs>
     <g style="fill:#262626;" transform="translate(70.542344 188.196)rotate(-90)scale(0.12 -0.12)">
      <use transform="translate(0 0.78125)" xlink:href="#DejaVuSans-Oblique-77"/>
      <use transform="translate(86.279297 0.78125)" xlink:href="#DejaVuSans-Oblique-83"/>
      <use transform="translate(149.755859 0.78125)" xlink:href="#DejaVuSans-Oblique-70"/>
      <use transform="translate(207.275391 0.78125)" xlink:href="#DejaVuSans-Oblique-69"/>
     </g>
    </g>
   </g>
   <g id="line2d_1">
    <path clip-path="url(#pe5755da823)" d="M 121.834711 271.705696 
L 122.919786 271.388715 
L 126.175012 270.094377 
L 127.260088 269.724566 
L 128.345163 269.16985 
L 129.430238 269.037774 
L 130.515314 268.403813 
L 131.600389 268.007587 
L 132.685464 267.769851 
L 134.855615 266.898154 
L 139.195916 265.366081 
L 140.280992 264.784949 
L 141.366067 264.679289 
L 143.536218 263.649101 
L 144.621293 263.649101 
L 145.706368 263.01514 
L 147.876519 262.486839 
L 148.961595 262.011367 
L 150.04667 261.377406 
L 152.216821 260.901935 
L 153.301896 260.584954 
L 154.386971 260.083068 
L 156.557122 259.422691 
L 157.642197 258.89439 
L 158.727273 258.7359 
L 159.812348 258.286843 
L 160.897423 258.075523 
L 161.982499 257.494392 
L 165.237725 256.543449 
L 166.3228 256.094393 
L 167.407876 255.962318 
L 168.492951 255.434017 
L 169.578026 255.090621 
L 170.663102 254.905715 
L 171.748177 254.456659 
L 172.833252 254.245339 
L 175.003403 253.452887 
L 177.173554 252.871755 
L 179.343704 252.000058 
L 180.42878 252.052888 
L 181.513855 251.418927 
L 182.59893 251.154776 
L 183.684006 251.049116 
L 186.939232 249.754778 
L 189.109383 249.226477 
L 190.194458 249.094401 
L 191.279533 248.539685 
L 192.364609 248.35478 
L 193.449684 247.932138 
L 194.534759 247.720818 
L 195.619835 247.271762 
L 199.960136 246.215159 
L 201.045211 245.660443 
L 202.130287 245.581198 
L 203.215362 245.237802 
L 204.300438 245.052897 
L 205.385513 244.60384 
L 208.640739 243.864219 
L 209.725814 243.362332 
L 210.81089 243.309502 
L 211.895965 242.754786 
L 212.98104 242.596296 
L 214.066116 242.20007 
L 215.151191 242.120824 
L 219.491492 240.984977 
L 220.576568 240.509506 
L 221.661643 240.667996 
L 222.746719 240.245355 
L 223.831794 239.611393 
L 224.916869 239.426488 
L 226.001945 238.977432 
L 228.172095 238.924602 
L 229.257171 238.34347 
L 230.342246 238.211395 
L 231.427321 237.867999 
L 232.512397 237.894414 
L 233.597472 237.418943 
L 234.682547 237.286868 
L 235.767623 236.864227 
L 237.937773 236.362341 
L 242.278075 235.305738 
L 244.448226 234.751022 
L 246.618376 234.434041 
L 247.703452 233.95857 
L 250.958678 233.245363 
L 252.043753 232.664232 
L 253.128828 232.875552 
L 254.213904 232.452911 
L 256.384054 232.13593 
L 257.46913 231.607629 
L 258.554205 231.713289 
L 259.639281 231.264233 
L 260.724356 231.000083 
L 262.894507 230.868007 
L 263.979582 230.339706 
L 266.149733 229.969895 
L 267.234808 230.04914 
L 268.319883 229.468009 
L 269.404959 229.230273 
L 270.490034 228.834047 
L 272.660185 228.701972 
L 274.830335 227.988765 
L 275.915411 227.988765 
L 279.170637 226.958578 
L 282.425863 226.562352 
L 284.596014 225.849145 
L 285.681089 225.82273 
L 290.02139 224.792543 
L 291.106466 224.871788 
L 292.191541 224.422732 
L 296.531842 223.656695 
L 297.616918 223.313299 
L 298.701993 223.445374 
L 299.787069 223.022733 
L 300.872144 222.917073 
L 304.12737 222.256696 
L 305.212445 221.834055 
L 306.297521 221.939716 
L 309.552747 221.015188 
L 311.722897 220.856698 
L 312.807973 220.513302 
L 313.893048 220.566132 
L 314.978123 220.090661 
L 317.148274 219.72085 
L 318.23335 219.694435 
L 321.488576 219.007644 
L 322.573651 218.769908 
L 323.658726 218.717078 
L 324.743802 218.347267 
L 325.828877 218.294437 
L 330.169178 217.554815 
L 331.254254 217.052929 
L 333.424404 217.132174 
L 335.594555 216.524628 
L 336.679631 216.498213 
L 337.764706 216.022741 
L 339.934857 215.917081 
L 342.105007 215.44161 
L 344.275158 215.045384 
L 345.360233 214.939724 
L 346.445309 214.701988 
L 347.530384 214.622743 
L 348.615459 214.675573 
L 350.78561 213.803876 
L 351.870685 213.724631 
L 352.955761 213.856706 
L 356.210987 213.24916 
L 357.296062 213.222745 
L 358.381138 213.011424 
L 360.551288 212.430293 
L 361.636364 212.218972 
L 362.721439 212.298217 
L 363.806514 212.166142 
L 364.89159 211.717086 
L 365.976665 211.585011 
L 367.06174 211.611426 
L 368.146816 211.47935 
L 369.231891 210.977464 
L 370.316966 211.10954 
L 372.487117 210.475578 
L 373.572193 210.528408 
L 375.742343 210.290673 
L 376.827419 209.973692 
L 377.912494 209.841617 
L 378.997569 209.841617 
L 380.082645 209.603881 
L 381.16772 209.577466 
L 382.252795 209.101995 
L 384.422946 208.943504 
L 385.508021 208.705769 
L 386.593097 208.679354 
L 388.763247 208.335958 
L 389.848323 208.283128 
L 392.018474 207.781242 
L 394.188624 207.543506 
L 395.2737 207.14728 
L 396.358775 207.25294 
L 397.44385 207.015205 
L 398.528926 207.015205 
L 398.528926 207.015205 
" style="fill:none;stroke:#a1c9f4;stroke-linecap:round;stroke-width:1.5;"/>
   </g>
   <g id="line2d_2">
    <path clip-path="url(#pe5755da823)" d="M 121.834711 290.539636 
L 125.089937 289.271713 
L 126.175012 288.637752 
L 127.260088 288.215111 
L 128.345163 287.581149 
L 129.430238 287.369829 
L 130.515314 286.418886 
L 133.77054 285.362284 
L 135.94069 284.200021 
L 137.025766 283.67172 
L 139.195916 283.037758 
L 140.280992 282.086816 
L 141.366067 281.981156 
L 143.536218 280.607572 
L 144.621293 280.924553 
L 145.706368 280.184931 
L 147.876519 279.55097 
L 148.961595 279.022669 
L 150.04667 277.966066 
L 151.131745 277.966066 
L 152.216821 277.649085 
L 153.301896 277.015124 
L 154.386971 276.592483 
L 155.472047 276.381162 
L 156.557122 275.64154 
L 157.642197 275.218899 
L 158.727273 275.007579 
L 159.812348 274.373617 
L 160.897423 274.056637 
L 163.067574 273.000034 
L 165.237725 272.260412 
L 166.3228 271.732111 
L 167.407876 271.732111 
L 168.492951 270.886829 
L 170.663102 270.464188 
L 171.748177 269.830226 
L 172.833252 269.724566 
L 173.918328 269.301925 
L 175.003403 268.562303 
L 176.088478 268.350983 
L 177.173554 267.822682 
L 178.258629 267.611361 
L 179.343704 266.766079 
L 180.42878 266.871739 
L 181.513855 266.026457 
L 183.684006 265.709476 
L 184.769081 265.181175 
L 185.854157 264.864194 
L 186.939232 264.124573 
L 189.109383 263.384951 
L 190.194458 263.384951 
L 191.279533 262.645329 
L 192.364609 262.645329 
L 193.449684 262.011367 
L 194.534759 261.694387 
L 195.619835 261.060425 
L 196.70491 260.849105 
L 197.789985 260.320803 
L 198.875061 260.003823 
L 199.960136 260.003823 
L 201.045211 259.158541 
L 202.130287 259.05288 
L 203.215362 258.630239 
L 204.300438 258.524579 
L 205.385513 257.996278 
L 208.640739 257.150996 
L 209.725814 256.517034 
L 210.81089 256.517034 
L 211.895965 255.777412 
L 212.98104 255.566092 
L 214.066116 254.93213 
L 215.151191 255.143451 
L 217.321342 254.298169 
L 218.406417 254.403829 
L 220.576568 253.030246 
L 221.661643 253.558547 
L 222.746719 253.135906 
L 223.831794 251.973643 
L 224.916869 251.867983 
L 226.001945 251.339682 
L 228.172095 251.234021 
L 229.257171 250.70572 
L 230.342246 250.4944 
L 231.427321 250.071759 
L 232.512397 249.966098 
L 233.597472 249.437797 
L 234.682547 249.543457 
L 235.767623 248.803836 
L 239.022849 247.958554 
L 240.107924 247.747233 
L 242.278075 246.901951 
L 243.36315 246.69063 
L 244.448226 246.162329 
L 245.533301 246.267989 
L 246.618376 245.951009 
L 247.703452 245.317047 
L 249.873602 244.788746 
L 250.958678 244.471765 
L 252.043753 243.732143 
L 253.128828 244.260445 
L 254.213904 243.520823 
L 255.298979 243.309502 
L 256.384054 243.520823 
L 257.46913 242.569881 
L 258.554205 242.569881 
L 260.724356 241.724599 
L 261.809431 241.830259 
L 262.894507 241.618938 
L 263.979582 240.879316 
L 265.064657 240.984977 
L 266.149733 240.667996 
L 267.234808 240.773656 
L 268.319883 240.034034 
L 269.404959 239.822714 
L 270.490034 239.188752 
L 271.575109 239.400073 
L 272.660185 239.294413 
L 273.74526 238.660451 
L 274.830335 238.23781 
L 275.915411 238.34347 
L 277.000486 237.815169 
L 279.170637 237.075547 
L 280.255712 237.075547 
L 281.340788 236.864227 
L 283.510938 236.124605 
L 286.766164 235.279323 
L 290.02139 234.645361 
L 291.106466 234.751022 
L 292.191541 234.11706 
L 294.361692 233.588759 
L 295.446767 233.588759 
L 297.616918 232.849137 
L 298.701993 232.954797 
L 299.787069 232.320836 
L 301.957219 232.109515 
L 303.042295 231.581214 
L 305.212445 231.158573 
L 306.297521 231.158573 
L 307.382596 230.630272 
L 308.467671 230.630272 
L 309.552747 229.99631 
L 311.722897 229.99631 
L 312.807973 229.468009 
L 313.893048 229.679329 
L 314.978123 228.834047 
L 318.23335 228.622727 
L 319.318425 228.200086 
L 320.4035 228.094426 
L 322.573651 227.354804 
L 323.658726 227.460464 
L 324.743802 226.932163 
L 326.913952 226.720842 
L 329.084103 226.192541 
L 330.169178 226.086881 
L 331.254254 225.347259 
L 332.339329 225.558579 
L 334.50948 225.452919 
L 335.594555 224.924618 
L 336.679631 224.924618 
L 337.764706 224.079336 
L 339.934857 224.290656 
L 341.019932 223.762355 
L 342.105007 223.656695 
L 344.275158 223.128394 
L 346.445309 222.811413 
L 348.615459 222.705753 
L 351.870685 221.43783 
L 352.955761 221.860471 
L 355.125912 221.332169 
L 356.210987 221.015188 
L 357.296062 220.909528 
L 361.636364 219.747265 
L 362.721439 220.064246 
L 365.976665 219.007644 
L 368.146816 219.007644 
L 369.231891 218.373682 
L 370.316966 218.479342 
L 371.402042 218.162362 
L 372.487117 217.63406 
L 374.657268 217.739721 
L 375.742343 217.739721 
L 377.912494 216.894439 
L 378.997569 217.105759 
L 380.082645 216.788778 
L 381.16772 216.788778 
L 383.337871 215.943496 
L 384.422946 215.837836 
L 385.508021 215.520855 
L 386.593097 215.837836 
L 388.763247 215.203874 
L 389.848323 215.203874 
L 390.933398 214.886894 
L 392.018474 214.781233 
L 393.103549 214.358592 
L 394.188624 214.464253 
L 395.2737 213.935951 
L 396.358775 214.147272 
L 397.44385 213.724631 
L 398.528926 213.724631 
L 398.528926 213.724631 
" style="fill:none;stroke:#ffb482;stroke-dasharray:6,2.25;stroke-dashoffset:0;stroke-width:1.5;"/>
   </g>
   <g id="line2d_3">
    <path clip-path="url(#pe5755da823)" d="M 121.834711 179.279388 
L 122.919786 178.962407 
L 124.004861 179.068067 
L 125.089937 178.856747 
L 126.175012 178.328445 
L 129.430238 178.011465 
L 130.515314 177.588824 
L 133.77054 177.483163 
L 135.94069 176.637881 
L 138.110841 176.637881 
L 141.366067 176.10958 
L 142.451142 176.10958 
L 143.536218 175.475619 
L 144.621293 175.89826 
L 150.04667 174.841657 
L 151.131745 174.841657 
L 154.386971 174.313356 
L 155.472047 174.207695 
L 156.557122 173.573734 
L 157.642197 173.785054 
L 160.897423 173.468074 
L 161.982499 173.151093 
L 163.067574 173.256753 
L 164.152649 172.834112 
L 165.237725 172.834112 
L 166.3228 172.517131 
L 167.407876 172.517131 
L 168.492951 172.09449 
L 169.578026 172.517131 
L 171.748177 171.77751 
L 172.833252 172.200151 
L 173.918328 171.98883 
L 175.003403 171.460529 
L 178.258629 171.249208 
L 179.343704 170.826567 
L 180.42878 171.037888 
L 181.513855 170.298266 
L 182.59893 170.509587 
L 184.769081 170.192606 
L 185.854157 170.192606 
L 188.024307 169.664305 
L 189.109383 169.981285 
L 191.279533 169.241663 
L 192.364609 169.452984 
L 194.534759 169.136003 
L 195.619835 169.030343 
L 196.70491 168.713362 
L 199.960136 168.924683 
L 201.045211 168.185061 
L 202.130287 167.97374 
L 203.215362 168.396381 
L 205.385513 167.97374 
L 206.470588 167.97374 
L 207.555664 167.76242 
L 208.640739 167.76242 
L 209.725814 167.445439 
L 210.81089 167.445439 
L 212.98104 166.917138 
L 214.066116 166.811478 
L 215.151191 167.339779 
L 217.321342 166.705817 
L 218.406417 166.917138 
L 219.491492 166.917138 
L 220.576568 166.177516 
L 221.661643 166.811478 
L 222.746719 166.388837 
L 226.001945 165.649215 
L 228.172095 166.177516 
L 229.257171 165.649215 
L 230.342246 165.649215 
L 231.427321 165.437894 
L 232.512397 165.649215 
L 233.597472 165.332234 
L 234.682547 165.226574 
L 235.767623 164.803933 
L 236.852698 165.120914 
L 237.937773 164.698273 
L 239.022849 164.486952 
L 240.107924 164.486952 
L 241.193 164.803933 
L 242.278075 164.381292 
L 243.36315 164.169971 
L 244.448226 164.275632 
L 245.533301 164.064311 
L 246.618376 164.169971 
L 247.703452 163.430349 
L 249.873602 163.74733 
L 252.043753 163.113369 
L 253.128828 163.53601 
L 254.213904 163.219029 
L 255.298979 163.113369 
L 256.384054 163.430349 
L 257.46913 162.690728 
L 258.554205 162.902048 
L 259.639281 162.796388 
L 260.724356 162.902048 
L 261.809431 162.690728 
L 262.894507 162.690728 
L 263.979582 162.373747 
L 265.064657 162.373747 
L 266.149733 162.585067 
L 268.319883 162.056766 
L 269.404959 162.268087 
L 270.490034 161.951106 
L 272.660185 161.634125 
L 273.74526 161.317144 
L 275.915411 161.634125 
L 277.000486 161.528465 
L 278.085561 161.634125 
L 279.170637 161.105824 
L 280.255712 161.317144 
L 281.340788 160.894503 
L 283.510938 160.577523 
L 284.596014 160.788843 
L 285.681089 160.788843 
L 287.85124 160.471862 
L 290.02139 160.366202 
L 292.191541 160.260542 
L 294.361692 159.837901 
L 296.531842 160.154882 
L 298.701993 159.62658 
L 299.787069 159.41526 
L 303.042295 159.62658 
L 309.552747 159.098279 
L 310.637822 159.203939 
L 312.807973 158.781298 
L 313.893048 158.781298 
L 316.063199 158.464317 
L 317.148274 158.781298 
L 318.23335 158.675638 
L 319.318425 158.252997 
L 320.4035 158.569978 
L 324.743802 158.041676 
L 325.828877 157.830356 
L 327.999028 158.041676 
L 329.084103 157.724696 
L 330.169178 157.724696 
L 331.254254 157.513375 
L 332.339329 157.830356 
L 333.424404 157.936016 
L 335.594555 157.513375 
L 336.679631 157.724696 
L 337.764706 156.985074 
L 339.934857 157.302055 
L 341.019932 157.090734 
L 342.105007 157.090734 
L 343.190083 157.302055 
L 347.530384 156.985074 
L 348.615459 156.985074 
L 351.870685 156.351112 
L 352.955761 156.668093 
L 354.040836 156.668093 
L 355.125912 156.456773 
L 356.210987 156.668093 
L 357.296062 156.456773 
L 358.381138 156.034132 
L 359.466213 156.139792 
L 360.551288 155.928471 
L 362.721439 156.245452 
L 364.89159 155.717151 
L 365.976665 155.611491 
L 367.06174 155.928471 
L 368.146816 155.928471 
L 369.231891 155.717151 
L 370.316966 155.717151 
L 373.572193 155.18885 
L 374.657268 155.50583 
L 375.742343 155.611491 
L 377.912494 155.18885 
L 381.16772 155.18885 
L 383.337871 154.871869 
L 384.422946 154.977529 
L 385.508021 154.554888 
L 386.593097 154.977529 
L 389.848323 154.660548 
L 390.933398 154.871869 
L 392.018474 154.660548 
L 393.103549 154.237907 
L 395.2737 154.132247 
L 396.358775 154.449228 
L 397.44385 154.132247 
L 398.528926 154.026587 
L 398.528926 154.026587 
" style="fill:none;stroke:#8de5a1;stroke-dasharray:1.5,1.5;stroke-dashoffset:0;stroke-width:1.5;"/>
   </g>
   <g id="line2d_4">
    <path clip-path="url(#pe5755da823)" d="M 121.834711 88.834209 
L 122.919786 88.93987 
L 124.004861 89.573831 
L 125.089937 89.15119 
L 126.175012 89.362511 
L 127.260088 88.93987 
L 128.345163 89.573831 
L 129.430238 89.362511 
L 131.600389 89.468171 
L 132.685464 90.102132 
L 133.77054 90.313453 
L 134.855615 89.890812 
L 135.94069 89.679491 
L 137.025766 90.102132 
L 138.110841 90.102132 
L 139.195916 90.630434 
L 140.280992 90.630434 
L 141.366067 90.419113 
L 142.451142 90.841754 
L 143.536218 90.630434 
L 144.621293 91.158735 
L 145.706368 90.947414 
L 146.791444 91.264395 
L 147.876519 90.947414 
L 153.301896 91.475716 
L 154.386971 91.898357 
L 155.472047 91.687036 
L 156.557122 91.687036 
L 157.642197 92.004017 
L 158.727273 92.004017 
L 159.812348 92.320998 
L 160.897423 92.109677 
L 163.067574 92.426658 
L 164.152649 92.215338 
L 165.237725 92.215338 
L 167.407876 92.743639 
L 169.578026 93.3776 
L 170.663102 92.954959 
L 171.748177 92.743639 
L 172.833252 93.588921 
L 173.918328 93.483261 
L 175.003403 92.954959 
L 178.258629 93.483261 
L 182.59893 93.483261 
L 183.684006 93.905902 
L 184.769081 93.905902 
L 185.854157 94.222882 
L 186.939232 94.222882 
L 188.024307 94.011562 
L 189.109383 94.751184 
L 190.194458 94.645523 
L 191.279533 94.328543 
L 192.364609 94.856844 
L 194.534759 94.962504 
L 195.619835 94.751184 
L 196.70491 94.751184 
L 197.789985 94.962504 
L 198.875061 95.490805 
L 201.045211 95.385145 
L 202.130287 94.962504 
L 203.215362 95.173825 
L 204.300438 95.596466 
L 208.640739 96.019107 
L 209.725814 95.702126 
L 211.895965 96.230427 
L 212.98104 96.019107 
L 214.066116 96.230427 
L 216.236266 96.230427 
L 218.406417 96.758728 
L 219.491492 96.970049 
L 220.576568 96.758728 
L 221.661643 96.758728 
L 223.831794 97.49835 
L 224.916869 97.18137 
L 226.001945 97.075709 
L 228.172095 97.49835 
L 229.257171 97.18137 
L 230.342246 97.709671 
L 231.427321 97.49835 
L 232.512397 97.815331 
L 233.597472 97.49835 
L 234.682547 97.920991 
L 235.767623 97.49835 
L 236.852698 97.920991 
L 239.022849 98.026652 
L 240.107924 98.026652 
L 241.193 98.554953 
L 242.278075 98.343632 
L 243.36315 98.449293 
L 245.533301 98.237972 
L 246.618376 98.660613 
L 247.703452 98.554953 
L 249.873602 98.977594 
L 250.958678 98.977594 
L 252.043753 98.660613 
L 254.213904 99.188914 
L 255.298979 99.400235 
L 256.384054 99.294575 
L 257.46913 98.871934 
L 258.554205 99.294575 
L 259.639281 99.505895 
L 260.724356 100.034196 
L 261.809431 99.611555 
L 266.149733 100.034196 
L 267.234808 99.822876 
L 268.319883 99.822876 
L 269.404959 100.034196 
L 270.490034 99.928536 
L 271.575109 100.139857 
L 273.74526 100.034196 
L 274.830335 100.351177 
L 277.000486 100.351177 
L 278.085561 100.773818 
L 279.170637 100.562498 
L 280.255712 100.879478 
L 281.340788 100.562498 
L 282.425863 100.562498 
L 283.510938 101.090799 
L 284.596014 100.668158 
L 285.681089 101.090799 
L 286.766164 101.196459 
L 288.936315 101.090799 
L 290.02139 101.302119 
L 291.106466 101.090799 
L 292.191541 101.6191 
L 293.276616 101.302119 
L 294.361692 101.40778 
L 295.446767 101.830421 
L 297.616918 102.041741 
L 298.701993 101.40778 
L 299.787069 101.6191 
L 300.872144 102.253062 
L 301.957219 102.041741 
L 303.042295 102.358722 
L 304.12737 101.936081 
L 305.212445 102.570043 
L 306.297521 101.936081 
L 308.467671 102.781363 
L 309.552747 102.570043 
L 310.637822 102.147401 
L 311.722897 102.675703 
L 312.807973 102.570043 
L 313.893048 102.781363 
L 316.063199 102.464382 
L 317.148274 102.887023 
L 318.23335 103.098344 
L 319.318425 102.675703 
L 320.4035 103.204004 
L 323.658726 103.309664 
L 324.743802 103.415325 
L 325.828877 103.098344 
L 327.999028 103.626645 
L 329.084103 103.520985 
L 330.169178 103.626645 
L 331.254254 103.204004 
L 332.339329 103.943626 
L 333.424404 104.154946 
L 334.50948 104.154946 
L 335.594555 103.943626 
L 337.764706 104.049286 
L 341.019932 104.260607 
L 342.105007 104.683248 
L 344.275158 104.683248 
L 345.360233 104.894568 
L 346.445309 104.683248 
L 347.530384 105.000228 
L 348.615459 104.683248 
L 349.700535 105.000228 
L 350.78561 105.000228 
L 351.870685 104.683248 
L 352.955761 105.000228 
L 356.210987 105.000228 
L 357.296062 105.422869 
L 358.381138 105.000228 
L 359.466213 105.105889 
L 360.551288 105.000228 
L 361.636364 105.63419 
L 363.806514 105.211549 
L 364.89159 105.63419 
L 365.976665 105.105889 
L 367.06174 106.162491 
L 368.146816 105.73985 
L 369.231891 106.056831 
L 371.402042 105.951171 
L 372.487117 105.951171 
L 373.572193 106.162491 
L 374.657268 105.84551 
L 375.742343 106.268151 
L 376.827419 106.056831 
L 378.997569 106.585132 
L 380.082645 106.479472 
L 381.16772 106.690792 
L 382.252795 106.690792 
L 383.337871 106.479472 
L 386.593097 106.585132 
L 387.678172 106.902113 
L 388.763247 107.007773 
L 389.848323 106.796453 
L 392.018474 107.007773 
L 393.103549 106.796453 
L 394.188624 107.007773 
L 395.2737 106.902113 
L 396.358775 107.430414 
L 397.44385 107.007773 
L 398.528926 107.324754 
L 398.528926 107.324754 
" style="fill:none;stroke:#ff9f9b;stroke-dasharray:4.5,1.875,2.25,1.875;stroke-dashoffset:0;stroke-width:1.5;"/>
   </g>
   <g id="line2d_5">
    <path clip-path="url(#pe5755da823)" d="M 121.834711 53.332364 
L 122.919786 53.543684 
L 124.004861 53.966325 
L 125.089937 53.649344 
L 126.175012 54.071985 
L 127.260088 53.649344 
L 128.345163 54.177646 
L 130.515314 54.705947 
L 134.855615 55.445569 
L 137.025766 55.76255 
L 138.110841 55.97387 
L 139.195916 56.924812 
L 140.280992 56.502171 
L 141.366067 56.502171 
L 142.451142 57.241793 
L 143.536218 57.030473 
L 144.621293 57.770094 
L 145.706368 57.558774 
L 146.791444 57.770094 
L 147.876519 57.453114 
L 148.961595 58.298396 
L 150.04667 58.404056 
L 151.131745 58.721037 
L 152.216821 58.721037 
L 153.301896 58.509716 
L 154.386971 59.249338 
L 155.472047 59.249338 
L 156.557122 59.460658 
L 157.642197 59.98896 
L 159.812348 60.30594 
L 161.982499 60.622921 
L 163.067574 60.728581 
L 164.152649 60.517261 
L 165.237725 60.939902 
L 166.3228 60.939902 
L 167.407876 61.151223 
L 169.578026 62.313485 
L 170.663102 61.785184 
L 171.748177 62.207825 
L 172.833252 62.207825 
L 173.918328 62.524806 
L 175.003403 62.313485 
L 178.258629 63.158767 
L 179.343704 63.053107 
L 181.513855 63.370088 
L 182.59893 63.370088 
L 183.684006 63.898389 
L 185.854157 64.32103 
L 188.024307 64.42669 
L 189.109383 65.271972 
L 190.194458 64.954992 
L 192.364609 65.166312 
L 193.449684 65.800274 
L 194.534759 65.588953 
L 195.619835 65.588953 
L 198.875061 66.434235 
L 199.960136 66.328575 
L 201.045211 66.856876 
L 202.130287 66.328575 
L 203.215362 66.856876 
L 206.470588 67.490838 
L 207.555664 67.913479 
L 208.640739 67.702158 
L 209.725814 68.124799 
L 210.81089 68.124799 
L 212.98104 68.44178 
L 215.151191 68.44178 
L 218.406417 69.287062 
L 219.491492 69.921024 
L 220.576568 69.604043 
L 221.661643 69.498383 
L 223.831794 70.449325 
L 224.916869 69.921024 
L 227.08702 70.449325 
L 228.172095 70.766306 
L 229.257171 70.660645 
L 230.342246 70.977626 
L 231.427321 70.766306 
L 232.512397 71.294607 
L 233.597472 71.083286 
L 234.682547 71.717248 
L 235.767623 71.505928 
L 236.852698 72.139889 
L 237.937773 71.822908 
L 239.022849 72.245549 
L 240.107924 71.822908 
L 241.193 72.56253 
L 243.36315 72.56253 
L 244.448226 72.985171 
L 245.533301 72.56253 
L 246.618376 72.985171 
L 248.788527 73.090831 
L 249.873602 73.724793 
L 253.128828 73.619133 
L 254.213904 74.147434 
L 255.298979 74.253094 
L 256.384054 74.781395 
L 257.46913 74.041774 
L 258.554205 74.358754 
L 259.639281 74.992716 
L 260.724356 75.309697 
L 261.809431 74.992716 
L 262.894507 74.992716 
L 265.064657 75.521017 
L 267.234808 75.204036 
L 269.404959 75.943658 
L 271.575109 76.260639 
L 272.660185 76.260639 
L 273.74526 75.837998 
L 274.830335 76.68328 
L 275.915411 76.57762 
L 278.085561 76.894601 
L 279.170637 77.317242 
L 280.255712 77.528562 
L 281.340788 77.105921 
L 282.425863 77.317242 
L 283.510938 77.845543 
L 284.596014 77.634222 
L 285.681089 77.951203 
L 286.766164 77.951203 
L 287.85124 78.162524 
L 288.936315 78.162524 
L 290.02139 78.585165 
L 294.361692 78.690825 
L 295.446767 78.902145 
L 297.616918 79.747427 
L 298.701993 79.113466 
L 300.872144 79.430447 
L 301.957219 79.853088 
L 304.12737 79.853088 
L 305.212445 80.170068 
L 306.297521 79.958748 
L 307.382596 80.487049 
L 308.467671 80.69837 
L 309.552747 80.381389 
L 310.637822 80.381389 
L 311.722897 80.90969 
L 312.807973 80.69837 
L 313.893048 81.121011 
L 314.978123 81.121011 
L 316.063199 80.69837 
L 317.148274 81.437991 
L 318.23335 81.649312 
L 319.318425 81.332331 
L 320.4035 81.860633 
L 321.488576 81.754972 
L 322.573651 81.966293 
L 323.658726 81.649312 
L 324.743802 82.177613 
L 325.828877 82.071953 
L 326.913952 82.388934 
L 331.254254 82.705915 
L 332.339329 83.339876 
L 333.424404 83.445536 
L 334.50948 83.022895 
L 335.594555 83.022895 
L 337.764706 83.551197 
L 341.019932 83.868177 
L 342.105007 84.290818 
L 343.190083 84.185158 
L 344.275158 84.396479 
L 345.360233 84.290818 
L 351.870685 84.92478 
L 352.955761 85.241761 
L 356.210987 85.241761 
L 357.296062 85.558741 
L 358.381138 85.241761 
L 359.466213 85.558741 
L 360.551288 85.347421 
L 361.636364 86.087043 
L 362.721439 85.664402 
L 365.976665 85.875722 
L 367.06174 86.615344 
L 368.146816 86.192703 
L 369.231891 86.932325 
L 370.316966 86.721004 
L 371.402042 87.037985 
L 372.487117 86.826665 
L 373.572193 87.037985 
L 374.657268 86.826665 
L 375.742343 87.354966 
L 377.912494 87.354966 
L 378.997569 87.037985 
L 380.082645 87.777607 
L 382.252795 87.883267 
L 383.337871 87.777607 
L 384.422946 87.988927 
L 385.508021 87.671947 
L 386.593097 88.094588 
L 390.933398 88.411568 
L 392.018474 88.834209 
L 393.103549 88.305908 
L 394.188624 88.834209 
L 395.2737 89.04553 
L 397.44385 88.93987 
L 398.528926 89.362511 
L 398.528926 89.362511 
" style="fill:none;stroke:#d0bbff;stroke-dasharray:7.5,1.5,1.5,1.5;stroke-dashoffset:0;stroke-width:1.5;"/>
   </g>
   <g id="line2d_6">
    <path clip-path="url(#pe5755da823)" d="M 121.834711 60.30594 
L 122.919786 60.09462 
L 124.004861 60.622921 
L 125.089937 60.30594 
L 126.175012 60.517261 
L 127.260088 60.517261 
L 128.345163 61.045562 
L 130.515314 61.045562 
L 133.77054 62.207825 
L 135.94069 62.102165 
L 137.025766 62.524806 
L 138.110841 62.419146 
L 139.195916 63.264428 
L 140.280992 63.053107 
L 141.366067 63.053107 
L 142.451142 63.581408 
L 143.536218 63.370088 
L 144.621293 64.10971 
L 145.706368 63.898389 
L 146.791444 64.32103 
L 147.876519 63.898389 
L 148.961595 64.32103 
L 150.04667 65.060652 
L 151.131745 65.166312 
L 152.216821 64.849331 
L 153.301896 64.743671 
L 154.386971 65.588953 
L 156.557122 65.588953 
L 157.642197 66.539896 
L 158.727273 66.117255 
L 159.812348 66.328575 
L 160.897423 66.222915 
L 163.067574 67.068197 
L 164.152649 66.645556 
L 165.237725 66.751216 
L 166.3228 67.173857 
L 167.407876 67.068197 
L 169.578026 68.23046 
L 170.663102 67.702158 
L 171.748177 68.23046 
L 172.833252 68.23046 
L 173.918328 68.44178 
L 175.003403 68.44178 
L 179.343704 69.287062 
L 180.42878 69.181402 
L 183.684006 69.921024 
L 185.854157 70.449325 
L 186.939232 70.238004 
L 188.024307 70.660645 
L 190.194458 71.083286 
L 192.364609 70.977626 
L 194.534759 71.505928 
L 195.619835 71.083286 
L 196.70491 71.717248 
L 198.875061 72.245549 
L 199.960136 72.034229 
L 201.045211 72.56253 
L 202.130287 72.45687 
L 205.385513 72.773851 
L 206.470588 73.302152 
L 207.555664 73.513472 
L 208.640739 73.513472 
L 209.725814 73.302152 
L 210.81089 73.724793 
L 211.895965 73.936113 
L 214.066116 73.830453 
L 216.236266 74.358754 
L 219.491492 75.098376 
L 220.576568 74.675735 
L 222.746719 75.415357 
L 223.831794 75.626677 
L 226.001945 75.309697 
L 227.08702 75.626677 
L 228.172095 76.154979 
L 232.512397 76.57762 
L 234.682547 77.105921 
L 235.767623 76.68328 
L 239.022849 77.211581 
L 240.107924 77.105921 
L 241.193 77.634222 
L 242.278075 77.845543 
L 243.36315 77.634222 
L 244.448226 77.951203 
L 247.703452 78.162524 
L 248.788527 78.162524 
L 250.958678 78.902145 
L 252.043753 78.902145 
L 253.128828 79.113466 
L 254.213904 79.007806 
L 255.298979 79.219126 
L 256.384054 79.958748 
L 257.46913 79.113466 
L 258.554205 79.641767 
L 260.724356 79.958748 
L 261.809431 79.958748 
L 262.894507 80.170068 
L 265.064657 80.275729 
L 266.149733 80.592709 
L 267.234808 80.592709 
L 268.319883 80.90969 
L 269.404959 80.69837 
L 270.490034 80.80403 
L 271.575109 81.121011 
L 272.660185 81.01535 
L 273.74526 81.226671 
L 274.830335 81.649312 
L 275.915411 81.543652 
L 278.085561 82.177613 
L 279.170637 82.283274 
L 280.255712 81.966293 
L 282.425863 82.071953 
L 283.510938 82.705915 
L 284.596014 82.494594 
L 286.766164 82.600254 
L 287.85124 83.234216 
L 291.106466 83.234216 
L 292.191541 83.551197 
L 293.276616 83.339876 
L 295.446767 83.656857 
L 296.531842 84.396479 
L 297.616918 83.762517 
L 301.957219 84.502139 
L 303.042295 84.607799 
L 304.12737 84.185158 
L 305.212445 84.92478 
L 306.297521 84.713459 
L 307.382596 85.03044 
L 309.552747 85.03044 
L 311.722897 85.453081 
L 312.807973 85.241761 
L 313.893048 85.558741 
L 316.063199 85.453081 
L 318.23335 86.192703 
L 319.318425 85.981382 
L 321.488576 86.298363 
L 322.573651 86.826665 
L 323.658726 86.298363 
L 324.743802 86.932325 
L 325.828877 87.037985 
L 326.913952 86.826665 
L 330.169178 87.566286 
L 331.254254 87.354966 
L 332.339329 87.777607 
L 333.424404 87.777607 
L 334.50948 87.566286 
L 335.594555 87.566286 
L 337.764706 87.883267 
L 338.849781 87.883267 
L 339.934857 88.094588 
L 342.105007 88.834209 
L 343.190083 88.411568 
L 345.360233 88.834209 
L 346.445309 88.517229 
L 347.530384 88.622889 
L 348.615459 88.93987 
L 349.700535 88.93987 
L 352.955761 89.573831 
L 355.125912 89.573831 
L 356.210987 89.362511 
L 357.296062 90.102132 
L 358.381138 89.362511 
L 359.466213 90.102132 
L 360.551288 89.890812 
L 361.636364 90.102132 
L 362.721439 89.890812 
L 365.976665 90.207793 
L 367.06174 90.947414 
L 368.146816 90.313453 
L 370.316966 90.841754 
L 371.402042 91.053075 
L 372.487117 90.524773 
L 373.572193 90.947414 
L 374.657268 90.841754 
L 375.742343 91.264395 
L 383.337871 91.898357 
L 384.422946 91.687036 
L 385.508021 91.898357 
L 386.593097 92.426658 
L 387.678172 92.215338 
L 388.763247 92.426658 
L 390.933398 92.426658 
L 392.018474 92.637979 
L 393.103549 92.215338 
L 395.2737 93.16628 
L 396.358775 92.849299 
L 397.44385 92.954959 
L 398.528926 93.27194 
L 398.528926 93.27194 
" style="fill:none;stroke:#debb9b;stroke-dasharray:4.5,1.875,1.875,1.875,1.875,1.875;stroke-dashoffset:0;stroke-width:1.5;"/>
   </g>
   <g id="line2d_7">
    <path clip-path="url(#pe5755da823)" d="M 121.834711 73.724793 
L 122.919786 73.619133 
L 124.004861 74.570075 
L 125.089937 74.464415 
L 126.175012 74.675735 
L 127.260088 74.570075 
L 129.430238 75.098376 
L 130.515314 75.204036 
L 131.600389 74.781395 
L 132.685464 75.098376 
L 133.77054 75.626677 
L 134.855615 75.521017 
L 135.94069 75.626677 
L 137.025766 76.049318 
L 138.110841 75.837998 
L 139.195916 76.366299 
L 140.280992 76.154979 
L 141.366067 76.47196 
L 143.536218 76.78894 
L 144.621293 77.422902 
L 145.706368 76.894601 
L 146.791444 77.105921 
L 147.876519 77.000261 
L 151.131745 77.951203 
L 152.216821 78.056863 
L 153.301896 77.845543 
L 156.557122 78.373844 
L 157.642197 78.902145 
L 159.812348 78.902145 
L 161.982499 79.219126 
L 163.067574 79.747427 
L 166.3228 79.430447 
L 167.407876 79.641767 
L 168.492951 80.170068 
L 169.578026 80.381389 
L 170.663102 80.170068 
L 173.918328 80.69837 
L 175.003403 80.487049 
L 176.088478 81.226671 
L 177.173554 80.90969 
L 178.258629 80.90969 
L 179.343704 81.437991 
L 181.513855 81.226671 
L 182.59893 81.649312 
L 183.684006 81.649312 
L 184.769081 81.966293 
L 186.939232 81.860633 
L 189.109383 82.494594 
L 190.194458 82.494594 
L 191.279533 82.705915 
L 192.364609 82.705915 
L 194.534759 83.234216 
L 195.619835 82.811575 
L 196.70491 83.656857 
L 197.789985 83.445536 
L 198.875061 83.762517 
L 199.960136 83.445536 
L 201.045211 84.290818 
L 202.130287 83.445536 
L 203.215362 84.185158 
L 205.385513 84.185158 
L 206.470588 84.607799 
L 207.555664 84.502139 
L 208.640739 84.81912 
L 209.725814 84.92478 
L 210.81089 85.241761 
L 211.895965 85.03044 
L 212.98104 85.241761 
L 214.066116 85.1361 
L 215.151191 84.81912 
L 216.236266 85.558741 
L 217.321342 85.453081 
L 218.406417 85.770062 
L 219.491492 86.298363 
L 220.576568 85.770062 
L 222.746719 86.298363 
L 226.001945 86.298363 
L 227.08702 86.826665 
L 230.342246 86.932325 
L 232.512397 87.143645 
L 234.682547 87.777607 
L 235.767623 87.354966 
L 236.852698 87.777607 
L 237.937773 87.566286 
L 239.022849 87.777607 
L 240.107924 87.777607 
L 241.193 88.517229 
L 243.36315 88.094588 
L 244.448226 88.305908 
L 245.533301 88.305908 
L 247.703452 88.622889 
L 248.788527 88.622889 
L 250.958678 89.15119 
L 252.043753 89.04553 
L 255.298979 89.573831 
L 256.384054 90.102132 
L 257.46913 89.362511 
L 258.554205 89.890812 
L 259.639281 90.102132 
L 261.809431 89.890812 
L 262.894507 90.419113 
L 263.979582 90.313453 
L 265.064657 90.524773 
L 266.149733 90.419113 
L 267.234808 90.630434 
L 268.319883 90.207793 
L 269.404959 90.630434 
L 270.490034 90.736094 
L 271.575109 91.053075 
L 272.660185 90.736094 
L 273.74526 91.158735 
L 274.830335 90.947414 
L 275.915411 91.370055 
L 277.000486 91.370055 
L 279.170637 92.004017 
L 280.255712 91.475716 
L 281.340788 91.792696 
L 282.425863 91.687036 
L 283.510938 92.109677 
L 286.766164 92.109677 
L 287.85124 92.637979 
L 288.936315 92.743639 
L 290.02139 92.532318 
L 291.106466 92.743639 
L 292.191541 93.16628 
L 294.361692 93.06062 
L 295.446767 92.954959 
L 296.531842 93.694581 
L 297.616918 93.16628 
L 299.787069 93.3776 
L 300.872144 93.16628 
L 301.957219 93.694581 
L 303.042295 93.800241 
L 304.12737 93.483261 
L 305.212445 93.905902 
L 306.297521 93.694581 
L 308.467671 94.328543 
L 310.637822 94.117222 
L 311.722897 94.434203 
L 312.807973 94.328543 
L 313.893048 94.645523 
L 314.978123 94.328543 
L 316.063199 94.328543 
L 317.148274 94.751184 
L 318.23335 94.962504 
L 319.318425 94.962504 
L 320.4035 95.173825 
L 321.488576 95.173825 
L 322.573651 95.490805 
L 323.658726 95.385145 
L 325.828877 95.702126 
L 326.913952 95.913446 
L 327.999028 95.913446 
L 329.084103 96.124767 
L 332.339329 96.230427 
L 333.424404 96.336087 
L 334.50948 96.230427 
L 335.594555 95.913446 
L 336.679631 96.441748 
L 339.934857 96.336087 
L 341.019932 96.970049 
L 343.190083 97.075709 
L 344.275158 96.970049 
L 346.445309 97.075709 
L 347.530384 97.075709 
L 348.615459 97.28703 
L 349.700535 97.28703 
L 350.78561 97.920991 
L 351.870685 97.604011 
L 354.040836 97.709671 
L 357.296062 98.026652 
L 358.381138 97.604011 
L 359.466213 98.132312 
L 360.551288 98.343632 
L 361.636364 98.237972 
L 362.721439 98.554953 
L 363.806514 98.237972 
L 365.976665 98.554953 
L 367.06174 98.977594 
L 368.146816 98.132312 
L 369.231891 98.766273 
L 371.402042 99.188914 
L 373.572193 98.871934 
L 376.827419 99.083254 
L 377.912494 99.611555 
L 378.997569 99.294575 
L 380.082645 99.822876 
L 381.16772 99.717216 
L 382.252795 100.034196 
L 383.337871 99.611555 
L 384.422946 99.717216 
L 385.508021 99.611555 
L 386.593097 100.034196 
L 387.678172 99.928536 
L 389.848323 100.351177 
L 390.933398 100.351177 
L 392.018474 100.034196 
L 393.103549 100.034196 
L 395.2737 100.773818 
L 396.358775 100.668158 
L 397.44385 101.090799 
L 398.528926 100.879478 
L 398.528926 100.879478 
" style="fill:none;stroke:#fab0e4;stroke-dasharray:6,1.5,6,1.5,1.5,1.5;stroke-dashoffset:0;stroke-width:1.5;"/>
   </g>
   <g id="line2d_8">
    <path clip-path="url(#pe5755da823)" d="M 121.834711 86.932325 
L 122.919786 87.143645 
L 124.004861 87.566286 
L 126.175012 87.671947 
L 127.260088 87.566286 
L 133.77054 88.305908 
L 134.855615 88.517229 
L 135.94069 88.411568 
L 138.110841 88.517229 
L 139.195916 89.04553 
L 140.280992 88.834209 
L 141.366067 88.834209 
L 143.536218 89.15119 
L 144.621293 89.679491 
L 145.706368 89.468171 
L 146.791444 89.468171 
L 147.876519 89.890812 
L 148.961595 89.679491 
L 151.131745 90.419113 
L 152.216821 90.207793 
L 153.301896 90.207793 
L 154.386971 90.524773 
L 156.557122 90.419113 
L 157.642197 90.841754 
L 158.727273 91.053075 
L 160.897423 90.841754 
L 161.982499 91.264395 
L 163.067574 91.475716 
L 164.152649 91.370055 
L 165.237725 91.581376 
L 166.3228 91.581376 
L 167.407876 91.370055 
L 168.492951 91.898357 
L 169.578026 92.215338 
L 170.663102 91.898357 
L 172.833252 92.215338 
L 175.003403 92.320998 
L 176.088478 92.849299 
L 177.173554 92.320998 
L 178.258629 92.637979 
L 180.42878 92.637979 
L 182.59893 93.16628 
L 183.684006 93.16628 
L 185.854157 93.483261 
L 186.939232 93.588921 
L 188.024307 93.905902 
L 189.109383 93.483261 
L 191.279533 94.222882 
L 192.364609 93.800241 
L 193.449684 94.222882 
L 195.619835 94.117222 
L 196.70491 94.645523 
L 197.789985 94.222882 
L 198.875061 94.539863 
L 199.960136 94.539863 
L 201.045211 95.068164 
L 202.130287 94.539863 
L 203.215362 94.962504 
L 205.385513 95.068164 
L 207.555664 95.279485 
L 208.640739 95.596466 
L 211.895965 95.807786 
L 214.066116 95.596466 
L 215.151191 96.019107 
L 216.236266 96.019107 
L 217.321342 96.336087 
L 221.661643 96.441748 
L 222.746719 96.864389 
L 226.001945 96.653068 
L 227.08702 97.28703 
L 228.172095 97.18137 
L 230.342246 97.39269 
L 232.512397 97.28703 
L 233.597472 97.709671 
L 234.682547 97.815331 
L 235.767623 97.604011 
L 239.022849 97.815331 
L 240.107924 97.815331 
L 241.193 98.343632 
L 243.36315 98.237972 
L 244.448226 98.449293 
L 245.533301 98.237972 
L 246.618376 98.554953 
L 247.703452 98.660613 
L 249.873602 98.554953 
L 252.043753 99.083254 
L 253.128828 99.188914 
L 254.213904 98.977594 
L 255.298979 99.188914 
L 256.384054 99.611555 
L 257.46913 99.294575 
L 258.554205 99.611555 
L 259.639281 99.505895 
L 267.234808 100.245517 
L 268.319883 99.928536 
L 269.404959 100.351177 
L 270.490034 100.139857 
L 271.575109 100.773818 
L 272.660185 100.456837 
L 273.74526 100.456837 
L 274.830335 100.668158 
L 275.915411 100.456837 
L 277.000486 100.456837 
L 279.170637 101.196459 
L 280.255712 101.090799 
L 281.340788 101.302119 
L 283.510938 101.302119 
L 284.596014 101.51344 
L 285.681089 101.51344 
L 286.766164 101.302119 
L 288.936315 101.830421 
L 290.02139 101.6191 
L 291.106466 102.147401 
L 292.191541 102.358722 
L 294.361692 102.041741 
L 295.446767 102.041741 
L 296.531842 102.675703 
L 297.616918 102.147401 
L 298.701993 102.253062 
L 299.787069 102.570043 
L 300.872144 102.253062 
L 301.957219 102.781363 
L 303.042295 102.887023 
L 304.12737 102.781363 
L 305.212445 102.992684 
L 306.297521 102.570043 
L 307.382596 102.887023 
L 308.467671 102.887023 
L 309.552747 103.098344 
L 314.978123 103.098344 
L 318.23335 103.626645 
L 321.488576 103.732305 
L 322.573651 103.943626 
L 323.658726 103.415325 
L 324.743802 103.837966 
L 329.084103 104.154946 
L 330.169178 104.577587 
L 331.254254 104.366267 
L 332.339329 104.366267 
L 333.424404 105.000228 
L 335.594555 104.260607 
L 337.764706 105.000228 
L 338.849781 104.683248 
L 341.019932 105.105889 
L 342.105007 105.52853 
L 343.190083 105.105889 
L 345.360233 105.317209 
L 346.445309 105.211549 
L 347.530384 105.52853 
L 348.615459 105.317209 
L 349.700535 105.63419 
L 352.955761 105.84551 
L 358.381138 105.73985 
L 359.466213 106.056831 
L 364.89159 106.585132 
L 365.976665 106.373812 
L 367.06174 106.585132 
L 368.146816 106.479472 
L 370.316966 106.796453 
L 371.402042 107.007773 
L 372.487117 106.585132 
L 373.572193 106.796453 
L 374.657268 106.690792 
L 377.912494 107.324754 
L 378.997569 107.007773 
L 380.082645 107.219094 
L 381.16772 107.219094 
L 382.252795 107.430414 
L 384.422946 107.324754 
L 385.508021 107.641735 
L 386.593097 107.430414 
L 387.678172 107.641735 
L 388.763247 107.536075 
L 397.44385 108.275696 
L 398.528926 108.064376 
L 398.528926 108.064376 
" style="fill:none;stroke:#cfcfcf;stroke-dasharray:4.5,1.875,4.5,1.875,1.875,1.875;stroke-dashoffset:0;stroke-width:1.5;"/>
   </g>
   <g id="line2d_9"/>
   <g id="line2d_10"/>
   <g id="line2d_11"/>
   <g id="line2d_12"/>
   <g id="line2d_13"/>
   <g id="line2d_14"/>
   <g id="line2d_15"/>
   <g id="line2d_16"/>
   <g id="patch_3">
    <path d="M 108 302.4 
L 108 41.472 
" style="fill:none;stroke:#262626;stroke-linecap:square;stroke-linejoin:miter;stroke-width:1.25;"/>
   </g>
   <g id="patch_4">
    <path d="M 108 302.4 
L 412.363636 302.4 
" style="fill:none;stroke:#262626;stroke-linecap:square;stroke-linejoin:miter;stroke-width:1.25;"/>
   </g>
   <g id="text_21">
    <!-- $\it{in}$ $10^{-7}$ -->
    <defs>
     <path d="M 18.3125 75.984375 
L 27.296875 75.984375 
L 25.09375 64.59375 
L 16.109375 64.59375 
z
M 14.203125 54.6875 
L 23.1875 54.6875 
L 12.5 0 
L 3.515625 0 
z
" id="DejaVuSans-Oblique-105"/>
     <path d="M 55.71875 33.015625 
L 49.3125 0 
L 40.28125 0 
L 46.6875 32.671875 
Q 47.125 34.96875 47.359375 36.71875 
Q 47.609375 38.484375 47.609375 39.5 
Q 47.609375 43.609375 45.015625 45.890625 
Q 42.4375 48.1875 37.796875 48.1875 
Q 30.5625 48.1875 25.34375 43.375 
Q 20.125 38.578125 18.5 30.328125 
L 12.5 0 
L 3.515625 0 
L 14.109375 54.6875 
L 23.09375 54.6875 
L 21.296875 46.09375 
Q 25.046875 50.828125 30.3125 53.40625 
Q 35.59375 56 41.40625 56 
Q 48.640625 56 52.609375 52.09375 
Q 56.59375 48.1875 56.59375 41.109375 
Q 56.59375 39.359375 56.375 37.359375 
Q 56.15625 35.359375 55.71875 33.015625 
z
" id="DejaVuSans-Oblique-110"/>
     <path id="DejaVuSans-32"/>
     <path d="M 10.59375 35.5 
L 73.1875 35.5 
L 73.1875 27.203125 
L 10.59375 27.203125 
z
" id="DejaVuSans-8722"/>
    </defs>
    <g style="fill:#262626;" transform="translate(85.172727 21.9024)scale(0.12 -0.12)">
     <use transform="translate(0 0.684375)" xlink:href="#DejaVuSans-Oblique-105"/>
     <use transform="translate(27.783203 0.684375)" xlink:href="#DejaVuSans-Oblique-110"/>
     <use transform="translate(91.162109 0.684375)" xlink:href="#DejaVuSans-32"/>
     <use transform="translate(122.949219 0.684375)" xlink:href="#DejaVuSans-49"/>
     <use transform="translate(186.572266 0.684375)" xlink:href="#DejaVuSans-48"/>
     <use transform="translate(251.152344 38.965625)scale(0.7)" xlink:href="#DejaVuSans-8722"/>
     <use transform="translate(309.804688 38.965625)scale(0.7)" xlink:href="#DejaVuSans-55"/>
    </g>
   </g>
   <g id="legend_1">
    <g id="patch_5">
     <path d="M 115.7 238.16975 
L 185.661719 238.16975 
Q 187.861719 238.16975 187.861719 235.96975 
L 187.861719 107.90225 
Q 187.861719 105.70225 185.661719 105.70225 
L 115.7 105.70225 
Q 113.5 105.70225 113.5 107.90225 
L 113.5 235.96975 
Q 113.5 238.16975 115.7 238.16975 
z
" style="fill:#ffffff;opacity:0.8;stroke:#cccccc;stroke-linejoin:miter;"/>
    </g>
    <g id="line2d_17">
     <path d="M 117.9 114.610531 
L 139.9 114.610531 
" style="fill:none;stroke:#a1c9f4;stroke-linecap:round;stroke-width:1.5;"/>
    </g>
    <g id="line2d_18"/>
    <g id="text_22">
     <!-- 1-step -->
     <defs>
      <path d="M 44.28125 53.078125 
L 44.28125 44.578125 
Q 40.484375 46.53125 36.375 47.5 
Q 32.28125 48.484375 27.875 48.484375 
Q 21.1875 48.484375 17.84375 46.4375 
Q 14.5 44.390625 14.5 40.28125 
Q 14.5 37.15625 16.890625 35.375 
Q 19.28125 33.59375 26.515625 31.984375 
L 29.59375 31.296875 
Q 39.15625 29.25 43.1875 25.515625 
Q 47.21875 21.78125 47.21875 15.09375 
Q 47.21875 7.46875 41.1875 3.015625 
Q 35.15625 -1.421875 24.609375 -1.421875 
Q 20.21875 -1.421875 15.453125 -0.5625 
Q 10.6875 0.296875 5.421875 2 
L 5.421875 11.28125 
Q 10.40625 8.6875 15.234375 7.390625 
Q 20.0625 6.109375 24.8125 6.109375 
Q 31.15625 6.109375 34.5625 8.28125 
Q 37.984375 10.453125 37.984375 14.40625 
Q 37.984375 18.0625 35.515625 20.015625 
Q 33.0625 21.96875 24.703125 23.78125 
L 21.578125 24.515625 
Q 13.234375 26.265625 9.515625 29.90625 
Q 5.8125 33.546875 5.8125 39.890625 
Q 5.8125 47.609375 11.28125 51.796875 
Q 16.75 56 26.8125 56 
Q 31.78125 56 36.171875 55.265625 
Q 40.578125 54.546875 44.28125 53.078125 
z
" id="DejaVuSans-115"/>
      <path d="M 18.3125 70.21875 
L 18.3125 54.6875 
L 36.8125 54.6875 
L 36.8125 47.703125 
L 18.3125 47.703125 
L 18.3125 18.015625 
Q 18.3125 11.328125 20.140625 9.421875 
Q 21.96875 7.515625 27.59375 7.515625 
L 36.8125 7.515625 
L 36.8125 0 
L 27.59375 0 
Q 17.1875 0 13.234375 3.875 
Q 9.28125 7.765625 9.28125 18.015625 
L 9.28125 47.703125 
L 2.6875 47.703125 
L 2.6875 54.6875 
L 9.28125 54.6875 
L 9.28125 70.21875 
z
" id="DejaVuSans-116"/>
      <path d="M 56.203125 29.59375 
L 56.203125 25.203125 
L 14.890625 25.203125 
Q 15.484375 15.921875 20.484375 11.0625 
Q 25.484375 6.203125 34.421875 6.203125 
Q 39.59375 6.203125 44.453125 7.46875 
Q 49.3125 8.734375 54.109375 11.28125 
L 54.109375 2.78125 
Q 49.265625 0.734375 44.1875 -0.34375 
Q 39.109375 -1.421875 33.890625 -1.421875 
Q 20.796875 -1.421875 13.15625 6.1875 
Q 5.515625 13.8125 5.515625 26.8125 
Q 5.515625 40.234375 12.765625 48.109375 
Q 20.015625 56 32.328125 56 
Q 43.359375 56 49.78125 48.890625 
Q 56.203125 41.796875 56.203125 29.59375 
z
M 47.21875 32.234375 
Q 47.125 39.59375 43.09375 43.984375 
Q 39.0625 48.390625 32.421875 48.390625 
Q 24.90625 48.390625 20.390625 44.140625 
Q 15.875 39.890625 15.1875 32.171875 
z
" id="DejaVuSans-101"/>
      <path d="M 18.109375 8.203125 
L 18.109375 -20.796875 
L 9.078125 -20.796875 
L 9.078125 54.6875 
L 18.109375 54.6875 
L 18.109375 46.390625 
Q 20.953125 51.265625 25.265625 53.625 
Q 29.59375 56 35.59375 56 
Q 45.5625 56 51.78125 48.09375 
Q 58.015625 40.1875 58.015625 27.296875 
Q 58.015625 14.40625 51.78125 6.484375 
Q 45.5625 -1.421875 35.59375 -1.421875 
Q 29.59375 -1.421875 25.265625 0.953125 
Q 20.953125 3.328125 18.109375 8.203125 
z
M 48.6875 27.296875 
Q 48.6875 37.203125 44.609375 42.84375 
Q 40.53125 48.484375 33.40625 48.484375 
Q 26.265625 48.484375 22.1875 42.84375 
Q 18.109375 37.203125 18.109375 27.296875 
Q 18.109375 17.390625 22.1875 11.75 
Q 26.265625 6.109375 33.40625 6.109375 
Q 40.53125 6.109375 44.609375 11.75 
Q 48.6875 17.390625 48.6875 27.296875 
z
" id="DejaVuSans-112"/>
     </defs>
     <g style="fill:#262626;" transform="translate(148.7 118.460531)scale(0.11 -0.11)">
      <use xlink:href="#DejaVuSans-49"/>
      <use x="63.623047" xlink:href="#DejaVuSans-45"/>
      <use x="99.707031" xlink:href="#DejaVuSans-115"/>
      <use x="151.806641" xlink:href="#DejaVuSans-116"/>
      <use x="191.015625" xlink:href="#DejaVuSans-101"/>
      <use x="252.539062" xlink:href="#DejaVuSans-112"/>
     </g>
    </g>
    <g id="line2d_19">
     <path d="M 117.9 130.756469 
L 139.9 130.756469 
" style="fill:none;stroke:#ffb482;stroke-dasharray:6,2.25;stroke-dashoffset:0;stroke-width:1.5;"/>
    </g>
    <g id="line2d_20"/>
    <g id="text_23">
     <!-- 2-step -->
     <g style="fill:#262626;" transform="translate(148.7 134.606469)scale(0.11 -0.11)">
      <use xlink:href="#DejaVuSans-50"/>
      <use x="63.623047" xlink:href="#DejaVuSans-45"/>
      <use x="99.707031" xlink:href="#DejaVuSans-115"/>
      <use x="151.806641" xlink:href="#DejaVuSans-116"/>
      <use x="191.015625" xlink:href="#DejaVuSans-101"/>
      <use x="252.539062" xlink:href="#DejaVuSans-112"/>
     </g>
    </g>
    <g id="line2d_21">
     <path d="M 117.9 146.902406 
L 139.9 146.902406 
" style="fill:none;stroke:#8de5a1;stroke-dasharray:1.5,1.5;stroke-dashoffset:0;stroke-width:1.5;"/>
    </g>
    <g id="line2d_22"/>
    <g id="text_24">
     <!-- 3-step -->
     <defs>
      <path d="M 40.578125 39.3125 
Q 47.65625 37.796875 51.625 33 
Q 55.609375 28.21875 55.609375 21.1875 
Q 55.609375 10.40625 48.1875 4.484375 
Q 40.765625 -1.421875 27.09375 -1.421875 
Q 22.515625 -1.421875 17.65625 -0.515625 
Q 12.796875 0.390625 7.625 2.203125 
L 7.625 11.71875 
Q 11.71875 9.328125 16.59375 8.109375 
Q 21.484375 6.890625 26.8125 6.890625 
Q 36.078125 6.890625 40.9375 10.546875 
Q 45.796875 14.203125 45.796875 21.1875 
Q 45.796875 27.640625 41.28125 31.265625 
Q 36.765625 34.90625 28.71875 34.90625 
L 20.21875 34.90625 
L 20.21875 43.015625 
L 29.109375 43.015625 
Q 36.375 43.015625 40.234375 45.921875 
Q 44.09375 48.828125 44.09375 54.296875 
Q 44.09375 59.90625 40.109375 62.90625 
Q 36.140625 65.921875 28.71875 65.921875 
Q 24.65625 65.921875 20.015625 65.03125 
Q 15.375 64.15625 9.8125 62.3125 
L 9.8125 71.09375 
Q 15.4375 72.65625 20.34375 73.4375 
Q 25.25 74.21875 29.59375 74.21875 
Q 40.828125 74.21875 47.359375 69.109375 
Q 53.90625 64.015625 53.90625 55.328125 
Q 53.90625 49.265625 50.4375 45.09375 
Q 46.96875 40.921875 40.578125 39.3125 
z
" id="DejaVuSans-51"/>
     </defs>
     <g style="fill:#262626;" transform="translate(148.7 150.752406)scale(0.11 -0.11)">
      <use xlink:href="#DejaVuSans-51"/>
      <use x="63.623047" xlink:href="#DejaVuSans-45"/>
      <use x="99.707031" xlink:href="#DejaVuSans-115"/>
      <use x="151.806641" xlink:href="#DejaVuSans-116"/>
      <use x="191.015625" xlink:href="#DejaVuSans-101"/>
      <use x="252.539062" xlink:href="#DejaVuSans-112"/>
     </g>
    </g>
    <g id="line2d_23">
     <path d="M 117.9 163.048344 
L 139.9 163.048344 
" style="fill:none;stroke:#ff9f9b;stroke-dasharray:4.5,1.875,2.25,1.875;stroke-dashoffset:0;stroke-width:1.5;"/>
    </g>
    <g id="line2d_24"/>
    <g id="text_25">
     <!-- 4-step -->
     <defs>
      <path d="M 37.796875 64.3125 
L 12.890625 25.390625 
L 37.796875 25.390625 
z
M 35.203125 72.90625 
L 47.609375 72.90625 
L 47.609375 25.390625 
L 58.015625 25.390625 
L 58.015625 17.1875 
L 47.609375 17.1875 
L 47.609375 0 
L 37.796875 0 
L 37.796875 17.1875 
L 4.890625 17.1875 
L 4.890625 26.703125 
z
" id="DejaVuSans-52"/>
     </defs>
     <g style="fill:#262626;" transform="translate(148.7 166.898344)scale(0.11 -0.11)">
      <use xlink:href="#DejaVuSans-52"/>
      <use x="63.623047" xlink:href="#DejaVuSans-45"/>
      <use x="99.707031" xlink:href="#DejaVuSans-115"/>
      <use x="151.806641" xlink:href="#DejaVuSans-116"/>
      <use x="191.015625" xlink:href="#DejaVuSans-101"/>
      <use x="252.539062" xlink:href="#DejaVuSans-112"/>
     </g>
    </g>
    <g id="line2d_25">
     <path d="M 117.9 179.194281 
L 139.9 179.194281 
" style="fill:none;stroke:#d0bbff;stroke-dasharray:7.5,1.5,1.5,1.5;stroke-dashoffset:0;stroke-width:1.5;"/>
    </g>
    <g id="line2d_26"/>
    <g id="text_26">
     <!-- 5-step -->
     <g style="fill:#262626;" transform="translate(148.7 183.044281)scale(0.11 -0.11)">
      <use xlink:href="#DejaVuSans-53"/>
      <use x="63.623047" xlink:href="#DejaVuSans-45"/>
      <use x="99.707031" xlink:href="#DejaVuSans-115"/>
      <use x="151.806641" xlink:href="#DejaVuSans-116"/>
      <use x="191.015625" xlink:href="#DejaVuSans-101"/>
      <use x="252.539062" xlink:href="#DejaVuSans-112"/>
     </g>
    </g>
    <g id="line2d_27">
     <path d="M 117.9 195.340219 
L 139.9 195.340219 
" style="fill:none;stroke:#debb9b;stroke-dasharray:4.5,1.875,1.875,1.875,1.875,1.875;stroke-dashoffset:0;stroke-width:1.5;"/>
    </g>
    <g id="line2d_28"/>
    <g id="text_27">
     <!-- 6-step -->
     <defs>
      <path d="M 33.015625 40.375 
Q 26.375 40.375 22.484375 35.828125 
Q 18.609375 31.296875 18.609375 23.390625 
Q 18.609375 15.53125 22.484375 10.953125 
Q 26.375 6.390625 33.015625 6.390625 
Q 39.65625 6.390625 43.53125 10.953125 
Q 47.40625 15.53125 47.40625 23.390625 
Q 47.40625 31.296875 43.53125 35.828125 
Q 39.65625 40.375 33.015625 40.375 
z
M 52.59375 71.296875 
L 52.59375 62.3125 
Q 48.875 64.0625 45.09375 64.984375 
Q 41.3125 65.921875 37.59375 65.921875 
Q 27.828125 65.921875 22.671875 59.328125 
Q 17.53125 52.734375 16.796875 39.40625 
Q 19.671875 43.65625 24.015625 45.921875 
Q 28.375 48.1875 33.59375 48.1875 
Q 44.578125 48.1875 50.953125 41.515625 
Q 57.328125 34.859375 57.328125 23.390625 
Q 57.328125 12.15625 50.6875 5.359375 
Q 44.046875 -1.421875 33.015625 -1.421875 
Q 20.359375 -1.421875 13.671875 8.265625 
Q 6.984375 17.96875 6.984375 36.375 
Q 6.984375 53.65625 15.1875 63.9375 
Q 23.390625 74.21875 37.203125 74.21875 
Q 40.921875 74.21875 44.703125 73.484375 
Q 48.484375 72.75 52.59375 71.296875 
z
" id="DejaVuSans-54"/>
     </defs>
     <g style="fill:#262626;" transform="translate(148.7 199.190219)scale(0.11 -0.11)">
      <use xlink:href="#DejaVuSans-54"/>
      <use x="63.623047" xlink:href="#DejaVuSans-45"/>
      <use x="99.707031" xlink:href="#DejaVuSans-115"/>
      <use x="151.806641" xlink:href="#DejaVuSans-116"/>
      <use x="191.015625" xlink:href="#DejaVuSans-101"/>
      <use x="252.539062" xlink:href="#DejaVuSans-112"/>
     </g>
    </g>
    <g id="line2d_29">
     <path d="M 117.9 211.486156 
L 139.9 211.486156 
" style="fill:none;stroke:#fab0e4;stroke-dasharray:6,1.5,6,1.5,1.5,1.5;stroke-dashoffset:0;stroke-width:1.5;"/>
    </g>
    <g id="line2d_30"/>
    <g id="text_28">
     <!-- 7-step -->
     <g style="fill:#262626;" transform="translate(148.7 215.336156)scale(0.11 -0.11)">
      <use xlink:href="#DejaVuSans-55"/>
      <use x="63.623047" xlink:href="#DejaVuSans-45"/>
      <use x="99.707031" xlink:href="#DejaVuSans-115"/>
      <use x="151.806641" xlink:href="#DejaVuSans-116"/>
      <use x="191.015625" xlink:href="#DejaVuSans-101"/>
      <use x="252.539062" xlink:href="#DejaVuSans-112"/>
     </g>
    </g>
    <g id="line2d_31">
     <path d="M 117.9 227.632094 
L 139.9 227.632094 
" style="fill:none;stroke:#cfcfcf;stroke-dasharray:4.5,1.875,4.5,1.875,1.875,1.875;stroke-dashoffset:0;stroke-width:1.5;"/>
    </g>
    <g id="line2d_32"/>
    <g id="text_29">
     <!-- 8-step -->
     <defs>
      <path d="M 31.78125 34.625 
Q 24.75 34.625 20.71875 30.859375 
Q 16.703125 27.09375 16.703125 20.515625 
Q 16.703125 13.921875 20.71875 10.15625 
Q 24.75 6.390625 31.78125 6.390625 
Q 38.8125 6.390625 42.859375 10.171875 
Q 46.921875 13.96875 46.921875 20.515625 
Q 46.921875 27.09375 42.890625 30.859375 
Q 38.875 34.625 31.78125 34.625 
z
M 21.921875 38.8125 
Q 15.578125 40.375 12.03125 44.71875 
Q 8.5 49.078125 8.5 55.328125 
Q 8.5 64.0625 14.71875 69.140625 
Q 20.953125 74.21875 31.78125 74.21875 
Q 42.671875 74.21875 48.875 69.140625 
Q 55.078125 64.0625 55.078125 55.328125 
Q 55.078125 49.078125 51.53125 44.71875 
Q 48 40.375 41.703125 38.8125 
Q 48.828125 37.15625 52.796875 32.3125 
Q 56.78125 27.484375 56.78125 20.515625 
Q 56.78125 9.90625 50.3125 4.234375 
Q 43.84375 -1.421875 31.78125 -1.421875 
Q 19.734375 -1.421875 13.25 4.234375 
Q 6.78125 9.90625 6.78125 20.515625 
Q 6.78125 27.484375 10.78125 32.3125 
Q 14.796875 37.15625 21.921875 38.8125 
z
M 18.3125 54.390625 
Q 18.3125 48.734375 21.84375 45.5625 
Q 25.390625 42.390625 31.78125 42.390625 
Q 38.140625 42.390625 41.71875 45.5625 
Q 45.3125 48.734375 45.3125 54.390625 
Q 45.3125 60.0625 41.71875 63.234375 
Q 38.140625 66.40625 31.78125 66.40625 
Q 25.390625 66.40625 21.84375 63.234375 
Q 18.3125 60.0625 18.3125 54.390625 
z
" id="DejaVuSans-56"/>
     </defs>
     <g style="fill:#262626;" transform="translate(148.7 231.482094)scale(0.11 -0.11)">
      <use xlink:href="#DejaVuSans-56"/>
      <use x="63.623047" xlink:href="#DejaVuSans-45"/>
      <use x="99.707031" xlink:href="#DejaVuSans-115"/>
      <use x="151.806641" xlink:href="#DejaVuSans-116"/>
      <use x="191.015625" xlink:href="#DejaVuSans-101"/>
      <use x="252.539062" xlink:href="#DejaVuSans-112"/>
     </g>
    </g>
   </g>
  </g>
  <g id="axes_2">
   <g id="patch_6">
    <path d="M 473.236364 302.4 
L 777.6 302.4 
L 777.6 41.472 
L 473.236364 41.472 
z
" style="fill:#ffffff;"/>
   </g>
   <g id="matplotlib.axis_3">
    <g id="xtick_10">
     <g id="text_30">
      <!-- 0.0 -->
      <g style="fill:#262626;" transform="translate(478.047384 320.258281)scale(0.11 -0.11)">
       <use xlink:href="#DejaVuSans-48"/>
       <use x="63.623047" xlink:href="#DejaVuSans-46"/>
       <use x="95.410156" xlink:href="#DejaVuSans-48"/>
      </g>
     </g>
    </g>
    <g id="xtick_11">
     <g id="text_31">
      <!-- 0.2 -->
      <g style="fill:#262626;" transform="translate(533.441622 320.258281)scale(0.11 -0.11)">
       <use xlink:href="#DejaVuSans-48"/>
       <use x="63.623047" xlink:href="#DejaVuSans-46"/>
       <use x="95.410156" xlink:href="#DejaVuSans-50"/>
      </g>
     </g>
    </g>
    <g id="xtick_12">
     <g id="text_32">
      <!-- 0.4 -->
      <g style="fill:#262626;" transform="translate(588.835859 320.258281)scale(0.11 -0.11)">
       <use xlink:href="#DejaVuSans-48"/>
       <use x="63.623047" xlink:href="#DejaVuSans-46"/>
       <use x="95.410156" xlink:href="#DejaVuSans-52"/>
      </g>
     </g>
    </g>
    <g id="xtick_13">
     <g id="text_33">
      <!-- 0.6 -->
      <g style="fill:#262626;" transform="translate(644.230096 320.258281)scale(0.11 -0.11)">
       <use xlink:href="#DejaVuSans-48"/>
       <use x="63.623047" xlink:href="#DejaVuSans-46"/>
       <use x="95.410156" xlink:href="#DejaVuSans-54"/>
      </g>
     </g>
    </g>
    <g id="xtick_14">
     <g id="text_34">
      <!-- 0.8 -->
      <g style="fill:#262626;" transform="translate(699.624333 320.258281)scale(0.11 -0.11)">
       <use xlink:href="#DejaVuSans-48"/>
       <use x="63.623047" xlink:href="#DejaVuSans-46"/>
       <use x="95.410156" xlink:href="#DejaVuSans-56"/>
      </g>
     </g>
    </g>
    <g id="xtick_15">
     <g id="text_35">
      <!-- 1.0 -->
      <g style="fill:#262626;" transform="translate(755.018571 320.258281)scale(0.11 -0.11)">
       <use xlink:href="#DejaVuSans-49"/>
       <use x="63.623047" xlink:href="#DejaVuSans-46"/>
       <use x="95.410156" xlink:href="#DejaVuSans-48"/>
      </g>
     </g>
    </g>
    <g id="text_36">
     <!-- $h_{0}^{lasso}$ -->
     <defs>
      <path d="M 55.71875 33.015625 
L 49.3125 0 
L 40.28125 0 
L 46.6875 32.671875 
Q 47.125 34.96875 47.359375 36.71875 
Q 47.609375 38.484375 47.609375 39.5 
Q 47.609375 43.609375 45.015625 45.890625 
Q 42.4375 48.1875 37.796875 48.1875 
Q 30.5625 48.1875 25.265625 43.296875 
Q 19.96875 38.421875 18.40625 30.328125 
L 12.5 0 
L 3.515625 0 
L 18.3125 75.984375 
L 27.296875 75.984375 
L 21.484375 46.09375 
Q 24.90625 50.6875 30.21875 53.34375 
Q 35.546875 56 41.40625 56 
Q 48.640625 56 52.609375 52.09375 
Q 56.59375 48.1875 56.59375 41.109375 
Q 56.59375 39.359375 56.375 37.359375 
Q 56.15625 35.359375 55.71875 33.015625 
z
" id="DejaVuSans-Oblique-104"/>
     </defs>
     <g style="fill:#262626;" transform="translate(610.298182 337.585938)scale(0.12 -0.12)">
      <use transform="translate(0 0.529687)" xlink:href="#DejaVuSans-Oblique-104"/>
      <use transform="translate(70.826615 38.810938)scale(0.7)" xlink:href="#DejaVuSans-Oblique-108"/>
      <use transform="translate(90.274857 38.810938)scale(0.7)" xlink:href="#DejaVuSans-Oblique-97"/>
      <use transform="translate(133.170365 38.810938)scale(0.7)" xlink:href="#DejaVuSans-Oblique-115"/>
      <use transform="translate(169.640091 38.810938)scale(0.7)" xlink:href="#DejaVuSans-Oblique-115"/>
      <use transform="translate(206.109818 38.810938)scale(0.7)" xlink:href="#DejaVuSans-Oblique-111"/>
      <use transform="translate(63.378906 -26.814063)scale(0.7)" xlink:href="#DejaVuSans-48"/>
     </g>
    </g>
   </g>
   <g id="matplotlib.axis_4">
    <g id="ytick_10">
     <g id="text_37">
      <!-- 0.5 -->
      <g style="fill:#262626;" transform="translate(446.242926 287.972105)scale(0.11 -0.11)">
       <use xlink:href="#DejaVuSans-48"/>
       <use x="63.623047" xlink:href="#DejaVuSans-46"/>
       <use x="95.410156" xlink:href="#DejaVuSans-53"/>
      </g>
     </g>
    </g>
    <g id="ytick_11">
     <g id="text_38">
      <!-- 1.0 -->
      <g style="fill:#262626;" transform="translate(446.242926 249.326127)scale(0.11 -0.11)">
       <use xlink:href="#DejaVuSans-49"/>
       <use x="63.623047" xlink:href="#DejaVuSans-46"/>
       <use x="95.410156" xlink:href="#DejaVuSans-48"/>
      </g>
     </g>
    </g>
    <g id="ytick_12">
     <g id="text_39">
      <!-- 1.5 -->
      <g style="fill:#262626;" transform="translate(446.242926 210.680149)scale(0.11 -0.11)">
       <use xlink:href="#DejaVuSans-49"/>
       <use x="63.623047" xlink:href="#DejaVuSans-46"/>
       <use x="95.410156" xlink:href="#DejaVuSans-53"/>
      </g>
     </g>
    </g>
    <g id="ytick_13">
     <g id="text_40">
      <!-- 2.0 -->
      <g style="fill:#262626;" transform="translate(446.242926 172.034171)scale(0.11 -0.11)">
       <use xlink:href="#DejaVuSans-50"/>
       <use x="63.623047" xlink:href="#DejaVuSans-46"/>
       <use x="95.410156" xlink:href="#DejaVuSans-48"/>
      </g>
     </g>
    </g>
    <g id="ytick_14">
     <g id="text_41">
      <!-- 2.5 -->
      <g style="fill:#262626;" transform="translate(446.242926 133.388192)scale(0.11 -0.11)">
       <use xlink:href="#DejaVuSans-50"/>
       <use x="63.623047" xlink:href="#DejaVuSans-46"/>
       <use x="95.410156" xlink:href="#DejaVuSans-53"/>
      </g>
     </g>
    </g>
    <g id="ytick_15">
     <g id="text_42">
      <!-- 3.0 -->
      <g style="fill:#262626;" transform="translate(446.242926 94.742214)scale(0.11 -0.11)">
       <use xlink:href="#DejaVuSans-51"/>
       <use x="63.623047" xlink:href="#DejaVuSans-46"/>
       <use x="95.410156" xlink:href="#DejaVuSans-48"/>
      </g>
     </g>
    </g>
    <g id="ytick_16">
     <g id="text_43">
      <!-- 3.5 -->
      <g style="fill:#262626;" transform="translate(446.242926 56.096236)scale(0.11 -0.11)">
       <use xlink:href="#DejaVuSans-51"/>
       <use x="63.623047" xlink:href="#DejaVuSans-46"/>
       <use x="95.410156" xlink:href="#DejaVuSans-53"/>
      </g>
     </g>
    </g>
   </g>
   <g id="line2d_33">
    <path clip-path="url(#p935b4ee33f)" d="M 487.071074 165.161189 
L 501.177054 169.511152 
L 516.368109 173.951439 
L 531.559164 178.160873 
L 547.835294 182.436819 
L 564.111424 186.490086 
L 581.47263 190.586499 
L 599.918911 194.6995 
L 618.365192 198.583154 
L 637.896548 202.460638 
L 657.427905 206.111671 
L 678.044336 209.734931 
L 698.660768 213.138381 
L 720.362275 216.496257 
L 743.148858 219.791517 
L 763.765289 222.58313 
L 763.765289 222.58313 
" style="fill:none;stroke:#a1c9f4;stroke-linecap:round;stroke-width:1.5;"/>
   </g>
   <g id="line2d_34">
    <path clip-path="url(#p935b4ee33f)" d="M 487.071074 53.332364 
L 495.751677 59.958141 
L 504.43228 66.301391 
L 513.112883 72.384052 
L 522.878561 78.936449 
L 532.644239 85.203877 
L 542.409917 91.206062 
L 552.175596 96.960901 
L 563.026349 103.084393 
L 573.877103 108.940175 
L 584.727856 114.545428 
L 595.57861 119.913524 
L 607.514439 125.562627 
L 619.450267 130.957684 
L 631.386096 136.112798 
L 643.321925 141.042159 
L 656.342829 146.174684 
L 669.363734 151.065398 
L 682.384638 155.729171 
L 696.490617 160.538988 
L 710.596597 165.110548 
L 724.702577 169.457085 
L 739.893632 173.90138 
L 755.084686 178.114962 
L 763.765289 180.424502 
L 763.765289 180.424502 
" style="fill:none;stroke:#ffb482;stroke-dasharray:6,2.25;stroke-dashoffset:0;stroke-width:1.5;"/>
   </g>
   <g id="line2d_35">
    <path clip-path="url(#p935b4ee33f)" d="M 487.071074 102.007849 
L 494.666602 108.346753 
L 502.262129 114.395292 
L 509.857657 120.174536 
L 518.53826 126.47519 
L 527.218862 132.476096 
L 535.899465 138.199972 
L 544.580068 143.666225 
L 554.345746 149.530827 
L 564.111424 155.11436 
L 573.877103 160.436869 
L 583.642781 165.51579 
L 594.493534 170.891173 
L 605.344288 176.004202 
L 616.195041 180.871343 
L 627.045795 185.507655 
L 638.981624 190.358176 
L 650.917453 194.962835 
L 662.853281 199.33687 
L 675.874186 203.862804 
L 688.89509 208.147555 
L 701.915994 212.205057 
L 716.021974 216.363067 
L 730.127953 220.288484 
L 745.319008 224.27396 
L 760.510063 228.024696 
L 763.765289 228.799281 
L 763.765289 228.799281 
" style="fill:none;stroke:#8de5a1;stroke-dasharray:1.5,1.5;stroke-dashoffset:0;stroke-width:1.5;"/>
   </g>
   <g id="line2d_36">
    <path clip-path="url(#p935b4ee33f)" d="M 487.071074 164.587413 
L 494.666602 169.918026 
L 502.262129 174.975777 
L 509.857657 179.782986 
L 518.53826 184.995807 
L 527.218862 189.934257 
L 535.899465 194.621271 
L 544.580068 199.076382 
L 554.345746 203.833222 
L 564.111424 208.34108 
L 573.877103 212.61903 
L 584.727856 217.122618 
L 595.57861 221.383207 
L 606.429363 225.418567 
L 618.365192 229.616309 
L 630.301021 233.579133 
L 643.321925 237.654302 
L 656.342829 241.489361 
L 669.363734 245.101058 
L 683.469713 248.78028 
L 697.575693 252.230744 
L 712.766748 255.71414 
L 727.957803 258.972537 
L 744.233933 262.232928 
L 760.510063 265.272717 
L 763.765289 265.855389 
L 763.765289 265.855389 
" style="fill:none;stroke:#ff9f9b;stroke-dasharray:4.5,1.875,2.25,1.875;stroke-dashoffset:0;stroke-width:1.5;"/>
   </g>
   <g id="line2d_37">
    <path clip-path="url(#p935b4ee33f)" d="M 487.071074 200.793918 
L 494.666602 205.229776 
L 502.262129 209.424272 
L 510.942732 213.949542 
L 519.623335 218.214912 
L 528.303938 222.24434 
L 538.069616 226.521369 
L 547.835294 230.550772 
L 558.686048 234.76475 
L 569.536801 238.726039 
L 580.387555 242.456551 
L 592.323384 246.31659 
L 604.259212 249.942324 
L 617.280117 253.653327 
L 630.301021 257.129743 
L 644.407 260.65328 
L 658.51298 263.945197 
L 673.704035 267.252326 
L 688.89509 270.331644 
L 705.17122 273.396568 
L 722.532426 276.426053 
L 739.893632 279.225707 
L 758.339912 281.972282 
L 763.765289 282.737637 
L 763.765289 282.737637 
" style="fill:none;stroke:#d0bbff;stroke-dasharray:7.5,1.5,1.5,1.5;stroke-dashoffset:0;stroke-width:1.5;"/>
   </g>
   <g id="line2d_38">
    <path clip-path="url(#p935b4ee33f)" d="M 487.071074 210.251604 
L 494.666602 214.376836 
L 503.347205 218.81456 
L 512.027807 222.985559 
L 520.70841 226.915322 
L 530.474088 231.075275 
L 540.239767 234.984815 
L 550.005445 238.667258 
L 560.856198 242.51684 
L 571.706952 246.133727 
L 583.642781 249.867716 
L 595.57861 253.36837 
L 608.599514 256.944067 
L 621.620418 260.287989 
L 635.726398 263.671312 
L 649.832377 266.82672 
L 665.023432 269.991947 
L 680.214487 272.936035 
L 696.490617 275.862916 
L 713.851823 278.75078 
L 731.213029 281.417532 
L 749.65931 284.030206 
L 763.765289 285.885912 
L 763.765289 285.885912 
" style="fill:none;stroke:#debb9b;stroke-dasharray:4.5,1.875,1.875,1.875,1.875,1.875;stroke-dashoffset:0;stroke-width:1.5;"/>
   </g>
   <g id="line2d_39">
    <path clip-path="url(#p935b4ee33f)" d="M 487.071074 213.81963 
L 494.666602 217.798472 
L 503.347205 222.08087 
L 512.027807 226.108317 
L 520.70841 229.904577 
L 530.474088 233.924634 
L 540.239767 237.70407 
L 551.09052 241.647858 
L 561.941274 245.347867 
L 572.792027 248.825561 
L 584.727856 252.416854 
L 596.663685 255.784606 
L 609.684589 259.225188 
L 622.705493 262.443097 
L 636.811473 265.699257 
L 650.917453 268.736375 
L 666.108508 271.782902 
L 682.384638 274.811646 
L 698.660768 277.614356 
L 716.021974 280.381129 
L 734.468255 283.088815 
L 753.999611 285.720334 
L 763.765289 286.950874 
L 763.765289 286.950874 
" style="fill:none;stroke:#fab0e4;stroke-dasharray:6,1.5,6,1.5,1.5,1.5;stroke-dashoffset:0;stroke-width:1.5;"/>
   </g>
   <g id="line2d_40">
    <path clip-path="url(#p935b4ee33f)" d="M 487.071074 225.812162 
L 495.751677 229.82474 
L 504.43228 233.589027 
L 513.112883 237.131153 
L 522.878561 240.874091 
L 532.644239 244.387056 
L 543.494993 248.046028 
L 554.345746 251.472011 
L 566.281575 254.998809 
L 578.217404 258.295123 
L 591.238308 261.65312 
L 604.259212 264.785658 
L 618.365192 267.948507 
L 633.556247 271.109451 
L 648.747302 274.040896 
L 665.023432 276.949777 
L 682.384638 279.812738 
L 699.745843 282.448373 
L 718.192124 285.026812 
L 737.723481 287.528803 
L 758.339912 289.941011 
L 763.765289 290.539636 
L 763.765289 290.539636 
" style="fill:none;stroke:#cfcfcf;stroke-dasharray:4.5,1.875,4.5,1.875,1.875,1.875;stroke-dashoffset:0;stroke-width:1.5;"/>
   </g>
   <g id="patch_7">
    <path d="M 473.236364 302.4 
L 473.236364 41.472 
" style="fill:none;stroke:#262626;stroke-linecap:square;stroke-linejoin:miter;stroke-width:1.25;"/>
   </g>
   <g id="patch_8">
    <path d="M 473.236364 302.4 
L 777.6 302.4 
" style="fill:none;stroke:#262626;stroke-linecap:square;stroke-linejoin:miter;stroke-width:1.25;"/>
   </g>
   <g id="text_44">
    <!-- $\it{in}$ $10^{-3}$ -->
    <g style="fill:#262626;" transform="translate(450.409091 21.9024)scale(0.12 -0.12)">
     <use transform="translate(0 0.765625)" xlink:href="#DejaVuSans-Oblique-105"/>
     <use transform="translate(27.783203 0.765625)" xlink:href="#DejaVuSans-Oblique-110"/>
     <use transform="translate(91.162109 0.765625)" xlink:href="#DejaVuSans-32"/>
     <use transform="translate(122.949219 0.765625)" xlink:href="#DejaVuSans-49"/>
     <use transform="translate(186.572266 0.765625)" xlink:href="#DejaVuSans-48"/>
     <use transform="translate(251.152344 39.046875)scale(0.7)" xlink:href="#DejaVuSans-8722"/>
     <use transform="translate(309.804688 39.046875)scale(0.7)" xlink:href="#DejaVuSans-51"/>
    </g>
   </g>
  </g>
 </g>
 <defs>
  <clipPath id="pe5755da823">
   <rect height="260.928" width="304.363636" x="108" y="41.472"/>
  </clipPath>
  <clipPath id="p935b4ee33f">
   <rect height="260.928" width="304.363636" x="473.236364" y="41.472"/>
  </clipPath>
 </defs>
</svg>
