<?xml version="1.0" encoding="utf-8" standalone="no"?>
<!DOCTYPE svg PUBLIC "-//W3C//DTD SVG 1.1//EN"
  "http://www.w3.org/Graphics/SVG/1.1/DTD/svg11.dtd">
<!-- Created with matplotlib (https://matplotlib.org/) -->
<svg height="288pt" version="1.1" viewBox="0 0 432 288" width="432pt" xmlns="http://www.w3.org/2000/svg" xmlns:xlink="http://www.w3.org/1999/xlink">
 <defs>
  <style type="text/css">
*{stroke-linecap:butt;stroke-linejoin:round;}
  </style>
 </defs>
 <g id="figure_1">
  <g id="patch_1">
   <path d="M 0 288 
L 432 288 
L 432 0 
L 0 0 
z
" style="fill:#ffffff;"/>
  </g>
  <g id="axes_1">
   <g id="patch_2">
    <path d="M 54 252 
L 388.8 252 
L 388.8 34.56 
L 54 34.56 
z
" style="fill:#ffffff;"/>
   </g>
   <g id="matplotlib.axis_1">
    <g id="xtick_1">
     <g id="text_1">
      <!-- 1.0 -->
      <defs>
       <path d="M 12.40625 8.296875 
L 28.515625 8.296875 
L 28.515625 63.921875 
L 10.984375 60.40625 
L 10.984375 69.390625 
L 28.421875 72.90625 
L 38.28125 72.90625 
L 38.28125 8.296875 
L 54.390625 8.296875 
L 54.390625 0 
L 12.40625 0 
z
" id="DejaVuSans-49"/>
       <path d="M 10.6875 12.40625 
L 21 12.40625 
L 21 0 
L 10.6875 0 
z
" id="DejaVuSans-46"/>
       <path d="M 31.78125 66.40625 
Q 24.171875 66.40625 20.328125 58.90625 
Q 16.5 51.421875 16.5 36.375 
Q 16.5 21.390625 20.328125 13.890625 
Q 24.171875 6.390625 31.78125 6.390625 
Q 39.453125 6.390625 43.28125 13.890625 
Q 47.125 21.390625 47.125 36.375 
Q 47.125 51.421875 43.28125 58.90625 
Q 39.453125 66.40625 31.78125 66.40625 
z
M 31.78125 74.21875 
Q 44.046875 74.21875 50.515625 64.515625 
Q 56.984375 54.828125 56.984375 36.375 
Q 56.984375 17.96875 50.515625 8.265625 
Q 44.046875 -1.421875 31.78125 -1.421875 
Q 19.53125 -1.421875 13.0625 8.265625 
Q 6.59375 17.96875 6.59375 36.375 
Q 6.59375 54.828125 13.0625 64.515625 
Q 19.53125 74.21875 31.78125 74.21875 
z
" id="DejaVuSans-48"/>
      </defs>
      <g style="fill:#262626;" transform="translate(60.471463 269.858281)scale(0.11 -0.11)">
       <use xlink:href="#DejaVuSans-49"/>
       <use x="63.623047" xlink:href="#DejaVuSans-46"/>
       <use x="95.410156" xlink:href="#DejaVuSans-48"/>
      </g>
     </g>
    </g>
    <g id="xtick_2">
     <g id="text_2">
      <!-- 1.1 -->
      <g style="fill:#262626;" transform="translate(121.34419 269.858281)scale(0.11 -0.11)">
       <use xlink:href="#DejaVuSans-49"/>
       <use x="63.623047" xlink:href="#DejaVuSans-46"/>
       <use x="95.410156" xlink:href="#DejaVuSans-49"/>
      </g>
     </g>
    </g>
    <g id="xtick_3">
     <g id="text_3">
      <!-- 1.2 -->
      <defs>
       <path d="M 19.1875 8.296875 
L 53.609375 8.296875 
L 53.609375 0 
L 7.328125 0 
L 7.328125 8.296875 
Q 12.9375 14.109375 22.625 23.890625 
Q 32.328125 33.6875 34.8125 36.53125 
Q 39.546875 41.84375 41.421875 45.53125 
Q 43.3125 49.21875 43.3125 52.78125 
Q 43.3125 58.59375 39.234375 62.25 
Q 35.15625 65.921875 28.609375 65.921875 
Q 23.96875 65.921875 18.8125 64.3125 
Q 13.671875 62.703125 7.8125 59.421875 
L 7.8125 69.390625 
Q 13.765625 71.78125 18.9375 73 
Q 24.125 74.21875 28.421875 74.21875 
Q 39.75 74.21875 46.484375 68.546875 
Q 53.21875 62.890625 53.21875 53.421875 
Q 53.21875 48.921875 51.53125 44.890625 
Q 49.859375 40.875 45.40625 35.40625 
Q 44.1875 33.984375 37.640625 27.21875 
Q 31.109375 20.453125 19.1875 8.296875 
z
" id="DejaVuSans-50"/>
      </defs>
      <g style="fill:#262626;" transform="translate(182.216918 269.858281)scale(0.11 -0.11)">
       <use xlink:href="#DejaVuSans-49"/>
       <use x="63.623047" xlink:href="#DejaVuSans-46"/>
       <use x="95.410156" xlink:href="#DejaVuSans-50"/>
      </g>
     </g>
    </g>
    <g id="xtick_4">
     <g id="text_4">
      <!-- 1.3 -->
      <defs>
       <path d="M 40.578125 39.3125 
Q 47.65625 37.796875 51.625 33 
Q 55.609375 28.21875 55.609375 21.1875 
Q 55.609375 10.40625 48.1875 4.484375 
Q 40.765625 -1.421875 27.09375 -1.421875 
Q 22.515625 -1.421875 17.65625 -0.515625 
Q 12.796875 0.390625 7.625 2.203125 
L 7.625 11.71875 
Q 11.71875 9.328125 16.59375 8.109375 
Q 21.484375 6.890625 26.8125 6.890625 
Q 36.078125 6.890625 40.9375 10.546875 
Q 45.796875 14.203125 45.796875 21.1875 
Q 45.796875 27.640625 41.28125 31.265625 
Q 36.765625 34.90625 28.71875 34.90625 
L 20.21875 34.90625 
L 20.21875 43.015625 
L 29.109375 43.015625 
Q 36.375 43.015625 40.234375 45.921875 
Q 44.09375 48.828125 44.09375 54.296875 
Q 44.09375 59.90625 40.109375 62.90625 
Q 36.140625 65.921875 28.71875 65.921875 
Q 24.65625 65.921875 20.015625 65.03125 
Q 15.375 64.15625 9.8125 62.3125 
L 9.8125 71.09375 
Q 15.4375 72.65625 20.34375 73.4375 
Q 25.25 74.21875 29.59375 74.21875 
Q 40.828125 74.21875 47.359375 69.109375 
Q 53.90625 64.015625 53.90625 55.328125 
Q 53.90625 49.265625 50.4375 45.09375 
Q 46.96875 40.921875 40.578125 39.3125 
z
" id="DejaVuSans-51"/>
      </defs>
      <g style="fill:#262626;" transform="translate(243.089645 269.858281)scale(0.11 -0.11)">
       <use xlink:href="#DejaVuSans-49"/>
       <use x="63.623047" xlink:href="#DejaVuSans-46"/>
       <use x="95.410156" xlink:href="#DejaVuSans-51"/>
      </g>
     </g>
    </g>
    <g id="xtick_5">
     <g id="text_5">
      <!-- 1.4 -->
      <defs>
       <path d="M 37.796875 64.3125 
L 12.890625 25.390625 
L 37.796875 25.390625 
z
M 35.203125 72.90625 
L 47.609375 72.90625 
L 47.609375 25.390625 
L 58.015625 25.390625 
L 58.015625 17.1875 
L 47.609375 17.1875 
L 47.609375 0 
L 37.796875 0 
L 37.796875 17.1875 
L 4.890625 17.1875 
L 4.890625 26.703125 
z
" id="DejaVuSans-52"/>
      </defs>
      <g style="fill:#262626;" transform="translate(303.962372 269.858281)scale(0.11 -0.11)">
       <use xlink:href="#DejaVuSans-49"/>
       <use x="63.623047" xlink:href="#DejaVuSans-46"/>
       <use x="95.410156" xlink:href="#DejaVuSans-52"/>
      </g>
     </g>
    </g>
    <g id="xtick_6">
     <g id="text_6">
      <!-- 1.5 -->
      <defs>
       <path d="M 10.796875 72.90625 
L 49.515625 72.90625 
L 49.515625 64.59375 
L 19.828125 64.59375 
L 19.828125 46.734375 
Q 21.96875 47.46875 24.109375 47.828125 
Q 26.265625 48.1875 28.421875 48.1875 
Q 40.625 48.1875 47.75 41.5 
Q 54.890625 34.8125 54.890625 23.390625 
Q 54.890625 11.625 47.5625 5.09375 
Q 40.234375 -1.421875 26.90625 -1.421875 
Q 22.3125 -1.421875 17.546875 -0.640625 
Q 12.796875 0.140625 7.71875 1.703125 
L 7.71875 11.625 
Q 12.109375 9.234375 16.796875 8.0625 
Q 21.484375 6.890625 26.703125 6.890625 
Q 35.15625 6.890625 40.078125 11.328125 
Q 45.015625 15.765625 45.015625 23.390625 
Q 45.015625 31 40.078125 35.4375 
Q 35.15625 39.890625 26.703125 39.890625 
Q 22.75 39.890625 18.8125 39.015625 
Q 14.890625 38.140625 10.796875 36.28125 
z
" id="DejaVuSans-53"/>
      </defs>
      <g style="fill:#262626;" transform="translate(364.835099 269.858281)scale(0.11 -0.11)">
       <use xlink:href="#DejaVuSans-49"/>
       <use x="63.623047" xlink:href="#DejaVuSans-46"/>
       <use x="95.410156" xlink:href="#DejaVuSans-53"/>
      </g>
     </g>
    </g>
    <g id="text_7">
     <!-- $g_{0}^{svss}$ -->
     <defs>
      <path d="M 59.625 54.6875 
L 50.296875 6.78125 
Q 47.609375 -7.125 40.015625 -13.953125 
Q 32.421875 -20.796875 19.578125 -20.796875 
Q 14.84375 -20.796875 10.78125 -20.09375 
Q 6.734375 -19.390625 3.21875 -17.921875 
L 4.890625 -9.1875 
Q 8.203125 -11.328125 11.90625 -12.34375 
Q 15.625 -13.375 19.828125 -13.375 
Q 28.375 -13.375 33.859375 -8.703125 
Q 39.359375 -4.046875 41.109375 4.6875 
L 41.890625 8.796875 
Q 38.140625 4.5 33.15625 2.25 
Q 28.171875 0 22.40625 0 
Q 14.109375 0 9.34375 5.484375 
Q 4.59375 10.984375 4.59375 20.609375 
Q 4.59375 28.171875 7.46875 35.421875 
Q 10.359375 42.671875 15.578125 48.296875 
Q 19.046875 52 23.65625 54 
Q 28.265625 56 33.296875 56 
Q 38.8125 56 42.90625 53.4375 
Q 47.015625 50.875 49.03125 46.1875 
L 50.59375 54.6875 
z
M 46.09375 34.625 
Q 46.09375 41.265625 42.96875 44.875 
Q 39.84375 48.484375 34.078125 48.484375 
Q 30.515625 48.484375 27.296875 47.0625 
Q 24.078125 45.65625 21.78125 43.109375 
Q 18.0625 38.921875 15.984375 33.234375 
Q 13.921875 27.546875 13.921875 21.484375 
Q 13.921875 14.75 17.0625 11.125 
Q 20.21875 7.515625 26.125 7.515625 
Q 34.671875 7.515625 40.375 15.25 
Q 46.09375 23 46.09375 34.625 
z
" id="DejaVuSans-Oblique-103"/>
      <path d="M 50 53.078125 
L 48.296875 44.578125 
Q 44.734375 46.53125 40.765625 47.5 
Q 36.8125 48.484375 32.625 48.484375 
Q 25.53125 48.484375 21.453125 46.0625 
Q 17.390625 43.65625 17.390625 39.5 
Q 17.390625 34.671875 26.859375 32.078125 
Q 27.59375 31.890625 27.9375 31.78125 
L 30.8125 30.90625 
Q 39.796875 28.421875 42.796875 25.6875 
Q 45.796875 22.953125 45.796875 18.21875 
Q 45.796875 9.515625 38.890625 4.046875 
Q 31.984375 -1.421875 20.796875 -1.421875 
Q 16.453125 -1.421875 11.671875 -0.578125 
Q 6.890625 0.25 1.125 2 
L 2.875 11.28125 
Q 7.8125 8.734375 12.59375 7.421875 
Q 17.390625 6.109375 21.78125 6.109375 
Q 28.375 6.109375 32.5 8.9375 
Q 36.625 11.765625 36.625 16.109375 
Q 36.625 20.796875 25.78125 23.6875 
L 24.859375 23.921875 
L 21.78125 24.703125 
Q 14.9375 26.515625 11.765625 29.46875 
Q 8.59375 32.421875 8.59375 37.015625 
Q 8.59375 45.75 15.15625 50.875 
Q 21.734375 56 33.015625 56 
Q 37.453125 56 41.671875 55.265625 
Q 45.90625 54.546875 50 53.078125 
z
" id="DejaVuSans-Oblique-115"/>
      <path d="M 7.171875 54.6875 
L 16.703125 54.6875 
L 24.703125 8.203125 
L 50.875 54.6875 
L 60.40625 54.6875 
L 29.296875 0 
L 17.1875 0 
z
" id="DejaVuSans-Oblique-118"/>
     </defs>
     <g style="fill:#262626;" transform="translate(208.08 285.505938)scale(0.12 -0.12)">
      <use transform="translate(0 0.51875)" xlink:href="#DejaVuSans-Oblique-103"/>
      <use transform="translate(68.126458 38.8)scale(0.7)" xlink:href="#DejaVuSans-Oblique-115"/>
      <use transform="translate(104.596185 38.8)scale(0.7)" xlink:href="#DejaVuSans-Oblique-118"/>
      <use transform="translate(146.021966 38.8)scale(0.7)" xlink:href="#DejaVuSans-Oblique-115"/>
      <use transform="translate(182.491693 38.8)scale(0.7)" xlink:href="#DejaVuSans-Oblique-115"/>
      <use transform="translate(63.476562 -26.825)scale(0.7)" xlink:href="#DejaVuSans-48"/>
     </g>
    </g>
   </g>
   <g id="matplotlib.axis_2">
    <g id="ytick_1">
     <g id="text_8">
      <!-- -20 -->
      <defs>
       <path d="M 4.890625 31.390625 
L 31.203125 31.390625 
L 31.203125 23.390625 
L 4.890625 23.390625 
z
" id="DejaVuSans-45"/>
      </defs>
      <g style="fill:#262626;" transform="translate(26.533906 217.087403)scale(0.11 -0.11)">
       <use xlink:href="#DejaVuSans-45"/>
       <use x="36.083984" xlink:href="#DejaVuSans-50"/>
       <use x="99.707031" xlink:href="#DejaVuSans-48"/>
      </g>
     </g>
    </g>
    <g id="ytick_2">
     <g id="text_9">
      <!-- -10 -->
      <g style="fill:#262626;" transform="translate(26.533906 174.859899)scale(0.11 -0.11)">
       <use xlink:href="#DejaVuSans-45"/>
       <use x="36.083984" xlink:href="#DejaVuSans-49"/>
       <use x="99.707031" xlink:href="#DejaVuSans-48"/>
      </g>
     </g>
    </g>
    <g id="ytick_3">
     <g id="text_10">
      <!-- -5 -->
      <g style="fill:#262626;" transform="translate(33.532656 132.632394)scale(0.11 -0.11)">
       <use xlink:href="#DejaVuSans-45"/>
       <use x="36.083984" xlink:href="#DejaVuSans-53"/>
      </g>
     </g>
    </g>
    <g id="ytick_4">
     <g id="text_11">
      <!-- 0 -->
      <g style="fill:#262626;" transform="translate(37.50125 90.404889)scale(0.11 -0.11)">
       <use xlink:href="#DejaVuSans-48"/>
      </g>
     </g>
    </g>
    <g id="ytick_5"/>
    <g id="text_12">
     <!-- $\it{MSFE}$ -->
     <defs>
      <path d="M 16.890625 72.90625 
L 31.6875 72.90625 
L 40.1875 23.78125 
L 68.40625 72.90625 
L 83.59375 72.90625 
L 69.390625 0 
L 59.8125 0 
L 72.21875 63.921875 
L 43.609375 14.015625 
L 33.984375 14.015625 
L 24.703125 64.109375 
L 12.3125 0 
L 2.6875 0 
z
" id="DejaVuSans-Oblique-77"/>
      <path d="M 60.296875 70.515625 
L 58.40625 60.890625 
Q 53.46875 63.53125 48.609375 64.875 
Q 43.75 66.21875 39.203125 66.21875 
Q 30.375 66.21875 25.140625 62.359375 
Q 19.921875 58.5 19.921875 52.09375 
Q 19.921875 48.578125 21.84375 46.703125 
Q 23.78125 44.828125 31.78125 42.671875 
L 37.703125 41.21875 
Q 47.703125 38.625 51.609375 34.640625 
Q 55.515625 30.671875 55.515625 23.484375 
Q 55.515625 12.453125 46.84375 5.515625 
Q 38.1875 -1.421875 24.03125 -1.421875 
Q 18.21875 -1.421875 12.359375 -0.265625 
Q 6.5 0.875 0.59375 3.21875 
L 2.59375 13.375 
Q 8.015625 10.015625 13.453125 8.296875 
Q 18.890625 6.59375 24.3125 6.59375 
Q 33.546875 6.59375 39.109375 10.6875 
Q 44.671875 14.796875 44.671875 21.390625 
Q 44.671875 25.78125 42.453125 28.046875 
Q 40.234375 30.328125 32.90625 32.171875 
L 27 33.6875 
Q 16.890625 36.328125 13.203125 39.765625 
Q 9.515625 43.21875 9.515625 49.421875 
Q 9.515625 60.296875 17.890625 67.25 
Q 26.265625 74.21875 39.703125 74.21875 
Q 44.921875 74.21875 50.046875 73.28125 
Q 55.171875 72.359375 60.296875 70.515625 
z
" id="DejaVuSans-Oblique-83"/>
      <path d="M 16.890625 72.90625 
L 58.6875 72.90625 
L 57.078125 64.59375 
L 25.09375 64.59375 
L 20.90625 43.109375 
L 49.8125 43.109375 
L 48.1875 34.8125 
L 19.28125 34.8125 
L 12.5 0 
L 2.6875 0 
z
" id="DejaVuSans-Oblique-70"/>
      <path d="M 16.890625 72.90625 
L 62.984375 72.90625 
L 61.375 64.59375 
L 25.09375 64.59375 
L 20.90625 43.015625 
L 55.71875 43.015625 
L 54.109375 34.71875 
L 19.28125 34.71875 
L 14.203125 8.296875 
L 51.3125 8.296875 
L 49.703125 0 
L 2.6875 0 
z
" id="DejaVuSans-Oblique-69"/>
     </defs>
     <g style="fill:#262626;" transform="translate(20.038281 159.54)rotate(-90)scale(0.12 -0.12)">
      <use transform="translate(0 0.78125)" xlink:href="#DejaVuSans-Oblique-77"/>
      <use transform="translate(86.279297 0.78125)" xlink:href="#DejaVuSans-Oblique-83"/>
      <use transform="translate(149.755859 0.78125)" xlink:href="#DejaVuSans-Oblique-70"/>
      <use transform="translate(207.275391 0.78125)" xlink:href="#DejaVuSans-Oblique-69"/>
     </g>
    </g>
   </g>
   <g id="line2d_1">
    <path clip-path="url(#pb3e1c1f8e9)" d="M 69.218182 172.208562 
L 74.049351 133.346669 
L 78.880519 115.365685 
L 83.711688 100.353844 
L 88.542857 89.669382 
L 93.374026 81.317153 
L 98.205195 76.221578 
L 103.036364 71.898132 
L 107.867532 68.525212 
L 112.698701 65.755633 
L 117.52987 63.848254 
L 122.361039 62.094331 
L 127.192208 60.662048 
L 132.023377 59.883683 
L 136.854545 59.299653 
L 141.685714 58.274343 
L 146.516883 57.237142 
L 151.348052 56.423129 
L 156.179221 55.642642 
L 161.01039 54.750225 
L 165.841558 54.073755 
L 170.672727 53.471665 
L 175.503896 52.917808 
L 180.335065 52.614629 
L 185.166234 52.128425 
L 189.997403 51.556978 
L 194.828571 51.134829 
L 199.65974 50.764913 
L 204.490909 50.405613 
L 209.322078 50.080531 
L 214.153247 49.798942 
L 218.984416 49.657399 
L 223.815584 51.499024 
L 228.646753 48.713353 
L 233.477922 48.466273 
L 238.309091 48.208822 
L 243.14026 47.986215 
L 247.971429 47.768458 
L 252.802597 47.565452 
L 257.633766 47.378203 
L 262.464935 46.613875 
L 267.296104 46.451837 
L 272.127273 46.333203 
L 276.958442 46.197605 
L 281.78961 46.047501 
L 286.620779 45.900169 
L 291.451948 45.758693 
L 296.283117 45.980675 
L 301.114286 45.847736 
L 305.945455 45.721056 
L 310.776623 45.597706 
L 315.607792 45.481508 
L 320.438961 45.376105 
L 325.27013 45.302103 
L 330.101299 45.195963 
L 334.932468 45.037389 
L 339.763636 45.009295 
L 344.594805 44.919224 
L 349.425974 44.820884 
L 354.257143 44.73897 
L 359.088312 44.660075 
L 363.919481 44.584822 
L 368.750649 44.512631 
L 373.581818 44.443636 
" style="fill:none;stroke:#a1c9f4;stroke-linecap:round;stroke-width:1.5;"/>
   </g>
   <g id="line2d_2">
    <path clip-path="url(#pb3e1c1f8e9)" d="M 69.218182 215.075658 
L 74.049351 167.140522 
L 78.880519 145.456597 
L 83.711688 127.356197 
L 88.542857 114.376694 
L 93.374026 104.197076 
L 98.205195 97.840688 
L 103.036364 92.395356 
L 107.867532 88.093299 
L 112.698701 84.468516 
L 117.52987 81.957863 
L 122.361039 79.633007 
L 127.192208 77.675608 
L 132.023377 76.56188 
L 136.854545 76.062177 
L 141.685714 74.625133 
L 146.516883 73.148619 
L 151.348052 71.970434 
L 156.179221 70.840972 
L 161.01039 69.758468 
L 165.841558 68.742701 
L 170.672727 67.839265 
L 175.503896 66.990409 
L 180.335065 66.199931 
L 185.166234 65.465775 
L 189.997403 64.615041 
L 194.828571 63.942795 
L 199.65974 63.343209 
L 204.490909 62.749412 
L 209.322078 62.18686 
L 214.153247 61.643865 
L 218.984416 61.108424 
L 223.815584 60.658069 
L 228.646753 60.134921 
L 233.477922 59.706469 
L 238.309091 59.273839 
L 243.14026 58.879427 
L 247.971429 58.494469 
L 252.802597 58.131078 
L 257.633766 57.788966 
L 262.464935 56.727001 
L 267.296104 56.418637 
L 272.127273 56.166684 
L 276.958442 55.905613 
L 281.78961 55.618168 
L 286.620779 55.335976 
L 291.451948 55.060623 
L 296.283117 54.800602 
L 301.114286 54.549677 
L 305.945455 54.307201 
L 310.776623 54.070871 
L 315.607792 53.844621 
L 320.438961 53.626239 
L 325.27013 53.389261 
L 330.101299 53.185025 
L 334.932468 52.864995 
L 339.763636 52.787551 
L 344.594805 52.602157 
L 349.425974 52.415445 
L 354.257143 52.241561 
L 359.088312 52.072706 
L 363.919481 51.908902 
L 368.750649 51.749926 
L 373.581818 51.595442 
" style="fill:none;stroke:#ffb482;stroke-dasharray:6,2.25;stroke-dashoffset:0;stroke-width:1.5;"/>
   </g>
   <g id="line2d_3">
    <path clip-path="url(#pb3e1c1f8e9)" d="M 69.218182 242.116364 
L 74.049351 184.670683 
L 78.880519 161.066393 
L 83.711688 142.600993 
L 88.542857 129.893088 
L 93.374026 119.359691 
L 98.205195 112.749696 
L 103.036364 106.938807 
L 107.867532 102.262609 
L 112.698701 98.272648 
L 117.52987 95.487938 
L 122.361039 92.887371 
L 127.192208 90.614948 
L 132.023377 89.423308 
L 136.854545 87.418348 
L 141.685714 85.774946 
L 146.516883 84.059018 
L 151.348052 82.67767 
L 156.179221 81.350477 
L 161.01039 80.097196 
L 165.841558 78.895208 
L 170.672727 77.814603 
L 175.503896 76.800915 
L 180.335065 75.838229 
L 185.166234 74.947265 
L 189.997403 73.969739 
L 194.828571 73.141065 
L 199.65974 72.404585 
L 204.490909 71.670451 
L 209.322078 70.97181 
L 214.153247 70.290713 
L 218.984416 69.629485 
L 223.815584 69.008667 
L 228.646753 68.418513 
L 233.477922 67.874042 
L 238.309091 67.324163 
L 243.14026 66.822761 
L 247.971429 66.330388 
L 252.802597 65.86202 
L 257.633766 65.419935 
L 262.464935 64.106688 
L 267.296104 63.708387 
L 272.127273 63.367884 
L 276.958442 63.026888 
L 281.78961 62.651228 
L 286.620779 62.279971 
L 291.451948 61.913183 
L 296.283117 61.568634 
L 301.114286 61.235126 
L 305.945455 60.911966 
L 310.776623 60.596092 
L 315.607792 60.292511 
L 320.438961 59.998227 
L 325.27013 59.682063 
L 330.101299 59.405168 
L 334.932468 58.966368 
L 339.763636 58.865458 
L 344.594805 58.611941 
L 349.425974 58.366157 
L 354.257143 58.127033 
L 359.088312 57.894033 
L 363.919481 57.667426 
L 368.750649 57.446808 
L 373.581818 57.231822 
" style="fill:none;stroke:#8de5a1;stroke-dasharray:1.5,1.5;stroke-dashoffset:0;stroke-width:1.5;"/>
   </g>
   <g id="line2d_4">
    <path clip-path="url(#pb3e1c1f8e9)" d="M 69.218182 193.179363 
L 74.049351 143.538088 
L 78.880519 127.819067 
L 83.711688 118.155223 
L 88.542857 112.722876 
L 93.374026 106.883781 
L 98.205195 103.122059 
L 103.036364 99.478346 
L 107.867532 96.372242 
L 112.698701 93.571083 
L 117.52987 91.659412 
L 122.361039 89.794275 
L 127.192208 88.041759 
L 132.023377 87.801585 
L 136.854545 86.22387 
L 141.685714 84.921396 
L 146.516883 83.51144 
L 151.348052 82.350197 
L 156.179221 81.229496 
L 161.01039 80.209438 
L 165.841558 79.181468 
L 170.672727 78.234785 
L 175.503896 77.352493 
L 180.335065 76.481085 
L 185.166234 75.679432 
L 189.997403 74.909806 
L 194.828571 74.14036 
L 199.65974 73.46599 
L 204.490909 72.785274 
L 209.322078 72.13283 
L 214.153247 71.484655 
L 218.984416 70.885292 
L 223.815584 70.287495 
L 228.646753 69.733413 
L 233.477922 69.207292 
L 238.309091 68.676612 
L 243.14026 68.197046 
L 247.971429 67.718374 
L 252.802597 67.262097 
L 257.633766 66.827052 
L 262.464935 65.203005 
L 267.296104 64.82359 
L 272.127273 64.466167 
L 276.958442 64.142158 
L 281.78961 63.770834 
L 286.620779 63.399666 
L 291.451948 63.028498 
L 296.283117 62.683256 
L 301.114286 62.348541 
L 305.945455 62.023325 
L 310.776623 61.703115 
L 315.607792 61.396114 
L 320.438961 61.098008 
L 325.27013 60.782336 
L 330.101299 60.500054 
L 334.932468 60.019885 
L 339.763636 59.951046 
L 344.594805 59.691025 
L 349.425974 59.438738 
L 354.257143 59.192931 
L 359.088312 58.952936 
L 363.919481 58.719288 
L 368.750649 58.491295 
L 373.581818 58.268978 
" style="fill:none;stroke:#ff9f9b;stroke-dasharray:4.5,1.875,2.25,1.875;stroke-dashoffset:0;stroke-width:1.5;"/>
   </g>
   <g id="line2d_5">
    <path clip-path="url(#pb3e1c1f8e9)" d="M 69.218182 89.639992 
L 74.049351 88.71224 
L 78.880519 87.140045 
L 83.711688 85.68302 
L 88.542857 84.544462 
L 93.374026 83.445686 
L 98.205195 82.37733 
L 103.036364 81.306738 
L 107.867532 80.328631 
L 112.698701 79.096537 
L 117.52987 78.590576 
L 122.361039 77.76664 
L 127.192208 76.966082 
L 132.023377 78.725369 
L 136.854545 77.932835 
L 141.685714 77.198344 
L 146.516883 76.430685 
L 151.348052 75.776208 
L 156.179221 75.102129 
L 161.01039 74.465107 
L 165.841558 73.836644 
L 170.672727 73.231896 
L 175.503896 72.65942 
L 180.335065 72.079815 
L 185.166234 71.536976 
L 189.997403 71.012576 
L 194.828571 70.473112 
L 199.65974 70.008029 
L 204.490909 69.523702 
L 209.322078 69.053144 
L 214.153247 68.565867 
L 218.984416 68.123737 
L 223.815584 67.665471 
L 228.646753 67.24853 
L 233.477922 66.84339 
L 238.309091 66.447972 
L 243.14026 66.086795 
L 247.971429 65.715806 
L 252.802597 65.361758 
L 257.633766 65.017499 
L 262.464935 62.508344 
L 267.296104 62.235069 
L 272.127273 61.919575 
L 276.958442 61.675915 
L 281.78961 61.385587 
L 286.620779 61.083459 
L 291.451948 60.772569 
L 296.283117 60.492746 
L 301.114286 60.220723 
L 305.945455 59.955382 
L 310.776623 59.688232 
L 315.607792 59.435385 
L 320.438961 59.190205 
L 325.27013 58.949382 
L 330.101299 58.713187 
L 334.932468 58.268509 
L 339.763636 58.261268 
L 344.594805 58.040918 
L 349.425974 57.82743 
L 354.257143 57.618904 
L 359.088312 57.41449 
L 363.919481 57.215149 
L 368.750649 57.020279 
L 373.581818 56.829677 
" style="fill:none;stroke:#d0bbff;stroke-dasharray:7.5,1.5,1.5,1.5;stroke-dashoffset:0;stroke-width:1.5;"/>
   </g>
   <g id="line2d_6">
    <path clip-path="url(#pb3e1c1f8e9)" d="M 69.218182 80.288512 
L 74.049351 79.748422 
L 78.880519 78.913356 
L 83.711688 78.260599 
L 88.542857 77.648587 
L 93.374026 76.995539 
L 98.205195 76.376956 
L 103.036364 75.779381 
L 107.867532 75.187685 
L 112.698701 74.399531 
L 117.52987 74.123597 
L 122.361039 73.589184 
L 127.192208 73.072919 
L 132.023377 72.554844 
L 136.854545 72.043876 
L 141.685714 71.554991 
L 146.516883 71.02174 
L 151.348052 70.611437 
L 156.179221 70.147203 
L 161.01039 69.705252 
L 165.841558 69.269224 
L 170.672727 68.844684 
L 175.503896 68.441109 
L 180.335065 68.025129 
L 185.166234 67.637422 
L 189.997403 67.253447 
L 194.828571 66.853693 
L 199.65974 66.521102 
L 204.490909 66.162115 
L 209.322078 65.812939 
L 214.153247 65.431915 
L 218.984416 65.098206 
L 223.815584 64.736156 
L 228.646753 64.417913 
L 233.477922 64.107158 
L 238.309091 63.802526 
L 243.14026 63.537499 
L 247.971429 63.250278 
L 252.802597 62.977808 
L 257.633766 62.706656 
L 262.464935 62.439148 
L 267.296104 62.234689 
L 272.127273 61.973819 
L 276.958442 61.74377 
L 281.78961 61.508602 
L 286.620779 61.264025 
L 291.451948 60.988202 
L 296.283117 60.7527 
L 301.114286 60.522292 
L 305.945455 60.296467 
L 310.776623 60.075402 
L 315.607792 59.858852 
L 320.438961 59.64675 
L 325.27013 59.438157 
L 330.101299 59.232759 
L 334.932468 58.806074 
L 339.763636 58.838951 
L 344.594805 58.647567 
L 349.425974 58.45996 
L 354.257143 58.276041 
L 359.088312 58.095609 
L 363.919481 57.91873 
L 368.750649 57.745226 
L 373.581818 57.575187 
" style="fill:none;stroke:#debb9b;stroke-dasharray:4.5,1.875,1.875,1.875,1.875,1.875;stroke-dashoffset:0;stroke-width:1.5;"/>
   </g>
   <g id="line2d_7">
    <path clip-path="url(#pb3e1c1f8e9)" d="M 69.218182 74.885668 
L 74.049351 74.416652 
L 78.880519 73.795006 
L 83.711688 73.28187 
L 88.542857 72.817458 
L 93.374026 72.286956 
L 98.205195 71.795589 
L 103.036364 71.323935 
L 107.867532 70.857578 
L 112.698701 70.267178 
L 117.52987 70.007783 
L 122.361039 69.578952 
L 127.192208 69.124306 
L 132.023377 68.712193 
L 136.854545 68.305354 
L 141.685714 67.915479 
L 146.516883 67.459135 
L 151.348052 67.16617 
L 156.179221 66.790465 
L 161.01039 66.436283 
L 165.841558 66.085588 
L 170.672727 65.743721 
L 175.503896 65.419577 
L 180.335065 65.081823 
L 185.166234 64.769234 
L 189.997403 64.453964 
L 194.828571 64.1262 
L 199.65974 63.863788 
L 204.490909 63.571851 
L 209.322078 63.287334 
L 214.153247 62.974008 
L 218.984416 62.700398 
L 223.815584 62.393978 
L 228.646753 62.132214 
L 233.477922 61.876395 
L 238.309091 61.626163 
L 243.14026 61.423895 
L 247.971429 61.187766 
L 252.802597 60.969093 
L 257.633766 60.743491 
L 262.464935 60.521063 
L 267.296104 60.361193 
L 272.127273 60.143414 
L 276.958442 59.927981 
L 281.78961 59.738653 
L 286.620779 59.534552 
L 291.451948 59.286869 
L 296.283117 59.088735 
L 301.114286 58.89496 
L 305.945455 58.704448 
L 310.776623 58.517623 
L 315.607792 58.334397 
L 320.438961 58.154613 
L 325.27013 57.978293 
L 330.101299 57.803493 
L 334.932468 57.400052 
L 339.763636 57.468421 
L 344.594805 57.305265 
L 349.425974 57.145037 
L 354.257143 56.987871 
L 359.088312 56.83341 
L 363.919481 56.681854 
L 368.750649 56.533069 
L 373.581818 56.386967 
" style="fill:none;stroke:#fab0e4;stroke-dasharray:6,1.5,6,1.5,1.5,1.5;stroke-dashoffset:0;stroke-width:1.5;"/>
   </g>
   <g id="line2d_8">
    <path clip-path="url(#pb3e1c1f8e9)" d="M 69.218182 70.143515 
L 74.049351 69.712851 
L 78.880519 69.234716 
L 83.711688 68.810846 
L 88.542857 68.448037 
L 93.374026 67.992654 
L 98.205195 67.583469 
L 103.036364 67.195583 
L 107.867532 66.813866 
L 112.698701 66.399584 
L 117.52987 66.096629 
L 122.361039 65.739653 
L 127.192208 65.288293 
L 132.023377 64.951142 
L 136.854545 64.61455 
L 141.685714 64.294876 
L 146.516883 63.882025 
L 151.348052 63.684138 
L 156.179221 63.371951 
L 161.01039 63.082317 
L 165.841558 62.794157 
L 170.672727 62.513462 
L 175.503896 62.248837 
L 180.335065 61.970087 
L 185.166234 61.710088 
L 189.997403 61.450559 
L 194.828571 61.179139 
L 199.65974 60.975441 
L 204.490909 60.735423 
L 209.322078 60.502669 
L 214.153247 60.272552 
L 218.984416 60.046682 
L 223.815584 59.801345 
L 228.646753 59.58493 
L 233.477922 59.373609 
L 238.309091 59.168167 
L 243.14026 59.019405 
L 247.971429 58.827105 
L 252.802597 58.655032 
L 257.633766 58.471739 
L 262.464935 58.284624 
L 267.296104 58.128396 
L 272.127273 57.94821 
L 276.958442 57.769052 
L 281.78961 57.620245 
L 286.620779 57.451747 
L 291.451948 57.228448 
L 296.283117 57.063571 
L 301.114286 56.902606 
L 305.945455 56.744032 
L 310.776623 56.588319 
L 315.607792 56.435489 
L 320.438961 56.285475 
L 325.27013 56.1383 
L 330.101299 55.992957 
L 334.932468 55.623957 
L 339.763636 55.712955 
L 344.594805 55.576441 
L 349.425974 55.44234 
L 354.257143 55.310743 
L 359.088312 55.181336 
L 363.919481 55.05432 
L 368.750649 54.92954 
L 373.581818 54.806927 
" style="fill:none;stroke:#cfcfcf;stroke-dasharray:4.5,1.875,4.5,1.875,1.875,1.875;stroke-dashoffset:0;stroke-width:1.5;"/>
   </g>
   <g id="line2d_9"/>
   <g id="line2d_10"/>
   <g id="line2d_11"/>
   <g id="line2d_12"/>
   <g id="line2d_13"/>
   <g id="line2d_14"/>
   <g id="line2d_15"/>
   <g id="line2d_16"/>
   <g id="patch_3">
    <path d="M 54 252 
L 54 34.56 
" style="fill:none;stroke:#262626;stroke-linecap:square;stroke-linejoin:miter;stroke-width:1.25;"/>
   </g>
   <g id="patch_4">
    <path d="M 54 252 
L 388.8 252 
" style="fill:none;stroke:#262626;stroke-linecap:square;stroke-linejoin:miter;stroke-width:1.25;"/>
   </g>
   <g id="text_13">
    <!-- $\it{in}$ $10^{-3}$ -->
    <defs>
     <path d="M 18.3125 75.984375 
L 27.296875 75.984375 
L 25.09375 64.59375 
L 16.109375 64.59375 
z
M 14.203125 54.6875 
L 23.1875 54.6875 
L 12.5 0 
L 3.515625 0 
z
" id="DejaVuSans-Oblique-105"/>
     <path d="M 55.71875 33.015625 
L 49.3125 0 
L 40.28125 0 
L 46.6875 32.671875 
Q 47.125 34.96875 47.359375 36.71875 
Q 47.609375 38.484375 47.609375 39.5 
Q 47.609375 43.609375 45.015625 45.890625 
Q 42.4375 48.1875 37.796875 48.1875 
Q 30.5625 48.1875 25.34375 43.375 
Q 20.125 38.578125 18.5 30.328125 
L 12.5 0 
L 3.515625 0 
L 14.109375 54.6875 
L 23.09375 54.6875 
L 21.296875 46.09375 
Q 25.046875 50.828125 30.3125 53.40625 
Q 35.59375 56 41.40625 56 
Q 48.640625 56 52.609375 52.09375 
Q 56.59375 48.1875 56.59375 41.109375 
Q 56.59375 39.359375 56.375 37.359375 
Q 56.15625 35.359375 55.71875 33.015625 
z
" id="DejaVuSans-Oblique-110"/>
     <path id="DejaVuSans-32"/>
     <path d="M 10.59375 35.5 
L 73.1875 35.5 
L 73.1875 27.203125 
L 10.59375 27.203125 
z
" id="DejaVuSans-8722"/>
    </defs>
    <g style="fill:#262626;" transform="translate(28.89 18.252)scale(0.12 -0.12)">
     <use transform="translate(0 0.765625)" xlink:href="#DejaVuSans-Oblique-105"/>
     <use transform="translate(27.783203 0.765625)" xlink:href="#DejaVuSans-Oblique-110"/>
     <use transform="translate(91.162109 0.765625)" xlink:href="#DejaVuSans-32"/>
     <use transform="translate(122.949219 0.765625)" xlink:href="#DejaVuSans-49"/>
     <use transform="translate(186.572266 0.765625)" xlink:href="#DejaVuSans-48"/>
     <use transform="translate(251.152344 39.046875)scale(0.7)" xlink:href="#DejaVuSans-8722"/>
     <use transform="translate(309.804688 39.046875)scale(0.7)" xlink:href="#DejaVuSans-51"/>
    </g>
   </g>
   <g id="legend_1">
    <g id="patch_5">
     <path d="M 311.138281 246.5 
L 381.1 246.5 
Q 383.3 246.5 383.3 244.3 
L 383.3 116.2325 
Q 383.3 114.0325 381.1 114.0325 
L 311.138281 114.0325 
Q 308.938281 114.0325 308.938281 116.2325 
L 308.938281 244.3 
Q 308.938281 246.5 311.138281 246.5 
z
" style="fill:#ffffff;opacity:0.8;stroke:#cccccc;stroke-linejoin:miter;"/>
    </g>
    <g id="line2d_17">
     <path d="M 313.338281 122.940781 
L 335.338281 122.940781 
" style="fill:none;stroke:#a1c9f4;stroke-linecap:round;stroke-width:1.5;"/>
    </g>
    <g id="line2d_18"/>
    <g id="text_14">
     <!-- 1-step -->
     <defs>
      <path d="M 44.28125 53.078125 
L 44.28125 44.578125 
Q 40.484375 46.53125 36.375 47.5 
Q 32.28125 48.484375 27.875 48.484375 
Q 21.1875 48.484375 17.84375 46.4375 
Q 14.5 44.390625 14.5 40.28125 
Q 14.5 37.15625 16.890625 35.375 
Q 19.28125 33.59375 26.515625 31.984375 
L 29.59375 31.296875 
Q 39.15625 29.25 43.1875 25.515625 
Q 47.21875 21.78125 47.21875 15.09375 
Q 47.21875 7.46875 41.1875 3.015625 
Q 35.15625 -1.421875 24.609375 -1.421875 
Q 20.21875 -1.421875 15.453125 -0.5625 
Q 10.6875 0.296875 5.421875 2 
L 5.421875 11.28125 
Q 10.40625 8.6875 15.234375 7.390625 
Q 20.0625 6.109375 24.8125 6.109375 
Q 31.15625 6.109375 34.5625 8.28125 
Q 37.984375 10.453125 37.984375 14.40625 
Q 37.984375 18.0625 35.515625 20.015625 
Q 33.0625 21.96875 24.703125 23.78125 
L 21.578125 24.515625 
Q 13.234375 26.265625 9.515625 29.90625 
Q 5.8125 33.546875 5.8125 39.890625 
Q 5.8125 47.609375 11.28125 51.796875 
Q 16.75 56 26.8125 56 
Q 31.78125 56 36.171875 55.265625 
Q 40.578125 54.546875 44.28125 53.078125 
z
" id="DejaVuSans-115"/>
      <path d="M 18.3125 70.21875 
L 18.3125 54.6875 
L 36.8125 54.6875 
L 36.8125 47.703125 
L 18.3125 47.703125 
L 18.3125 18.015625 
Q 18.3125 11.328125 20.140625 9.421875 
Q 21.96875 7.515625 27.59375 7.515625 
L 36.8125 7.515625 
L 36.8125 0 
L 27.59375 0 
Q 17.1875 0 13.234375 3.875 
Q 9.28125 7.765625 9.28125 18.015625 
L 9.28125 47.703125 
L 2.6875 47.703125 
L 2.6875 54.6875 
L 9.28125 54.6875 
L 9.28125 70.21875 
z
" id="DejaVuSans-116"/>
      <path d="M 56.203125 29.59375 
L 56.203125 25.203125 
L 14.890625 25.203125 
Q 15.484375 15.921875 20.484375 11.0625 
Q 25.484375 6.203125 34.421875 6.203125 
Q 39.59375 6.203125 44.453125 7.46875 
Q 49.3125 8.734375 54.109375 11.28125 
L 54.109375 2.78125 
Q 49.265625 0.734375 44.1875 -0.34375 
Q 39.109375 -1.421875 33.890625 -1.421875 
Q 20.796875 -1.421875 13.15625 6.1875 
Q 5.515625 13.8125 5.515625 26.8125 
Q 5.515625 40.234375 12.765625 48.109375 
Q 20.015625 56 32.328125 56 
Q 43.359375 56 49.78125 48.890625 
Q 56.203125 41.796875 56.203125 29.59375 
z
M 47.21875 32.234375 
Q 47.125 39.59375 43.09375 43.984375 
Q 39.0625 48.390625 32.421875 48.390625 
Q 24.90625 48.390625 20.390625 44.140625 
Q 15.875 39.890625 15.1875 32.171875 
z
" id="DejaVuSans-101"/>
      <path d="M 18.109375 8.203125 
L 18.109375 -20.796875 
L 9.078125 -20.796875 
L 9.078125 54.6875 
L 18.109375 54.6875 
L 18.109375 46.390625 
Q 20.953125 51.265625 25.265625 53.625 
Q 29.59375 56 35.59375 56 
Q 45.5625 56 51.78125 48.09375 
Q 58.015625 40.1875 58.015625 27.296875 
Q 58.015625 14.40625 51.78125 6.484375 
Q 45.5625 -1.421875 35.59375 -1.421875 
Q 29.59375 -1.421875 25.265625 0.953125 
Q 20.953125 3.328125 18.109375 8.203125 
z
M 48.6875 27.296875 
Q 48.6875 37.203125 44.609375 42.84375 
Q 40.53125 48.484375 33.40625 48.484375 
Q 26.265625 48.484375 22.1875 42.84375 
Q 18.109375 37.203125 18.109375 27.296875 
Q 18.109375 17.390625 22.1875 11.75 
Q 26.265625 6.109375 33.40625 6.109375 
Q 40.53125 6.109375 44.609375 11.75 
Q 48.6875 17.390625 48.6875 27.296875 
z
" id="DejaVuSans-112"/>
     </defs>
     <g style="fill:#262626;" transform="translate(344.138281 126.790781)scale(0.11 -0.11)">
      <use xlink:href="#DejaVuSans-49"/>
      <use x="63.623047" xlink:href="#DejaVuSans-45"/>
      <use x="99.707031" xlink:href="#DejaVuSans-115"/>
      <use x="151.806641" xlink:href="#DejaVuSans-116"/>
      <use x="191.015625" xlink:href="#DejaVuSans-101"/>
      <use x="252.539062" xlink:href="#DejaVuSans-112"/>
     </g>
    </g>
    <g id="line2d_19">
     <path d="M 313.338281 139.086719 
L 335.338281 139.086719 
" style="fill:none;stroke:#ffb482;stroke-dasharray:6,2.25;stroke-dashoffset:0;stroke-width:1.5;"/>
    </g>
    <g id="line2d_20"/>
    <g id="text_15">
     <!-- 2-step -->
     <g style="fill:#262626;" transform="translate(344.138281 142.936719)scale(0.11 -0.11)">
      <use xlink:href="#DejaVuSans-50"/>
      <use x="63.623047" xlink:href="#DejaVuSans-45"/>
      <use x="99.707031" xlink:href="#DejaVuSans-115"/>
      <use x="151.806641" xlink:href="#DejaVuSans-116"/>
      <use x="191.015625" xlink:href="#DejaVuSans-101"/>
      <use x="252.539062" xlink:href="#DejaVuSans-112"/>
     </g>
    </g>
    <g id="line2d_21">
     <path d="M 313.338281 155.232656 
L 335.338281 155.232656 
" style="fill:none;stroke:#8de5a1;stroke-dasharray:1.5,1.5;stroke-dashoffset:0;stroke-width:1.5;"/>
    </g>
    <g id="line2d_22"/>
    <g id="text_16">
     <!-- 3-step -->
     <g style="fill:#262626;" transform="translate(344.138281 159.082656)scale(0.11 -0.11)">
      <use xlink:href="#DejaVuSans-51"/>
      <use x="63.623047" xlink:href="#DejaVuSans-45"/>
      <use x="99.707031" xlink:href="#DejaVuSans-115"/>
      <use x="151.806641" xlink:href="#DejaVuSans-116"/>
      <use x="191.015625" xlink:href="#DejaVuSans-101"/>
      <use x="252.539062" xlink:href="#DejaVuSans-112"/>
     </g>
    </g>
    <g id="line2d_23">
     <path d="M 313.338281 171.378594 
L 335.338281 171.378594 
" style="fill:none;stroke:#ff9f9b;stroke-dasharray:4.5,1.875,2.25,1.875;stroke-dashoffset:0;stroke-width:1.5;"/>
    </g>
    <g id="line2d_24"/>
    <g id="text_17">
     <!-- 4-step -->
     <g style="fill:#262626;" transform="translate(344.138281 175.228594)scale(0.11 -0.11)">
      <use xlink:href="#DejaVuSans-52"/>
      <use x="63.623047" xlink:href="#DejaVuSans-45"/>
      <use x="99.707031" xlink:href="#DejaVuSans-115"/>
      <use x="151.806641" xlink:href="#DejaVuSans-116"/>
      <use x="191.015625" xlink:href="#DejaVuSans-101"/>
      <use x="252.539062" xlink:href="#DejaVuSans-112"/>
     </g>
    </g>
    <g id="line2d_25">
     <path d="M 313.338281 187.524531 
L 335.338281 187.524531 
" style="fill:none;stroke:#d0bbff;stroke-dasharray:7.5,1.5,1.5,1.5;stroke-dashoffset:0;stroke-width:1.5;"/>
    </g>
    <g id="line2d_26"/>
    <g id="text_18">
     <!-- 5-step -->
     <g style="fill:#262626;" transform="translate(344.138281 191.374531)scale(0.11 -0.11)">
      <use xlink:href="#DejaVuSans-53"/>
      <use x="63.623047" xlink:href="#DejaVuSans-45"/>
      <use x="99.707031" xlink:href="#DejaVuSans-115"/>
      <use x="151.806641" xlink:href="#DejaVuSans-116"/>
      <use x="191.015625" xlink:href="#DejaVuSans-101"/>
      <use x="252.539062" xlink:href="#DejaVuSans-112"/>
     </g>
    </g>
    <g id="line2d_27">
     <path d="M 313.338281 203.670469 
L 335.338281 203.670469 
" style="fill:none;stroke:#debb9b;stroke-dasharray:4.5,1.875,1.875,1.875,1.875,1.875;stroke-dashoffset:0;stroke-width:1.5;"/>
    </g>
    <g id="line2d_28"/>
    <g id="text_19">
     <!-- 6-step -->
     <defs>
      <path d="M 33.015625 40.375 
Q 26.375 40.375 22.484375 35.828125 
Q 18.609375 31.296875 18.609375 23.390625 
Q 18.609375 15.53125 22.484375 10.953125 
Q 26.375 6.390625 33.015625 6.390625 
Q 39.65625 6.390625 43.53125 10.953125 
Q 47.40625 15.53125 47.40625 23.390625 
Q 47.40625 31.296875 43.53125 35.828125 
Q 39.65625 40.375 33.015625 40.375 
z
M 52.59375 71.296875 
L 52.59375 62.3125 
Q 48.875 64.0625 45.09375 64.984375 
Q 41.3125 65.921875 37.59375 65.921875 
Q 27.828125 65.921875 22.671875 59.328125 
Q 17.53125 52.734375 16.796875 39.40625 
Q 19.671875 43.65625 24.015625 45.921875 
Q 28.375 48.1875 33.59375 48.1875 
Q 44.578125 48.1875 50.953125 41.515625 
Q 57.328125 34.859375 57.328125 23.390625 
Q 57.328125 12.15625 50.6875 5.359375 
Q 44.046875 -1.421875 33.015625 -1.421875 
Q 20.359375 -1.421875 13.671875 8.265625 
Q 6.984375 17.96875 6.984375 36.375 
Q 6.984375 53.65625 15.1875 63.9375 
Q 23.390625 74.21875 37.203125 74.21875 
Q 40.921875 74.21875 44.703125 73.484375 
Q 48.484375 72.75 52.59375 71.296875 
z
" id="DejaVuSans-54"/>
     </defs>
     <g style="fill:#262626;" transform="translate(344.138281 207.520469)scale(0.11 -0.11)">
      <use xlink:href="#DejaVuSans-54"/>
      <use x="63.623047" xlink:href="#DejaVuSans-45"/>
      <use x="99.707031" xlink:href="#DejaVuSans-115"/>
      <use x="151.806641" xlink:href="#DejaVuSans-116"/>
      <use x="191.015625" xlink:href="#DejaVuSans-101"/>
      <use x="252.539062" xlink:href="#DejaVuSans-112"/>
     </g>
    </g>
    <g id="line2d_29">
     <path d="M 313.338281 219.816406 
L 335.338281 219.816406 
" style="fill:none;stroke:#fab0e4;stroke-dasharray:6,1.5,6,1.5,1.5,1.5;stroke-dashoffset:0;stroke-width:1.5;"/>
    </g>
    <g id="line2d_30"/>
    <g id="text_20">
     <!-- 7-step -->
     <defs>
      <path d="M 8.203125 72.90625 
L 55.078125 72.90625 
L 55.078125 68.703125 
L 28.609375 0 
L 18.3125 0 
L 43.21875 64.59375 
L 8.203125 64.59375 
z
" id="DejaVuSans-55"/>
     </defs>
     <g style="fill:#262626;" transform="translate(344.138281 223.666406)scale(0.11 -0.11)">
      <use xlink:href="#DejaVuSans-55"/>
      <use x="63.623047" xlink:href="#DejaVuSans-45"/>
      <use x="99.707031" xlink:href="#DejaVuSans-115"/>
      <use x="151.806641" xlink:href="#DejaVuSans-116"/>
      <use x="191.015625" xlink:href="#DejaVuSans-101"/>
      <use x="252.539062" xlink:href="#DejaVuSans-112"/>
     </g>
    </g>
    <g id="line2d_31">
     <path d="M 313.338281 235.962344 
L 335.338281 235.962344 
" style="fill:none;stroke:#cfcfcf;stroke-dasharray:4.5,1.875,4.5,1.875,1.875,1.875;stroke-dashoffset:0;stroke-width:1.5;"/>
    </g>
    <g id="line2d_32"/>
    <g id="text_21">
     <!-- 8-step -->
     <defs>
      <path d="M 31.78125 34.625 
Q 24.75 34.625 20.71875 30.859375 
Q 16.703125 27.09375 16.703125 20.515625 
Q 16.703125 13.921875 20.71875 10.15625 
Q 24.75 6.390625 31.78125 6.390625 
Q 38.8125 6.390625 42.859375 10.171875 
Q 46.921875 13.96875 46.921875 20.515625 
Q 46.921875 27.09375 42.890625 30.859375 
Q 38.875 34.625 31.78125 34.625 
z
M 21.921875 38.8125 
Q 15.578125 40.375 12.03125 44.71875 
Q 8.5 49.078125 8.5 55.328125 
Q 8.5 64.0625 14.71875 69.140625 
Q 20.953125 74.21875 31.78125 74.21875 
Q 42.671875 74.21875 48.875 69.140625 
Q 55.078125 64.0625 55.078125 55.328125 
Q 55.078125 49.078125 51.53125 44.71875 
Q 48 40.375 41.703125 38.8125 
Q 48.828125 37.15625 52.796875 32.3125 
Q 56.78125 27.484375 56.78125 20.515625 
Q 56.78125 9.90625 50.3125 4.234375 
Q 43.84375 -1.421875 31.78125 -1.421875 
Q 19.734375 -1.421875 13.25 4.234375 
Q 6.78125 9.90625 6.78125 20.515625 
Q 6.78125 27.484375 10.78125 32.3125 
Q 14.796875 37.15625 21.921875 38.8125 
z
M 18.3125 54.390625 
Q 18.3125 48.734375 21.84375 45.5625 
Q 25.390625 42.390625 31.78125 42.390625 
Q 38.140625 42.390625 41.71875 45.5625 
Q 45.3125 48.734375 45.3125 54.390625 
Q 45.3125 60.0625 41.71875 63.234375 
Q 38.140625 66.40625 31.78125 66.40625 
Q 25.390625 66.40625 21.84375 63.234375 
Q 18.3125 60.0625 18.3125 54.390625 
z
" id="DejaVuSans-56"/>
     </defs>
     <g style="fill:#262626;" transform="translate(344.138281 239.812344)scale(0.11 -0.11)">
      <use xlink:href="#DejaVuSans-56"/>
      <use x="63.623047" xlink:href="#DejaVuSans-45"/>
      <use x="99.707031" xlink:href="#DejaVuSans-115"/>
      <use x="151.806641" xlink:href="#DejaVuSans-116"/>
      <use x="191.015625" xlink:href="#DejaVuSans-101"/>
      <use x="252.539062" xlink:href="#DejaVuSans-112"/>
     </g>
    </g>
   </g>
  </g>
 </g>
 <defs>
  <clipPath id="pb3e1c1f8e9">
   <rect height="217.44" width="334.8" x="54" y="34.56"/>
  </clipPath>
 </defs>
</svg>
